<?xml version="1.0" encoding="utf-8" standalone="no"?>
<!DOCTYPE svg PUBLIC "-//W3C//DTD SVG 1.1//EN"
  "http://www.w3.org/Graphics/SVG/1.1/DTD/svg11.dtd">
<svg xmlns:xlink="http://www.w3.org/1999/xlink" width="1440pt" height="360pt" viewBox="0 0 1440 360" xmlns="http://www.w3.org/2000/svg" version="1.1">
 <metadata>
  <rdf:RDF xmlns:dc="http://purl.org/dc/elements/1.1/" xmlns:cc="http://creativecommons.org/ns#" xmlns:rdf="http://www.w3.org/1999/02/22-rdf-syntax-ns#">
   <cc:Work>
    <dc:type rdf:resource="http://purl.org/dc/dcmitype/StillImage"/>
    <dc:date>2023-07-09T16:47:33.550968</dc:date>
    <dc:format>image/svg+xml</dc:format>
    <dc:creator>
     <cc:Agent>
      <dc:title>Matplotlib v3.7.1, https://matplotlib.org/</dc:title>
     </cc:Agent>
    </dc:creator>
   </cc:Work>
  </rdf:RDF>
 </metadata>
 <defs>
  <style type="text/css">*{stroke-linejoin: round; stroke-linecap: butt}</style>
 </defs>
 <g id="figure_1">
  <g id="patch_1">
   <path d="M 0 360 
L 1440 360 
L 1440 0 
L 0 0 
z
" style="fill: #ffffff"/>
  </g>
  <g id="axes_1">
   <g id="patch_2">
    <path d="M 180 320.4 
L 1296 320.4 
L 1296 43.2 
L 180 43.2 
z
" style="fill: #ffffff"/>
   </g>
   <g id="matplotlib.axis_1">
    <g id="xtick_1">
     <g id="line2d_1">
      <path d="M 219.857143 320.4 
L 219.857143 43.2 
" clip-path="url(#p06fb790147)" style="fill: none; stroke: #cccccc; stroke-linecap: round"/>
     </g>
     <g id="line2d_2"/>
     <g id="text_1">
      <!-- Income -->
      <g style="fill: #262626" transform="translate(222.44308 360.190625) rotate(-90) scale(0.1 -0.1)">
       <defs>
        <path id="LiberationSans-49" d="M 591 0 
L 591 4403 
L 1188 4403 
L 1188 0 
L 591 0 
z
" transform="scale(0.015625)"/>
        <path id="LiberationSans-6e" d="M 2578 0 
L 2578 2144 
Q 2578 2391 2542 2556 
Q 2506 2722 2425 2823 
Q 2344 2925 2211 2967 
Q 2078 3009 1881 3009 
Q 1681 3009 1520 2939 
Q 1359 2869 1245 2736 
Q 1131 2603 1068 2408 
Q 1006 2213 1006 1959 
L 1006 0 
L 444 0 
L 444 2659 
Q 444 2766 442 2883 
Q 441 3000 437 3104 
Q 434 3209 431 3284 
Q 428 3359 425 3381 
L 956 3381 
Q 959 3366 962 3297 
Q 966 3228 970 3139 
Q 975 3050 978 2958 
Q 981 2866 981 2803 
L 991 2803 
Q 1072 2950 1169 3069 
Q 1266 3188 1394 3270 
Q 1522 3353 1687 3398 
Q 1853 3444 2072 3444 
Q 2353 3444 2556 3375 
Q 2759 3306 2890 3162 
Q 3022 3019 3083 2792 
Q 3144 2566 3144 2253 
L 3144 0 
L 2578 0 
z
" transform="scale(0.015625)"/>
        <path id="LiberationSans-63" d="M 859 1706 
Q 859 1416 901 1172 
Q 944 928 1044 751 
Q 1144 575 1308 478 
Q 1472 381 1713 381 
Q 2013 381 2214 543 
Q 2416 706 2463 1044 
L 3031 1006 
Q 3003 797 2909 603 
Q 2816 409 2655 262 
Q 2494 116 2262 26 
Q 2031 -63 1728 -63 
Q 1331 -63 1053 71 
Q 775 206 601 442 
Q 428 678 350 998 
Q 272 1319 272 1694 
Q 272 2034 328 2295 
Q 384 2556 486 2751 
Q 588 2947 725 3080 
Q 863 3213 1023 3292 
Q 1184 3372 1362 3408 
Q 1541 3444 1722 3444 
Q 2006 3444 2228 3366 
Q 2450 3288 2611 3152 
Q 2772 3016 2872 2831 
Q 2972 2647 3013 2434 
L 2434 2391 
Q 2391 2672 2212 2837 
Q 2034 3003 1706 3003 
Q 1466 3003 1305 2923 
Q 1144 2844 1044 2683 
Q 944 2522 901 2278 
Q 859 2034 859 1706 
z
" transform="scale(0.015625)"/>
        <path id="LiberationSans-6f" d="M 3291 1694 
Q 3291 806 2900 371 
Q 2509 -63 1766 -63 
Q 1413 -63 1134 43 
Q 856 150 664 369 
Q 472 588 370 917 
Q 269 1247 269 1694 
Q 269 3444 1784 3444 
Q 2178 3444 2464 3334 
Q 2750 3225 2933 3006 
Q 3116 2788 3203 2459 
Q 3291 2131 3291 1694 
z
M 2700 1694 
Q 2700 2088 2639 2344 
Q 2578 2600 2461 2753 
Q 2344 2906 2175 2967 
Q 2006 3028 1794 3028 
Q 1578 3028 1404 2964 
Q 1231 2900 1109 2745 
Q 988 2591 923 2334 
Q 859 2078 859 1694 
Q 859 1300 928 1042 
Q 997 784 1117 631 
Q 1238 478 1402 415 
Q 1566 353 1759 353 
Q 1975 353 2150 414 
Q 2325 475 2447 628 
Q 2569 781 2634 1040 
Q 2700 1300 2700 1694 
z
" transform="scale(0.015625)"/>
        <path id="LiberationSans-6d" d="M 2400 0 
L 2400 2144 
Q 2400 2391 2369 2556 
Q 2338 2722 2264 2823 
Q 2191 2925 2072 2967 
Q 1953 3009 1781 3009 
Q 1603 3009 1459 2939 
Q 1316 2869 1214 2736 
Q 1113 2603 1058 2408 
Q 1003 2213 1003 1959 
L 1003 0 
L 444 0 
L 444 2659 
Q 444 2766 442 2883 
Q 441 3000 437 3104 
Q 434 3209 431 3284 
Q 428 3359 425 3381 
L 956 3381 
Q 959 3366 962 3297 
Q 966 3228 970 3139 
Q 975 3050 978 2958 
Q 981 2866 981 2803 
L 991 2803 
Q 1066 2950 1153 3069 
Q 1241 3188 1358 3270 
Q 1475 3353 1626 3398 
Q 1778 3444 1978 3444 
Q 2363 3444 2586 3291 
Q 2809 3138 2897 2803 
L 2906 2803 
Q 2981 2950 3075 3069 
Q 3169 3188 3294 3270 
Q 3419 3353 3575 3398 
Q 3731 3444 3931 3444 
Q 4188 3444 4373 3375 
Q 4559 3306 4678 3162 
Q 4797 3019 4853 2792 
Q 4909 2566 4909 2253 
L 4909 0 
L 4353 0 
L 4353 2144 
Q 4353 2391 4322 2556 
Q 4291 2722 4217 2823 
Q 4144 2925 4025 2967 
Q 3906 3009 3734 3009 
Q 3556 3009 3412 2942 
Q 3269 2875 3167 2744 
Q 3066 2613 3011 2416 
Q 2956 2219 2956 1959 
L 2956 0 
L 2400 0 
z
" transform="scale(0.015625)"/>
        <path id="LiberationSans-65" d="M 863 1572 
Q 863 1306 917 1082 
Q 972 859 1086 698 
Q 1200 538 1378 448 
Q 1556 359 1806 359 
Q 2172 359 2392 506 
Q 2613 653 2691 878 
L 3184 738 
Q 3131 597 3036 455 
Q 2941 313 2781 198 
Q 2622 84 2383 10 
Q 2144 -63 1806 -63 
Q 1056 -63 664 384 
Q 272 831 272 1713 
Q 272 2188 390 2517 
Q 509 2847 715 3053 
Q 922 3259 1197 3351 
Q 1472 3444 1784 3444 
Q 2209 3444 2495 3306 
Q 2781 3169 2954 2926 
Q 3128 2684 3201 2356 
Q 3275 2028 3275 1647 
L 3275 1572 
L 863 1572 
z
M 2694 2003 
Q 2647 2538 2422 2783 
Q 2197 3028 1775 3028 
Q 1634 3028 1479 2983 
Q 1325 2938 1194 2822 
Q 1063 2706 972 2507 
Q 881 2309 869 2003 
L 2694 2003 
z
" transform="scale(0.015625)"/>
       </defs>
       <use xlink:href="#LiberationSans-49"/>
       <use xlink:href="#LiberationSans-6e" x="27.783203"/>
       <use xlink:href="#LiberationSans-63" x="83.398438"/>
       <use xlink:href="#LiberationSans-6f" x="133.398438"/>
       <use xlink:href="#LiberationSans-6d" x="189.013672"/>
       <use xlink:href="#LiberationSans-65" x="272.314453"/>
      </g>
     </g>
    </g>
    <g id="xtick_2">
     <g id="line2d_3">
      <path d="M 259.714286 320.4 
L 259.714286 43.2 
" clip-path="url(#p06fb790147)" style="fill: none; stroke: #cccccc; stroke-linecap: round"/>
     </g>
     <g id="line2d_4"/>
     <g id="text_2">
      <!-- MntWines -->
      <g style="fill: #262626" transform="translate(262.300223 371.851562) rotate(-90) scale(0.1 -0.1)">
       <defs>
        <path id="LiberationSans-4d" d="M 4269 0 
L 4269 2938 
Q 4269 3097 4272 3262 
Q 4275 3428 4281 3566 
Q 4288 3725 4297 3875 
Q 4253 3716 4206 3559 
Q 4166 3425 4117 3273 
Q 4069 3122 4022 3000 
L 2884 0 
L 2466 0 
L 1313 3000 
Q 1294 3047 1273 3109 
Q 1253 3172 1229 3242 
Q 1206 3313 1182 3386 
Q 1159 3459 1138 3531 
Q 1084 3697 1034 3875 
Q 1038 3700 1044 3528 
Q 1050 3381 1053 3220 
Q 1056 3059 1056 2938 
L 1056 0 
L 525 0 
L 525 4403 
L 1309 4403 
L 2481 1350 
Q 2503 1288 2534 1189 
Q 2566 1091 2594 987 
Q 2622 884 2645 792 
Q 2669 700 2678 650 
Q 2688 700 2713 794 
Q 2738 888 2770 991 
Q 2803 1094 2834 1191 
Q 2866 1288 2891 1350 
L 4041 4403 
L 4806 4403 
L 4806 0 
L 4269 0 
z
" transform="scale(0.015625)"/>
        <path id="LiberationSans-74" d="M 1731 25 
Q 1603 -9 1470 -29 
Q 1338 -50 1163 -50 
Q 488 -50 488 716 
L 488 2972 
L 97 2972 
L 97 3381 
L 509 3381 
L 675 4138 
L 1050 4138 
L 1050 3381 
L 1675 3381 
L 1675 2972 
L 1050 2972 
L 1050 838 
Q 1050 594 1129 495 
Q 1209 397 1406 397 
Q 1488 397 1564 409 
Q 1641 422 1731 441 
L 1731 25 
z
" transform="scale(0.015625)"/>
        <path id="LiberationSans-57" d="M 4722 0 
L 4009 0 
L 3247 2797 
Q 3213 2916 3173 3078 
Q 3134 3241 3103 3388 
Q 3066 3559 3028 3738 
Q 2988 3556 2950 3384 
Q 2916 3234 2878 3075 
Q 2841 2916 2806 2797 
L 2038 0 
L 1325 0 
L 28 4403 
L 650 4403 
L 1441 1606 
Q 1494 1409 1542 1215 
Q 1591 1022 1625 869 
Q 1666 688 1700 525 
Q 1747 741 1797 950 
Q 1819 1038 1841 1134 
Q 1863 1231 1886 1325 
Q 1909 1419 1932 1505 
Q 1956 1591 1975 1663 
L 2741 4403 
L 3313 4403 
L 4078 1663 
Q 4097 1591 4120 1505 
Q 4144 1419 4167 1326 
Q 4191 1234 4212 1137 
Q 4234 1041 4256 953 
Q 4306 744 4353 525 
Q 4356 525 4381 633 
Q 4406 741 4443 903 
Q 4481 1066 4526 1255 
Q 4572 1444 4619 1606 
L 5397 4403 
L 6019 4403 
L 4722 0 
z
" transform="scale(0.015625)"/>
        <path id="LiberationSans-69" d="M 428 4100 
L 428 4638 
L 991 4638 
L 991 4100 
L 428 4100 
z
M 428 0 
L 428 3381 
L 991 3381 
L 991 0 
L 428 0 
z
" transform="scale(0.015625)"/>
        <path id="LiberationSans-73" d="M 2969 934 
Q 2969 697 2876 511 
Q 2784 325 2609 198 
Q 2434 72 2179 4 
Q 1925 -63 1597 -63 
Q 1303 -63 1067 -17 
Q 831 28 653 128 
Q 475 228 354 392 
Q 234 556 178 794 
L 675 891 
Q 747 619 972 492 
Q 1197 366 1597 366 
Q 1778 366 1929 391 
Q 2081 416 2190 477 
Q 2300 538 2361 639 
Q 2422 741 2422 891 
Q 2422 1044 2350 1142 
Q 2278 1241 2150 1306 
Q 2022 1372 1839 1420 
Q 1656 1469 1438 1528 
Q 1234 1581 1034 1647 
Q 834 1713 673 1820 
Q 513 1928 413 2087 
Q 313 2247 313 2488 
Q 313 2950 642 3192 
Q 972 3434 1603 3434 
Q 2163 3434 2492 3237 
Q 2822 3041 2909 2606 
L 2403 2544 
Q 2375 2675 2300 2764 
Q 2225 2853 2119 2908 
Q 2013 2963 1880 2986 
Q 1747 3009 1603 3009 
Q 1222 3009 1040 2893 
Q 859 2778 859 2544 
Q 859 2406 926 2317 
Q 994 2228 1114 2167 
Q 1234 2106 1403 2061 
Q 1572 2016 1775 1966 
Q 1909 1931 2050 1892 
Q 2191 1853 2323 1798 
Q 2456 1744 2573 1670 
Q 2691 1597 2778 1494 
Q 2866 1391 2917 1253 
Q 2969 1116 2969 934 
z
" transform="scale(0.015625)"/>
       </defs>
       <use xlink:href="#LiberationSans-4d"/>
       <use xlink:href="#LiberationSans-6e" x="83.300781"/>
       <use xlink:href="#LiberationSans-74" x="138.916016"/>
       <use xlink:href="#LiberationSans-57" x="166.699219"/>
       <use xlink:href="#LiberationSans-69" x="261.083984"/>
       <use xlink:href="#LiberationSans-6e" x="283.300781"/>
       <use xlink:href="#LiberationSans-65" x="338.916016"/>
       <use xlink:href="#LiberationSans-73" x="394.53125"/>
      </g>
     </g>
    </g>
    <g id="xtick_3">
     <g id="line2d_5">
      <path d="M 299.571429 320.4 
L 299.571429 43.2 
" clip-path="url(#p06fb790147)" style="fill: none; stroke: #cccccc; stroke-linecap: round"/>
     </g>
     <g id="line2d_6"/>
     <g id="text_3">
      <!-- MntMeatProducts -->
      <g style="fill: #262626" transform="translate(302.157366 405.759375) rotate(-90) scale(0.1 -0.1)">
       <defs>
        <path id="LiberationSans-61" d="M 1294 -63 
Q 784 -63 528 206 
Q 272 475 272 944 
Q 272 1278 398 1492 
Q 525 1706 729 1828 
Q 934 1950 1196 1997 
Q 1459 2044 1731 2050 
L 2491 2063 
L 2491 2247 
Q 2491 2456 2447 2603 
Q 2403 2750 2312 2840 
Q 2222 2931 2086 2973 
Q 1950 3016 1766 3016 
Q 1603 3016 1472 2992 
Q 1341 2969 1244 2908 
Q 1147 2847 1087 2742 
Q 1028 2638 1009 2478 
L 422 2531 
Q 453 2731 540 2898 
Q 628 3066 789 3187 
Q 950 3309 1192 3376 
Q 1434 3444 1778 3444 
Q 2416 3444 2737 3151 
Q 3059 2859 3059 2306 
L 3059 850 
Q 3059 600 3125 473 
Q 3191 347 3375 347 
Q 3422 347 3469 353 
Q 3516 359 3559 369 
L 3559 19 
Q 3453 -6 3348 -18 
Q 3244 -31 3125 -31 
Q 2966 -31 2852 11 
Q 2738 53 2666 139 
Q 2594 225 2556 351 
Q 2519 478 2509 647 
L 2491 647 
Q 2400 484 2292 353 
Q 2184 222 2040 130 
Q 1897 38 1714 -12 
Q 1531 -63 1294 -63 
z
M 1422 359 
Q 1691 359 1892 457 
Q 2094 556 2226 709 
Q 2359 863 2425 1044 
Q 2491 1225 2491 1391 
L 2491 1669 
L 1875 1656 
Q 1669 1653 1483 1626 
Q 1297 1600 1156 1522 
Q 1016 1444 933 1303 
Q 850 1163 850 934 
Q 850 659 998 509 
Q 1147 359 1422 359 
z
" transform="scale(0.015625)"/>
        <path id="LiberationSans-50" d="M 3931 3078 
Q 3931 2791 3836 2542 
Q 3741 2294 3552 2111 
Q 3363 1928 3078 1822 
Q 2794 1716 2416 1716 
L 1122 1716 
L 1122 0 
L 525 0 
L 525 4403 
L 2378 4403 
Q 2769 4403 3059 4308 
Q 3350 4213 3544 4039 
Q 3738 3866 3834 3620 
Q 3931 3375 3931 3078 
z
M 3331 3072 
Q 3331 3491 3075 3708 
Q 2819 3925 2306 3925 
L 1122 3925 
L 1122 2188 
L 2331 2188 
Q 2847 2188 3089 2416 
Q 3331 2644 3331 3072 
z
" transform="scale(0.015625)"/>
        <path id="LiberationSans-72" d="M 444 0 
L 444 2594 
Q 444 2700 442 2811 
Q 441 2922 437 3025 
Q 434 3128 431 3218 
Q 428 3309 425 3381 
L 956 3381 
Q 959 3309 964 3217 
Q 969 3125 973 3028 
Q 978 2931 979 2842 
Q 981 2753 981 2691 
L 994 2691 
Q 1053 2884 1120 3026 
Q 1188 3169 1278 3261 
Q 1369 3353 1494 3398 
Q 1619 3444 1797 3444 
Q 1866 3444 1928 3433 
Q 1991 3422 2025 3413 
L 2025 2897 
Q 1969 2913 1894 2920 
Q 1819 2928 1725 2928 
Q 1531 2928 1395 2840 
Q 1259 2753 1173 2598 
Q 1088 2444 1047 2230 
Q 1006 2016 1006 1763 
L 1006 0 
L 444 0 
z
" transform="scale(0.015625)"/>
        <path id="LiberationSans-64" d="M 2566 544 
Q 2409 219 2151 78 
Q 1894 -63 1513 -63 
Q 872 -63 570 368 
Q 269 800 269 1675 
Q 269 3444 1513 3444 
Q 1897 3444 2153 3303 
Q 2409 3163 2566 2856 
L 2572 2856 
Q 2572 2888 2570 2955 
Q 2569 3022 2567 3095 
Q 2566 3169 2566 3234 
Q 2566 3300 2566 3328 
L 2566 4638 
L 3128 4638 
L 3128 697 
Q 3128 575 3129 462 
Q 3131 350 3134 256 
Q 3138 163 3141 95 
Q 3144 28 3147 0 
L 2609 0 
Q 2603 31 2598 89 
Q 2594 147 2589 222 
Q 2584 297 2581 380 
Q 2578 463 2578 544 
L 2566 544 
z
M 859 1694 
Q 859 1344 903 1094 
Q 947 844 1044 683 
Q 1141 522 1291 447 
Q 1441 372 1656 372 
Q 1878 372 2048 444 
Q 2219 516 2333 677 
Q 2447 838 2506 1097 
Q 2566 1356 2566 1731 
Q 2566 2091 2506 2339 
Q 2447 2588 2331 2741 
Q 2216 2894 2048 2961 
Q 1881 3028 1663 3028 
Q 1456 3028 1306 2956 
Q 1156 2884 1056 2725 
Q 956 2566 907 2311 
Q 859 2056 859 1694 
z
" transform="scale(0.015625)"/>
        <path id="LiberationSans-75" d="M 981 3381 
L 981 1238 
Q 981 991 1017 825 
Q 1053 659 1134 557 
Q 1216 456 1348 414 
Q 1481 372 1678 372 
Q 1878 372 2039 442 
Q 2200 513 2314 645 
Q 2428 778 2490 973 
Q 2553 1169 2553 1422 
L 2553 3381 
L 3116 3381 
L 3116 722 
Q 3116 616 3117 498 
Q 3119 381 3122 276 
Q 3125 172 3128 97 
Q 3131 22 3134 0 
L 2603 0 
Q 2600 16 2597 84 
Q 2594 153 2589 242 
Q 2584 331 2581 423 
Q 2578 516 2578 578 
L 2569 578 
Q 2488 431 2391 312 
Q 2294 194 2166 111 
Q 2038 28 1872 -17 
Q 1706 -63 1488 -63 
Q 1206 -63 1003 6 
Q 800 75 669 219 
Q 538 363 477 588 
Q 416 813 416 1128 
L 416 3381 
L 981 3381 
z
" transform="scale(0.015625)"/>
       </defs>
       <use xlink:href="#LiberationSans-4d"/>
       <use xlink:href="#LiberationSans-6e" x="83.300781"/>
       <use xlink:href="#LiberationSans-74" x="138.916016"/>
       <use xlink:href="#LiberationSans-4d" x="166.699219"/>
       <use xlink:href="#LiberationSans-65" x="250"/>
       <use xlink:href="#LiberationSans-61" x="305.615234"/>
       <use xlink:href="#LiberationSans-74" x="361.230469"/>
       <use xlink:href="#LiberationSans-50" x="389.013672"/>
       <use xlink:href="#LiberationSans-72" x="455.712891"/>
       <use xlink:href="#LiberationSans-6f" x="489.013672"/>
       <use xlink:href="#LiberationSans-64" x="544.628906"/>
       <use xlink:href="#LiberationSans-75" x="600.244141"/>
       <use xlink:href="#LiberationSans-63" x="655.859375"/>
       <use xlink:href="#LiberationSans-74" x="705.859375"/>
       <use xlink:href="#LiberationSans-73" x="733.642578"/>
      </g>
     </g>
    </g>
    <g id="xtick_4">
     <g id="line2d_7">
      <path d="M 339.428571 320.4 
L 339.428571 43.2 
" clip-path="url(#p06fb790147)" style="fill: none; stroke: #cccccc; stroke-linecap: round"/>
     </g>
     <g id="line2d_8"/>
     <g id="text_4">
      <!-- MntGoldProds -->
      <g style="fill: #262626" transform="translate(342.014509 391.3125) rotate(-90) scale(0.1 -0.1)">
       <defs>
        <path id="LiberationSans-47" d="M 322 2222 
Q 322 2738 461 3153 
Q 600 3569 876 3861 
Q 1153 4153 1562 4311 
Q 1972 4469 2513 4469 
Q 2919 4469 3225 4397 
Q 3531 4325 3756 4190 
Q 3981 4056 4137 3864 
Q 4294 3672 4403 3431 
L 3834 3263 
Q 3753 3425 3639 3558 
Q 3525 3691 3362 3784 
Q 3200 3878 2986 3929 
Q 2772 3981 2497 3981 
Q 2097 3981 1801 3856 
Q 1506 3731 1312 3500 
Q 1119 3269 1023 2944 
Q 928 2619 928 2222 
Q 928 1825 1031 1495 
Q 1134 1166 1337 927 
Q 1541 688 1842 555 
Q 2144 422 2541 422 
Q 2800 422 3019 465 
Q 3238 509 3414 579 
Q 3591 650 3725 736 
Q 3859 822 3950 909 
L 3950 1703 
L 2634 1703 
L 2634 2203 
L 4500 2203 
L 4500 684 
Q 4353 534 4154 398 
Q 3956 263 3709 159 
Q 3463 56 3169 -3 
Q 2875 -63 2541 -63 
Q 1984 -63 1568 107 
Q 1153 278 876 583 
Q 600 888 461 1306 
Q 322 1725 322 2222 
z
" transform="scale(0.015625)"/>
        <path id="LiberationSans-6c" d="M 431 0 
L 431 4638 
L 994 4638 
L 994 0 
L 431 0 
z
" transform="scale(0.015625)"/>
       </defs>
       <use xlink:href="#LiberationSans-4d"/>
       <use xlink:href="#LiberationSans-6e" x="83.300781"/>
       <use xlink:href="#LiberationSans-74" x="138.916016"/>
       <use xlink:href="#LiberationSans-47" x="166.699219"/>
       <use xlink:href="#LiberationSans-6f" x="244.482422"/>
       <use xlink:href="#LiberationSans-6c" x="300.097656"/>
       <use xlink:href="#LiberationSans-64" x="322.314453"/>
       <use xlink:href="#LiberationSans-50" x="377.929688"/>
       <use xlink:href="#LiberationSans-72" x="444.628906"/>
       <use xlink:href="#LiberationSans-6f" x="477.929688"/>
       <use xlink:href="#LiberationSans-64" x="533.544922"/>
       <use xlink:href="#LiberationSans-73" x="589.160156"/>
      </g>
     </g>
    </g>
    <g id="xtick_5">
     <g id="line2d_9">
      <path d="M 379.285714 320.4 
L 379.285714 43.2 
" clip-path="url(#p06fb790147)" style="fill: none; stroke: #cccccc; stroke-linecap: round"/>
     </g>
     <g id="line2d_10"/>
     <g id="text_5">
      <!-- MntSweetProducts -->
      <g style="fill: #262626" transform="translate(381.871652 411.321875) rotate(-90) scale(0.1 -0.1)">
       <defs>
        <path id="LiberationSans-53" d="M 3975 1216 
Q 3975 938 3867 703 
Q 3759 469 3534 298 
Q 3309 128 2967 32 
Q 2625 -63 2156 -63 
Q 1334 -63 875 225 
Q 416 513 291 1056 
L 869 1172 
Q 913 1000 1003 859 
Q 1094 719 1248 617 
Q 1403 516 1631 459 
Q 1859 403 2178 403 
Q 2444 403 2666 448 
Q 2888 494 3047 587 
Q 3206 681 3295 829 
Q 3384 978 3384 1184 
Q 3384 1400 3286 1534 
Q 3188 1669 3009 1756 
Q 2831 1844 2584 1903 
Q 2338 1963 2038 2031 
Q 1853 2072 1667 2120 
Q 1481 2169 1311 2236 
Q 1141 2303 991 2393 
Q 841 2484 731 2611 
Q 622 2738 559 2905 
Q 497 3072 497 3291 
Q 497 3603 623 3826 
Q 750 4050 975 4194 
Q 1200 4338 1506 4403 
Q 1813 4469 2169 4469 
Q 2578 4469 2868 4405 
Q 3159 4341 3359 4212 
Q 3559 4084 3679 3895 
Q 3800 3706 3872 3456 
L 3284 3353 
Q 3241 3513 3158 3638 
Q 3075 3763 2940 3847 
Q 2806 3931 2614 3975 
Q 2422 4019 2163 4019 
Q 1856 4019 1648 3964 
Q 1441 3909 1314 3815 
Q 1188 3722 1133 3595 
Q 1078 3469 1078 3322 
Q 1078 3125 1176 2998 
Q 1275 2872 1444 2787 
Q 1613 2703 1834 2647 
Q 2056 2591 2306 2534 
Q 2509 2488 2711 2439 
Q 2913 2391 3097 2323 
Q 3281 2256 3442 2165 
Q 3603 2075 3722 1944 
Q 3841 1813 3908 1634 
Q 3975 1456 3975 1216 
z
" transform="scale(0.015625)"/>
        <path id="LiberationSans-77" d="M 3669 0 
L 3016 0 
L 2475 2181 
Q 2450 2266 2423 2391 
Q 2397 2516 2372 2634 
Q 2341 2772 2313 2919 
Q 2284 2778 2253 2641 
Q 2228 2522 2198 2394 
Q 2169 2266 2144 2169 
L 1588 0 
L 938 0 
L -9 3381 
L 547 3381 
L 1119 1084 
Q 1141 1013 1162 908 
Q 1184 803 1206 703 
Q 1228 588 1253 466 
Q 1278 584 1306 697 
Q 1331 794 1356 894 
Q 1381 994 1400 1059 
L 2013 3381 
L 2616 3381 
L 3206 1059 
Q 3228 978 3253 875 
Q 3278 772 3300 681 
Q 3325 575 3350 466 
Q 3375 584 3400 697 
Q 3422 794 3445 898 
Q 3469 1003 3491 1084 
L 4088 3381 
L 4638 3381 
L 3669 0 
z
" transform="scale(0.015625)"/>
       </defs>
       <use xlink:href="#LiberationSans-4d"/>
       <use xlink:href="#LiberationSans-6e" x="83.300781"/>
       <use xlink:href="#LiberationSans-74" x="138.916016"/>
       <use xlink:href="#LiberationSans-53" x="166.699219"/>
       <use xlink:href="#LiberationSans-77" x="233.398438"/>
       <use xlink:href="#LiberationSans-65" x="305.615234"/>
       <use xlink:href="#LiberationSans-65" x="361.230469"/>
       <use xlink:href="#LiberationSans-74" x="416.845703"/>
       <use xlink:href="#LiberationSans-50" x="444.628906"/>
       <use xlink:href="#LiberationSans-72" x="511.328125"/>
       <use xlink:href="#LiberationSans-6f" x="544.628906"/>
       <use xlink:href="#LiberationSans-64" x="600.244141"/>
       <use xlink:href="#LiberationSans-75" x="655.859375"/>
       <use xlink:href="#LiberationSans-63" x="711.474609"/>
       <use xlink:href="#LiberationSans-74" x="761.474609"/>
       <use xlink:href="#LiberationSans-73" x="789.257812"/>
      </g>
     </g>
    </g>
    <g id="xtick_6">
     <g id="line2d_11">
      <path d="M 419.142857 320.4 
L 419.142857 43.2 
" clip-path="url(#p06fb790147)" style="fill: none; stroke: #cccccc; stroke-linecap: round"/>
     </g>
     <g id="line2d_12"/>
     <g id="text_6">
      <!-- Dt_Customer -->
      <g style="fill: #262626" transform="translate(421.728795 386.303125) rotate(-90) scale(0.1 -0.1)">
       <defs>
        <path id="LiberationSans-44" d="M 4316 2247 
Q 4316 1697 4150 1276 
Q 3984 856 3696 573 
Q 3409 291 3017 145 
Q 2625 0 2172 0 
L 525 0 
L 525 4403 
L 1981 4403 
Q 2491 4403 2920 4276 
Q 3350 4150 3659 3886 
Q 3969 3622 4142 3215 
Q 4316 2809 4316 2247 
z
M 3716 2247 
Q 3716 2694 3587 3011 
Q 3459 3328 3228 3531 
Q 2997 3734 2675 3829 
Q 2353 3925 1969 3925 
L 1122 3925 
L 1122 478 
L 2103 478 
Q 2450 478 2745 590 
Q 3041 703 3256 925 
Q 3472 1147 3594 1478 
Q 3716 1809 3716 2247 
z
" transform="scale(0.015625)"/>
        <path id="LiberationSans-5f" d="M -97 -1272 
L -97 -866 
L 3631 -866 
L 3631 -1272 
L -97 -1272 
z
" transform="scale(0.015625)"/>
        <path id="LiberationSans-43" d="M 2475 3981 
Q 2100 3981 1811 3856 
Q 1522 3731 1326 3500 
Q 1131 3269 1031 2944 
Q 931 2619 931 2222 
Q 931 1825 1039 1495 
Q 1147 1166 1348 928 
Q 1550 691 1842 559 
Q 2134 428 2500 428 
Q 2756 428 2967 495 
Q 3178 563 3348 684 
Q 3519 806 3653 973 
Q 3788 1141 3891 1344 
L 4378 1100 
Q 4259 853 4084 640 
Q 3909 428 3673 272 
Q 3438 116 3139 26 
Q 2841 -63 2472 -63 
Q 1938 -63 1536 107 
Q 1134 278 864 583 
Q 594 888 459 1306 
Q 325 1725 325 2222 
Q 325 2738 467 3153 
Q 609 3569 882 3861 
Q 1156 4153 1556 4311 
Q 1956 4469 2469 4469 
Q 3172 4469 3644 4194 
Q 4116 3919 4338 3378 
L 3772 3191 
Q 3709 3347 3603 3489 
Q 3497 3631 3337 3740 
Q 3178 3850 2964 3915 
Q 2750 3981 2475 3981 
z
" transform="scale(0.015625)"/>
       </defs>
       <use xlink:href="#LiberationSans-44"/>
       <use xlink:href="#LiberationSans-74" x="72.216797"/>
       <use xlink:href="#LiberationSans-5f" x="100"/>
       <use xlink:href="#LiberationSans-43" x="155.615234"/>
       <use xlink:href="#LiberationSans-75" x="227.832031"/>
       <use xlink:href="#LiberationSans-73" x="283.447266"/>
       <use xlink:href="#LiberationSans-74" x="333.447266"/>
       <use xlink:href="#LiberationSans-6f" x="361.230469"/>
       <use xlink:href="#LiberationSans-6d" x="416.845703"/>
       <use xlink:href="#LiberationSans-65" x="500.146484"/>
       <use xlink:href="#LiberationSans-72" x="555.761719"/>
      </g>
     </g>
    </g>
    <g id="xtick_7">
     <g id="line2d_13">
      <path d="M 459 320.4 
L 459 43.2 
" clip-path="url(#p06fb790147)" style="fill: none; stroke: #cccccc; stroke-linecap: round"/>
     </g>
     <g id="line2d_14"/>
     <g id="text_7">
      <!-- Recency -->
      <g style="fill: #262626" transform="translate(461.585938 366.304688) rotate(-90) scale(0.1 -0.1)">
       <defs>
        <path id="LiberationSans-52" d="M 3638 0 
L 2494 1828 
L 1122 1828 
L 1122 0 
L 525 0 
L 525 4403 
L 2597 4403 
Q 2972 4403 3261 4317 
Q 3550 4231 3747 4068 
Q 3944 3906 4047 3672 
Q 4150 3438 4150 3144 
Q 4150 2934 4089 2731 
Q 4028 2528 3897 2359 
Q 3766 2191 3562 2069 
Q 3359 1947 3075 1897 
L 4325 0 
L 3638 0 
z
M 3550 3138 
Q 3550 3338 3481 3484 
Q 3413 3631 3281 3729 
Q 3150 3828 2962 3876 
Q 2775 3925 2538 3925 
L 1122 3925 
L 1122 2300 
L 2563 2300 
Q 2819 2300 3006 2364 
Q 3194 2428 3314 2540 
Q 3434 2653 3492 2806 
Q 3550 2959 3550 3138 
z
" transform="scale(0.015625)"/>
        <path id="LiberationSans-79" d="M 1888 0 
Q 1769 -306 1645 -551 
Q 1522 -797 1369 -970 
Q 1216 -1144 1028 -1236 
Q 841 -1328 597 -1328 
Q 491 -1328 400 -1322 
Q 309 -1316 209 -1294 
L 209 -872 
Q 269 -881 344 -886 
Q 419 -891 472 -891 
Q 719 -891 931 -706 
Q 1144 -522 1303 -119 
L 1356 16 
L 16 3381 
L 616 3381 
L 1328 1513 
Q 1359 1428 1407 1287 
Q 1456 1147 1504 1006 
Q 1553 866 1590 753 
Q 1628 641 1634 613 
Q 1644 647 1680 748 
Q 1716 850 1761 975 
Q 1806 1100 1853 1228 
Q 1900 1356 1931 1450 
L 2594 3381 
L 3188 3381 
L 1888 0 
z
" transform="scale(0.015625)"/>
       </defs>
       <use xlink:href="#LiberationSans-52"/>
       <use xlink:href="#LiberationSans-65" x="72.216797"/>
       <use xlink:href="#LiberationSans-63" x="127.832031"/>
       <use xlink:href="#LiberationSans-65" x="177.832031"/>
       <use xlink:href="#LiberationSans-6e" x="233.447266"/>
       <use xlink:href="#LiberationSans-63" x="289.0625"/>
       <use xlink:href="#LiberationSans-79" x="339.0625"/>
      </g>
     </g>
    </g>
    <g id="xtick_8">
     <g id="line2d_15">
      <path d="M 498.857143 320.4 
L 498.857143 43.2 
" clip-path="url(#p06fb790147)" style="fill: none; stroke: #cccccc; stroke-linecap: round"/>
     </g>
     <g id="line2d_16"/>
     <g id="text_8">
      <!-- Year_Birth -->
      <g style="fill: #262626" transform="translate(501.44308 373.73125) rotate(-90) scale(0.1 -0.1)">
       <defs>
        <path id="LiberationSans-59" d="M 2428 1825 
L 2428 0 
L 1834 0 
L 1834 1825 
L 141 4403 
L 797 4403 
L 2138 2306 
L 3472 4403 
L 4128 4403 
L 2428 1825 
z
" transform="scale(0.015625)"/>
        <path id="LiberationSans-42" d="M 3931 1241 
Q 3931 906 3800 670 
Q 3669 434 3447 286 
Q 3225 138 2931 69 
Q 2638 0 2313 0 
L 525 0 
L 525 4403 
L 2125 4403 
Q 2491 4403 2778 4342 
Q 3066 4281 3266 4150 
Q 3466 4019 3570 3817 
Q 3675 3616 3675 3334 
Q 3675 3150 3623 2987 
Q 3572 2825 3467 2692 
Q 3363 2559 3205 2464 
Q 3047 2369 2838 2322 
Q 3103 2291 3308 2200 
Q 3513 2109 3650 1968 
Q 3788 1828 3859 1642 
Q 3931 1456 3931 1241 
z
M 3075 3263 
Q 3075 3619 2831 3772 
Q 2588 3925 2125 3925 
L 1122 3925 
L 1122 2531 
L 2125 2531 
Q 2388 2531 2569 2582 
Q 2750 2634 2862 2729 
Q 2975 2825 3025 2959 
Q 3075 3094 3075 3263 
z
M 3328 1288 
Q 3328 1497 3251 1644 
Q 3175 1791 3031 1884 
Q 2888 1978 2686 2022 
Q 2484 2066 2234 2066 
L 1122 2066 
L 1122 478 
L 2281 478 
Q 2509 478 2701 515 
Q 2894 553 3033 647 
Q 3172 741 3250 897 
Q 3328 1053 3328 1288 
z
" transform="scale(0.015625)"/>
        <path id="LiberationSans-68" d="M 991 2803 
Q 1084 2975 1193 3095 
Q 1303 3216 1434 3294 
Q 1566 3372 1722 3408 
Q 1878 3444 2072 3444 
Q 2397 3444 2605 3356 
Q 2813 3269 2933 3111 
Q 3053 2953 3098 2734 
Q 3144 2516 3144 2253 
L 3144 0 
L 2578 0 
L 2578 2144 
Q 2578 2359 2551 2521 
Q 2525 2684 2450 2792 
Q 2375 2900 2237 2954 
Q 2100 3009 1881 3009 
Q 1681 3009 1520 2937 
Q 1359 2866 1245 2734 
Q 1131 2603 1068 2415 
Q 1006 2228 1006 1994 
L 1006 0 
L 444 0 
L 444 4638 
L 1006 4638 
L 1006 3431 
Q 1006 3328 1003 3225 
Q 1000 3122 995 3034 
Q 991 2947 987 2886 
Q 984 2825 981 2803 
L 991 2803 
z
" transform="scale(0.015625)"/>
       </defs>
       <use xlink:href="#LiberationSans-59"/>
       <use xlink:href="#LiberationSans-65" x="57.574219"/>
       <use xlink:href="#LiberationSans-61" x="113.189453"/>
       <use xlink:href="#LiberationSans-72" x="168.804688"/>
       <use xlink:href="#LiberationSans-5f" x="202.105469"/>
       <use xlink:href="#LiberationSans-42" x="257.720703"/>
       <use xlink:href="#LiberationSans-69" x="324.419922"/>
       <use xlink:href="#LiberationSans-72" x="346.636719"/>
       <use xlink:href="#LiberationSans-74" x="379.9375"/>
       <use xlink:href="#LiberationSans-68" x="407.720703"/>
      </g>
     </g>
    </g>
    <g id="xtick_9">
     <g id="line2d_17">
      <path d="M 538.714286 320.4 
L 538.714286 43.2 
" clip-path="url(#p06fb790147)" style="fill: none; stroke: #cccccc; stroke-linecap: round"/>
     </g>
     <g id="line2d_18"/>
     <g id="text_9">
      <!-- MntFruits -->
      <g style="fill: #262626" transform="translate(541.300223 369.067187) rotate(-90) scale(0.1 -0.1)">
       <defs>
        <path id="LiberationSans-46" d="M 1122 3916 
L 1122 2278 
L 3578 2278 
L 3578 1784 
L 1122 1784 
L 1122 0 
L 525 0 
L 525 4403 
L 3653 4403 
L 3653 3916 
L 1122 3916 
z
" transform="scale(0.015625)"/>
       </defs>
       <use xlink:href="#LiberationSans-4d"/>
       <use xlink:href="#LiberationSans-6e" x="83.300781"/>
       <use xlink:href="#LiberationSans-74" x="138.916016"/>
       <use xlink:href="#LiberationSans-46" x="166.699219"/>
       <use xlink:href="#LiberationSans-72" x="227.783203"/>
       <use xlink:href="#LiberationSans-75" x="261.083984"/>
       <use xlink:href="#LiberationSans-69" x="316.699219"/>
       <use xlink:href="#LiberationSans-74" x="338.916016"/>
       <use xlink:href="#LiberationSans-73" x="366.699219"/>
      </g>
     </g>
    </g>
    <g id="xtick_10">
     <g id="line2d_19">
      <path d="M 578.571429 320.4 
L 578.571429 43.2 
" clip-path="url(#p06fb790147)" style="fill: none; stroke: #cccccc; stroke-linecap: round"/>
     </g>
     <g id="line2d_20"/>
     <g id="text_10">
      <!-- NumStorePurchases -->
      <g style="fill: #262626" transform="translate(581.157366 419.65625) rotate(-90) scale(0.1 -0.1)">
       <defs>
        <path id="LiberationSans-4e" d="M 3381 0 
L 1025 3750 
Q 1031 3597 1041 3447 
Q 1047 3319 1051 3176 
Q 1056 3034 1056 2925 
L 1056 0 
L 525 0 
L 525 4403 
L 1219 4403 
L 3600 628 
Q 3591 781 3581 934 
Q 3575 1066 3569 1220 
Q 3563 1375 3563 1516 
L 3563 4403 
L 4100 4403 
L 4100 0 
L 3381 0 
z
" transform="scale(0.015625)"/>
       </defs>
       <use xlink:href="#LiberationSans-4e"/>
       <use xlink:href="#LiberationSans-75" x="72.216797"/>
       <use xlink:href="#LiberationSans-6d" x="127.832031"/>
       <use xlink:href="#LiberationSans-53" x="211.132812"/>
       <use xlink:href="#LiberationSans-74" x="277.832031"/>
       <use xlink:href="#LiberationSans-6f" x="305.615234"/>
       <use xlink:href="#LiberationSans-72" x="361.230469"/>
       <use xlink:href="#LiberationSans-65" x="394.53125"/>
       <use xlink:href="#LiberationSans-50" x="450.146484"/>
       <use xlink:href="#LiberationSans-75" x="516.845703"/>
       <use xlink:href="#LiberationSans-72" x="572.460938"/>
       <use xlink:href="#LiberationSans-63" x="605.761719"/>
       <use xlink:href="#LiberationSans-68" x="655.761719"/>
       <use xlink:href="#LiberationSans-61" x="711.376953"/>
       <use xlink:href="#LiberationSans-73" x="766.992188"/>
       <use xlink:href="#LiberationSans-65" x="816.992188"/>
       <use xlink:href="#LiberationSans-73" x="872.607422"/>
      </g>
     </g>
    </g>
    <g id="xtick_11">
     <g id="line2d_21">
      <path d="M 618.428571 320.4 
L 618.428571 43.2 
" clip-path="url(#p06fb790147)" style="fill: none; stroke: #cccccc; stroke-linecap: round"/>
     </g>
     <g id="line2d_22"/>
     <g id="text_11">
      <!-- MntFishProducts -->
      <g style="fill: #262626" transform="translate(621.014509 402.420313) rotate(-90) scale(0.1 -0.1)">
       <use xlink:href="#LiberationSans-4d"/>
       <use xlink:href="#LiberationSans-6e" x="83.300781"/>
       <use xlink:href="#LiberationSans-74" x="138.916016"/>
       <use xlink:href="#LiberationSans-46" x="166.699219"/>
       <use xlink:href="#LiberationSans-69" x="227.783203"/>
       <use xlink:href="#LiberationSans-73" x="250"/>
       <use xlink:href="#LiberationSans-68" x="300"/>
       <use xlink:href="#LiberationSans-50" x="355.615234"/>
       <use xlink:href="#LiberationSans-72" x="422.314453"/>
       <use xlink:href="#LiberationSans-6f" x="455.615234"/>
       <use xlink:href="#LiberationSans-64" x="511.230469"/>
       <use xlink:href="#LiberationSans-75" x="566.845703"/>
       <use xlink:href="#LiberationSans-63" x="622.460938"/>
       <use xlink:href="#LiberationSans-74" x="672.460938"/>
       <use xlink:href="#LiberationSans-73" x="700.244141"/>
      </g>
     </g>
    </g>
    <g id="xtick_12">
     <g id="line2d_23">
      <path d="M 658.285714 320.4 
L 658.285714 43.2 
" clip-path="url(#p06fb790147)" style="fill: none; stroke: #cccccc; stroke-linecap: round"/>
     </g>
     <g id="line2d_24"/>
     <g id="text_12">
      <!-- NumCatalogPurchases -->
      <g style="fill: #262626" transform="translate(660.871652 430.221875) rotate(-90) scale(0.1 -0.1)">
       <defs>
        <path id="LiberationSans-67" d="M 1713 -1328 
Q 1422 -1328 1197 -1268 
Q 972 -1209 812 -1098 
Q 653 -988 553 -834 
Q 453 -681 409 -494 
L 975 -413 
Q 1031 -647 1223 -773 
Q 1416 -900 1728 -900 
Q 1919 -900 2075 -847 
Q 2231 -794 2340 -676 
Q 2450 -559 2509 -371 
Q 2569 -184 2569 84 
L 2569 628 
L 2563 628 
Q 2500 500 2408 383 
Q 2316 266 2183 175 
Q 2050 84 1875 29 
Q 1700 -25 1475 -25 
Q 1153 -25 923 83 
Q 694 191 548 406 
Q 403 622 336 942 
Q 269 1263 269 1684 
Q 269 2091 336 2416 
Q 403 2741 554 2967 
Q 706 3194 948 3314 
Q 1191 3434 1538 3434 
Q 1897 3434 2161 3270 
Q 2425 3106 2569 2803 
L 2575 2803 
Q 2575 2881 2579 2978 
Q 2584 3075 2589 3161 
Q 2594 3247 2600 3309 
Q 2606 3372 2613 3381 
L 3147 3381 
Q 3144 3353 3141 3286 
Q 3138 3219 3134 3125 
Q 3131 3031 3129 2917 
Q 3128 2803 3128 2681 
L 3128 97 
Q 3128 -613 2779 -970 
Q 2431 -1328 1713 -1328 
z
M 2569 1691 
Q 2569 2044 2492 2295 
Q 2416 2547 2291 2706 
Q 2166 2866 2005 2941 
Q 1844 3016 1675 3016 
Q 1459 3016 1304 2941 
Q 1150 2866 1048 2705 
Q 947 2544 898 2292 
Q 850 2041 850 1691 
Q 850 1325 898 1076 
Q 947 828 1047 675 
Q 1147 522 1300 456 
Q 1453 391 1666 391 
Q 1834 391 1995 462 
Q 2156 534 2284 690 
Q 2413 847 2491 1094 
Q 2569 1341 2569 1691 
z
" transform="scale(0.015625)"/>
       </defs>
       <use xlink:href="#LiberationSans-4e"/>
       <use xlink:href="#LiberationSans-75" x="72.216797"/>
       <use xlink:href="#LiberationSans-6d" x="127.832031"/>
       <use xlink:href="#LiberationSans-43" x="211.132812"/>
       <use xlink:href="#LiberationSans-61" x="283.349609"/>
       <use xlink:href="#LiberationSans-74" x="338.964844"/>
       <use xlink:href="#LiberationSans-61" x="366.748047"/>
       <use xlink:href="#LiberationSans-6c" x="422.363281"/>
       <use xlink:href="#LiberationSans-6f" x="444.580078"/>
       <use xlink:href="#LiberationSans-67" x="500.195312"/>
       <use xlink:href="#LiberationSans-50" x="555.810547"/>
       <use xlink:href="#LiberationSans-75" x="622.509766"/>
       <use xlink:href="#LiberationSans-72" x="678.125"/>
       <use xlink:href="#LiberationSans-63" x="711.425781"/>
       <use xlink:href="#LiberationSans-68" x="761.425781"/>
       <use xlink:href="#LiberationSans-61" x="817.041016"/>
       <use xlink:href="#LiberationSans-73" x="872.65625"/>
       <use xlink:href="#LiberationSans-65" x="922.65625"/>
       <use xlink:href="#LiberationSans-73" x="978.271484"/>
      </g>
     </g>
    </g>
    <g id="xtick_13">
     <g id="line2d_25">
      <path d="M 698.142857 320.4 
L 698.142857 43.2 
" clip-path="url(#p06fb790147)" style="fill: none; stroke: #cccccc; stroke-linecap: round"/>
     </g>
     <g id="line2d_26"/>
     <g id="text_13">
      <!-- NumWebPurchases -->
      <g style="fill: #262626" transform="translate(700.728795 416.142187) rotate(-90) scale(0.1 -0.1)">
       <defs>
        <path id="LiberationSans-62" d="M 3291 1706 
Q 3291 -63 2047 -63 
Q 1663 -63 1408 76 
Q 1153 216 994 525 
L 988 525 
Q 988 444 983 356 
Q 978 269 973 194 
Q 969 119 964 66 
Q 959 13 956 0 
L 413 0 
Q 416 28 419 95 
Q 422 163 425 256 
Q 428 350 429 462 
Q 431 575 431 697 
L 431 4638 
L 994 4638 
L 994 3316 
Q 994 3222 992 3136 
Q 991 3050 988 2984 
Q 984 2906 981 2838 
L 994 2838 
Q 1150 3163 1408 3303 
Q 1666 3444 2047 3444 
Q 2688 3444 2989 3012 
Q 3291 2581 3291 1706 
z
M 2700 1688 
Q 2700 2038 2656 2288 
Q 2613 2538 2516 2698 
Q 2419 2859 2269 2934 
Q 2119 3009 1903 3009 
Q 1681 3009 1511 2937 
Q 1341 2866 1227 2706 
Q 1113 2547 1053 2287 
Q 994 2028 994 1653 
Q 994 1291 1053 1044 
Q 1113 797 1227 642 
Q 1341 488 1509 420 
Q 1678 353 1897 353 
Q 2103 353 2253 425 
Q 2403 497 2503 656 
Q 2603 816 2651 1070 
Q 2700 1325 2700 1688 
z
" transform="scale(0.015625)"/>
       </defs>
       <use xlink:href="#LiberationSans-4e"/>
       <use xlink:href="#LiberationSans-75" x="72.216797"/>
       <use xlink:href="#LiberationSans-6d" x="127.832031"/>
       <use xlink:href="#LiberationSans-57" x="211.132812"/>
       <use xlink:href="#LiberationSans-65" x="303.767578"/>
       <use xlink:href="#LiberationSans-62" x="359.382812"/>
       <use xlink:href="#LiberationSans-50" x="414.998047"/>
       <use xlink:href="#LiberationSans-75" x="481.697266"/>
       <use xlink:href="#LiberationSans-72" x="537.3125"/>
       <use xlink:href="#LiberationSans-63" x="570.613281"/>
       <use xlink:href="#LiberationSans-68" x="620.613281"/>
       <use xlink:href="#LiberationSans-61" x="676.228516"/>
       <use xlink:href="#LiberationSans-73" x="731.84375"/>
       <use xlink:href="#LiberationSans-65" x="781.84375"/>
       <use xlink:href="#LiberationSans-73" x="837.458984"/>
      </g>
     </g>
    </g>
    <g id="xtick_14">
     <g id="line2d_27">
      <path d="M 738 320.4 
L 738 43.2 
" clip-path="url(#p06fb790147)" style="fill: none; stroke: #cccccc; stroke-linecap: round"/>
     </g>
     <g id="line2d_28"/>
     <g id="text_14">
      <!-- NumWebVisitsMonth -->
      <g style="fill: #262626" transform="translate(740.585938 420.40625) rotate(-90) scale(0.1 -0.1)">
       <defs>
        <path id="LiberationSans-56" d="M 2444 0 
L 1825 0 
L 28 4403 
L 656 4403 
L 1875 1303 
Q 1922 1163 1969 1023 
Q 2016 884 2053 775 
Q 2097 647 2138 525 
Q 2175 641 2219 769 
Q 2256 878 2301 1015 
Q 2347 1153 2400 1303 
L 3613 4403 
L 4241 4403 
L 2444 0 
z
" transform="scale(0.015625)"/>
       </defs>
       <use xlink:href="#LiberationSans-4e"/>
       <use xlink:href="#LiberationSans-75" x="72.216797"/>
       <use xlink:href="#LiberationSans-6d" x="127.832031"/>
       <use xlink:href="#LiberationSans-57" x="211.132812"/>
       <use xlink:href="#LiberationSans-65" x="303.767578"/>
       <use xlink:href="#LiberationSans-62" x="359.382812"/>
       <use xlink:href="#LiberationSans-56" x="414.998047"/>
       <use xlink:href="#LiberationSans-69" x="479.947266"/>
       <use xlink:href="#LiberationSans-73" x="502.164062"/>
       <use xlink:href="#LiberationSans-69" x="552.164062"/>
       <use xlink:href="#LiberationSans-74" x="574.380859"/>
       <use xlink:href="#LiberationSans-73" x="602.164062"/>
       <use xlink:href="#LiberationSans-4d" x="652.164062"/>
       <use xlink:href="#LiberationSans-6f" x="735.464844"/>
       <use xlink:href="#LiberationSans-6e" x="791.080078"/>
       <use xlink:href="#LiberationSans-74" x="846.695312"/>
       <use xlink:href="#LiberationSans-68" x="874.478516"/>
      </g>
     </g>
    </g>
    <g id="xtick_15">
     <g id="line2d_29">
      <path d="M 777.857143 320.4 
L 777.857143 43.2 
" clip-path="url(#p06fb790147)" style="fill: none; stroke: #cccccc; stroke-linecap: round"/>
     </g>
     <g id="line2d_30"/>
     <g id="text_15">
      <!-- NumDealsPurchases -->
      <g style="fill: #262626" transform="translate(780.44308 421.321875) rotate(-90) scale(0.1 -0.1)">
       <use xlink:href="#LiberationSans-4e"/>
       <use xlink:href="#LiberationSans-75" x="72.216797"/>
       <use xlink:href="#LiberationSans-6d" x="127.832031"/>
       <use xlink:href="#LiberationSans-44" x="211.132812"/>
       <use xlink:href="#LiberationSans-65" x="283.349609"/>
       <use xlink:href="#LiberationSans-61" x="338.964844"/>
       <use xlink:href="#LiberationSans-6c" x="394.580078"/>
       <use xlink:href="#LiberationSans-73" x="416.796875"/>
       <use xlink:href="#LiberationSans-50" x="466.796875"/>
       <use xlink:href="#LiberationSans-75" x="533.496094"/>
       <use xlink:href="#LiberationSans-72" x="589.111328"/>
       <use xlink:href="#LiberationSans-63" x="622.412109"/>
       <use xlink:href="#LiberationSans-68" x="672.412109"/>
       <use xlink:href="#LiberationSans-61" x="728.027344"/>
       <use xlink:href="#LiberationSans-73" x="783.642578"/>
       <use xlink:href="#LiberationSans-65" x="833.642578"/>
       <use xlink:href="#LiberationSans-73" x="889.257812"/>
      </g>
     </g>
    </g>
    <g id="xtick_16">
     <g id="line2d_31">
      <path d="M 817.714286 320.4 
L 817.714286 43.2 
" clip-path="url(#p06fb790147)" style="fill: none; stroke: #cccccc; stroke-linecap: round"/>
     </g>
     <g id="line2d_32"/>
     <g id="text_16">
      <!-- Education -->
      <g style="fill: #262626" transform="translate(820.300223 371.875) rotate(-90) scale(0.1 -0.1)">
       <defs>
        <path id="LiberationSans-45" d="M 525 0 
L 525 4403 
L 3866 4403 
L 3866 3916 
L 1122 3916 
L 1122 2503 
L 3678 2503 
L 3678 2022 
L 1122 2022 
L 1122 488 
L 3994 488 
L 3994 0 
L 525 0 
z
" transform="scale(0.015625)"/>
       </defs>
       <use xlink:href="#LiberationSans-45"/>
       <use xlink:href="#LiberationSans-64" x="66.699219"/>
       <use xlink:href="#LiberationSans-75" x="122.314453"/>
       <use xlink:href="#LiberationSans-63" x="177.929688"/>
       <use xlink:href="#LiberationSans-61" x="227.929688"/>
       <use xlink:href="#LiberationSans-74" x="283.544922"/>
       <use xlink:href="#LiberationSans-69" x="311.328125"/>
       <use xlink:href="#LiberationSans-6f" x="333.544922"/>
       <use xlink:href="#LiberationSans-6e" x="389.160156"/>
      </g>
     </g>
    </g>
    <g id="xtick_17">
     <g id="line2d_33">
      <path d="M 857.571429 320.4 
L 857.571429 43.2 
" clip-path="url(#p06fb790147)" style="fill: none; stroke: #cccccc; stroke-linecap: round"/>
     </g>
     <g id="line2d_34"/>
     <g id="text_17">
      <!-- Teenhome -->
      <g style="fill: #262626" transform="translate(860.157366 374.090625) rotate(-90) scale(0.1 -0.1)">
       <defs>
        <path id="LiberationSans-54" d="M 2250 3916 
L 2250 0 
L 1656 0 
L 1656 3916 
L 144 3916 
L 144 4403 
L 3763 4403 
L 3763 3916 
L 2250 3916 
z
" transform="scale(0.015625)"/>
       </defs>
       <use xlink:href="#LiberationSans-54"/>
       <use xlink:href="#LiberationSans-65" x="49.958984"/>
       <use xlink:href="#LiberationSans-65" x="105.574219"/>
       <use xlink:href="#LiberationSans-6e" x="161.189453"/>
       <use xlink:href="#LiberationSans-68" x="216.804688"/>
       <use xlink:href="#LiberationSans-6f" x="272.419922"/>
       <use xlink:href="#LiberationSans-6d" x="328.035156"/>
       <use xlink:href="#LiberationSans-65" x="411.335938"/>
      </g>
     </g>
    </g>
    <g id="xtick_18">
     <g id="line2d_35">
      <path d="M 897.428571 320.4 
L 897.428571 43.2 
" clip-path="url(#p06fb790147)" style="fill: none; stroke: #cccccc; stroke-linecap: round"/>
     </g>
     <g id="line2d_36"/>
     <g id="text_18">
      <!-- Married -->
      <g style="fill: #262626" transform="translate(900.014509 361.29375) rotate(-90) scale(0.1 -0.1)">
       <use xlink:href="#LiberationSans-4d"/>
       <use xlink:href="#LiberationSans-61" x="83.300781"/>
       <use xlink:href="#LiberationSans-72" x="138.916016"/>
       <use xlink:href="#LiberationSans-72" x="172.216797"/>
       <use xlink:href="#LiberationSans-69" x="205.517578"/>
       <use xlink:href="#LiberationSans-65" x="227.734375"/>
       <use xlink:href="#LiberationSans-64" x="283.349609"/>
      </g>
     </g>
    </g>
    <g id="xtick_19">
     <g id="line2d_37">
      <path d="M 937.285714 320.4 
L 937.285714 43.2 
" clip-path="url(#p06fb790147)" style="fill: none; stroke: #cccccc; stroke-linecap: round"/>
     </g>
     <g id="line2d_38"/>
     <g id="text_19">
      <!-- Together -->
      <g style="fill: #262626" transform="translate(939.871652 366.307813) rotate(-90) scale(0.1 -0.1)">
       <use xlink:href="#LiberationSans-54"/>
       <use xlink:href="#LiberationSans-6f" x="49.958984"/>
       <use xlink:href="#LiberationSans-67" x="105.574219"/>
       <use xlink:href="#LiberationSans-65" x="161.189453"/>
       <use xlink:href="#LiberationSans-74" x="216.804688"/>
       <use xlink:href="#LiberationSans-68" x="244.587891"/>
       <use xlink:href="#LiberationSans-65" x="300.203125"/>
       <use xlink:href="#LiberationSans-72" x="355.818359"/>
      </g>
     </g>
    </g>
    <g id="xtick_20">
     <g id="line2d_39">
      <path d="M 977.142857 320.4 
L 977.142857 43.2 
" clip-path="url(#p06fb790147)" style="fill: none; stroke: #cccccc; stroke-linecap: round"/>
     </g>
     <g id="line2d_40"/>
     <g id="text_20">
      <!-- Kidhome -->
      <g style="fill: #262626" transform="translate(979.728795 366.865625) rotate(-90) scale(0.1 -0.1)">
       <defs>
        <path id="LiberationSans-4b" d="M 3456 0 
L 1697 2125 
L 1122 1688 
L 1122 0 
L 525 0 
L 525 4403 
L 1122 4403 
L 1122 2197 
L 3244 4403 
L 3947 4403 
L 2072 2491 
L 4197 0 
L 3456 0 
z
" transform="scale(0.015625)"/>
       </defs>
       <use xlink:href="#LiberationSans-4b"/>
       <use xlink:href="#LiberationSans-69" x="66.699219"/>
       <use xlink:href="#LiberationSans-64" x="88.916016"/>
       <use xlink:href="#LiberationSans-68" x="144.53125"/>
       <use xlink:href="#LiberationSans-6f" x="200.146484"/>
       <use xlink:href="#LiberationSans-6d" x="255.761719"/>
       <use xlink:href="#LiberationSans-65" x="339.0625"/>
      </g>
     </g>
    </g>
    <g id="xtick_21">
     <g id="line2d_41">
      <path d="M 1017 320.4 
L 1017 43.2 
" clip-path="url(#p06fb790147)" style="fill: none; stroke: #cccccc; stroke-linecap: round"/>
     </g>
     <g id="line2d_42"/>
     <g id="text_21">
      <!-- Single -->
      <g style="fill: #262626" transform="translate(1019.585938 355.196875) rotate(-90) scale(0.1 -0.1)">
       <use xlink:href="#LiberationSans-53"/>
       <use xlink:href="#LiberationSans-69" x="66.699219"/>
       <use xlink:href="#LiberationSans-6e" x="88.916016"/>
       <use xlink:href="#LiberationSans-67" x="144.53125"/>
       <use xlink:href="#LiberationSans-6c" x="200.146484"/>
       <use xlink:href="#LiberationSans-65" x="222.363281"/>
      </g>
     </g>
    </g>
    <g id="xtick_22">
     <g id="line2d_43">
      <path d="M 1056.857143 320.4 
L 1056.857143 43.2 
" clip-path="url(#p06fb790147)" style="fill: none; stroke: #cccccc; stroke-linecap: round"/>
     </g>
     <g id="line2d_44"/>
     <g id="text_22">
      <!-- Divorced -->
      <g style="fill: #262626" transform="translate(1059.44308 366.85625) rotate(-90) scale(0.1 -0.1)">
       <defs>
        <path id="LiberationSans-76" d="M 1916 0 
L 1250 0 
L 22 3381 
L 622 3381 
L 1366 1181 
Q 1388 1113 1417 1014 
Q 1447 916 1478 809 
Q 1509 703 1536 604 
Q 1563 506 1581 441 
Q 1600 506 1629 604 
Q 1659 703 1690 806 
Q 1722 909 1755 1007 
Q 1788 1106 1813 1175 
L 2581 3381 
L 3178 3381 
L 1916 0 
z
" transform="scale(0.015625)"/>
       </defs>
       <use xlink:href="#LiberationSans-44"/>
       <use xlink:href="#LiberationSans-69" x="72.216797"/>
       <use xlink:href="#LiberationSans-76" x="94.433594"/>
       <use xlink:href="#LiberationSans-6f" x="144.433594"/>
       <use xlink:href="#LiberationSans-72" x="200.048828"/>
       <use xlink:href="#LiberationSans-63" x="233.349609"/>
       <use xlink:href="#LiberationSans-65" x="283.349609"/>
       <use xlink:href="#LiberationSans-64" x="338.964844"/>
      </g>
     </g>
    </g>
    <g id="xtick_23">
     <g id="line2d_45">
      <path d="M 1096.714286 320.4 
L 1096.714286 43.2 
" clip-path="url(#p06fb790147)" style="fill: none; stroke: #cccccc; stroke-linecap: round"/>
     </g>
     <g id="line2d_46"/>
     <g id="text_23">
      <!-- Widow -->
      <g style="fill: #262626" transform="translate(1099.300223 357.404688) rotate(-90) scale(0.1 -0.1)">
       <use xlink:href="#LiberationSans-57"/>
       <use xlink:href="#LiberationSans-69" x="94.384766"/>
       <use xlink:href="#LiberationSans-64" x="116.601562"/>
       <use xlink:href="#LiberationSans-6f" x="172.216797"/>
       <use xlink:href="#LiberationSans-77" x="227.832031"/>
      </g>
     </g>
    </g>
    <g id="xtick_24">
     <g id="line2d_47">
      <path d="M 1136.571429 320.4 
L 1136.571429 43.2 
" clip-path="url(#p06fb790147)" style="fill: none; stroke: #cccccc; stroke-linecap: round"/>
     </g>
     <g id="line2d_48"/>
     <g id="text_24">
      <!-- Complain -->
      <g style="fill: #262626" transform="translate(1139.157366 369.639063) rotate(-90) scale(0.1 -0.1)">
       <defs>
        <path id="LiberationSans-70" d="M 3291 1706 
Q 3291 1322 3228 997 
Q 3166 672 3020 437 
Q 2875 203 2636 70 
Q 2397 -63 2047 -63 
Q 1684 -63 1412 75 
Q 1141 213 997 525 
L 981 525 
Q 984 519 986 469 
Q 988 419 989 344 
Q 991 269 992 176 
Q 994 84 994 -6 
L 994 -1328 
L 431 -1328 
L 431 2691 
Q 431 2813 429 2925 
Q 428 3038 425 3130 
Q 422 3222 419 3287 
Q 416 3353 413 3381 
L 956 3381 
Q 959 3372 964 3315 
Q 969 3259 973 3179 
Q 978 3100 983 3009 
Q 988 2919 988 2838 
L 1000 2838 
Q 1078 3000 1178 3114 
Q 1278 3228 1406 3301 
Q 1534 3375 1692 3408 
Q 1850 3441 2047 3441 
Q 2397 3441 2636 3316 
Q 2875 3191 3020 2964 
Q 3166 2738 3228 2417 
Q 3291 2097 3291 1706 
z
M 2700 1694 
Q 2700 2006 2662 2250 
Q 2625 2494 2533 2662 
Q 2441 2831 2287 2918 
Q 2134 3006 1903 3006 
Q 1716 3006 1550 2953 
Q 1384 2900 1261 2750 
Q 1138 2600 1066 2336 
Q 994 2072 994 1650 
Q 994 1291 1053 1042 
Q 1113 794 1227 641 
Q 1341 488 1509 420 
Q 1678 353 1897 353 
Q 2131 353 2286 443 
Q 2441 534 2533 706 
Q 2625 878 2662 1126 
Q 2700 1375 2700 1694 
z
" transform="scale(0.015625)"/>
       </defs>
       <use xlink:href="#LiberationSans-43"/>
       <use xlink:href="#LiberationSans-6f" x="72.216797"/>
       <use xlink:href="#LiberationSans-6d" x="127.832031"/>
       <use xlink:href="#LiberationSans-70" x="211.132812"/>
       <use xlink:href="#LiberationSans-6c" x="266.748047"/>
       <use xlink:href="#LiberationSans-61" x="288.964844"/>
       <use xlink:href="#LiberationSans-69" x="344.580078"/>
       <use xlink:href="#LiberationSans-6e" x="366.796875"/>
      </g>
     </g>
    </g>
    <g id="xtick_25">
     <g id="line2d_49">
      <path d="M 1176.428571 320.4 
L 1176.428571 43.2 
" clip-path="url(#p06fb790147)" style="fill: none; stroke: #cccccc; stroke-linecap: round"/>
     </g>
     <g id="line2d_50"/>
     <g id="text_25">
      <!-- YOLO -->
      <g style="fill: #262626" transform="translate(1179.014509 355.1875) rotate(-90) scale(0.1 -0.1)">
       <defs>
        <path id="LiberationSans-4f" d="M 4672 2222 
Q 4672 1706 4523 1284 
Q 4375 863 4094 563 
Q 3813 263 3406 100 
Q 3000 -63 2484 -63 
Q 1941 -63 1531 107 
Q 1122 278 850 583 
Q 578 888 440 1306 
Q 303 1725 303 2222 
Q 303 2738 447 3153 
Q 591 3569 869 3861 
Q 1147 4153 1555 4311 
Q 1963 4469 2491 4469 
Q 3016 4469 3423 4309 
Q 3831 4150 4107 3856 
Q 4384 3563 4528 3147 
Q 4672 2731 4672 2222 
z
M 4063 2222 
Q 4063 2619 3961 2944 
Q 3859 3269 3661 3500 
Q 3463 3731 3169 3856 
Q 2875 3981 2491 3981 
Q 2097 3981 1800 3856 
Q 1503 3731 1304 3500 
Q 1106 3269 1007 2944 
Q 909 2619 909 2222 
Q 909 1825 1011 1495 
Q 1113 1166 1311 927 
Q 1509 688 1804 555 
Q 2100 422 2484 422 
Q 2897 422 3195 556 
Q 3494 691 3686 930 
Q 3878 1169 3970 1500 
Q 4063 1831 4063 2222 
z
" transform="scale(0.015625)"/>
        <path id="LiberationSans-4c" d="M 525 0 
L 525 4403 
L 1122 4403 
L 1122 488 
L 3347 488 
L 3347 0 
L 525 0 
z
" transform="scale(0.015625)"/>
       </defs>
       <use xlink:href="#LiberationSans-59"/>
       <use xlink:href="#LiberationSans-4f" x="66.699219"/>
       <use xlink:href="#LiberationSans-4c" x="144.482422"/>
       <use xlink:href="#LiberationSans-4f" x="200.097656"/>
      </g>
     </g>
    </g>
    <g id="xtick_26">
     <g id="line2d_51">
      <path d="M 1216.285714 320.4 
L 1216.285714 43.2 
" clip-path="url(#p06fb790147)" style="fill: none; stroke: #cccccc; stroke-linecap: round"/>
     </g>
     <g id="line2d_52"/>
     <g id="text_26">
      <!-- Alone -->
      <g style="fill: #262626" transform="translate(1218.871652 352.975) rotate(-90) scale(0.1 -0.1)">
       <defs>
        <path id="LiberationSans-41" d="M 3647 0 
L 3144 1288 
L 1138 1288 
L 631 0 
L 13 0 
L 1809 4403 
L 2488 4403 
L 4256 0 
L 3647 0 
z
M 2400 3206 
Q 2350 3331 2304 3459 
Q 2259 3588 2225 3692 
Q 2191 3797 2167 3867 
Q 2144 3938 2141 3953 
Q 2134 3938 2112 3866 
Q 2091 3794 2055 3687 
Q 2019 3581 1973 3453 
Q 1928 3325 1881 3200 
L 1319 1753 
L 2966 1753 
L 2400 3206 
z
" transform="scale(0.015625)"/>
       </defs>
       <use xlink:href="#LiberationSans-41"/>
       <use xlink:href="#LiberationSans-6c" x="66.699219"/>
       <use xlink:href="#LiberationSans-6f" x="88.916016"/>
       <use xlink:href="#LiberationSans-6e" x="144.53125"/>
       <use xlink:href="#LiberationSans-65" x="200.146484"/>
      </g>
     </g>
    </g>
    <g id="xtick_27">
     <g id="line2d_53">
      <path d="M 1256.142857 320.4 
L 1256.142857 43.2 
" clip-path="url(#p06fb790147)" style="fill: none; stroke: #cccccc; stroke-linecap: round"/>
     </g>
     <g id="line2d_54"/>
     <g id="text_27">
      <!-- Absurd -->
      <g style="fill: #262626" transform="translate(1258.728795 359.082812) rotate(-90) scale(0.1 -0.1)">
       <use xlink:href="#LiberationSans-41"/>
       <use xlink:href="#LiberationSans-62" x="66.699219"/>
       <use xlink:href="#LiberationSans-73" x="122.314453"/>
       <use xlink:href="#LiberationSans-75" x="172.314453"/>
       <use xlink:href="#LiberationSans-72" x="227.929688"/>
       <use xlink:href="#LiberationSans-64" x="261.230469"/>
      </g>
     </g>
    </g>
   </g>
   <g id="matplotlib.axis_2">
    <g id="ytick_1">
     <g id="line2d_55">
      <path d="M 180 302.981696 
L 1296 302.981696 
" clip-path="url(#p06fb790147)" style="fill: none; stroke: #cccccc; stroke-linecap: round"/>
     </g>
     <g id="line2d_56"/>
     <g id="text_28">
      <!-- 0.000 -->
      <g style="fill: #262626" transform="translate(147.978125 306.605133) scale(0.1 -0.1)">
       <defs>
        <path id="LiberationSans-30" d="M 3309 2203 
Q 3309 1569 3189 1136 
Q 3069 703 2861 436 
Q 2653 169 2372 53 
Q 2091 -63 1772 -63 
Q 1450 -63 1172 53 
Q 894 169 689 434 
Q 484 700 367 1133 
Q 250 1566 250 2203 
Q 250 2869 367 3305 
Q 484 3741 690 4000 
Q 897 4259 1178 4364 
Q 1459 4469 1791 4469 
Q 2106 4469 2382 4364 
Q 2659 4259 2865 4000 
Q 3072 3741 3190 3305 
Q 3309 2869 3309 2203 
z
M 2738 2203 
Q 2738 2728 2675 3076 
Q 2613 3425 2491 3633 
Q 2369 3841 2192 3927 
Q 2016 4013 1791 4013 
Q 1553 4013 1372 3925 
Q 1191 3838 1067 3630 
Q 944 3422 881 3073 
Q 819 2725 819 2203 
Q 819 1697 883 1350 
Q 947 1003 1070 792 
Q 1194 581 1372 489 
Q 1550 397 1778 397 
Q 2000 397 2178 489 
Q 2356 581 2479 792 
Q 2603 1003 2670 1350 
Q 2738 1697 2738 2203 
z
" transform="scale(0.015625)"/>
        <path id="LiberationSans-2e" d="M 584 0 
L 584 684 
L 1194 684 
L 1194 0 
L 584 0 
z
" transform="scale(0.015625)"/>
       </defs>
       <use xlink:href="#LiberationSans-30"/>
       <use xlink:href="#LiberationSans-2e" x="55.615234"/>
       <use xlink:href="#LiberationSans-30" x="83.398438"/>
       <use xlink:href="#LiberationSans-30" x="139.013672"/>
       <use xlink:href="#LiberationSans-30" x="194.628906"/>
      </g>
     </g>
    </g>
    <g id="ytick_2">
     <g id="line2d_57">
      <path d="M 180 267.131165 
L 1296 267.131165 
" clip-path="url(#p06fb790147)" style="fill: none; stroke: #cccccc; stroke-linecap: round"/>
     </g>
     <g id="line2d_58"/>
     <g id="text_29">
      <!-- 0.025 -->
      <g style="fill: #262626" transform="translate(147.978125 270.754602) scale(0.1 -0.1)">
       <defs>
        <path id="LiberationSans-32" d="M 322 0 
L 322 397 
Q 481 763 711 1042 
Q 941 1322 1194 1548 
Q 1447 1775 1695 1969 
Q 1944 2163 2144 2356 
Q 2344 2550 2467 2762 
Q 2591 2975 2591 3244 
Q 2591 3431 2534 3573 
Q 2478 3716 2372 3812 
Q 2266 3909 2117 3957 
Q 1969 4006 1788 4006 
Q 1619 4006 1470 3959 
Q 1322 3913 1206 3819 
Q 1091 3725 1017 3586 
Q 944 3447 922 3263 
L 347 3316 
Q 375 3553 478 3762 
Q 581 3972 762 4130 
Q 944 4288 1198 4378 
Q 1453 4469 1788 4469 
Q 2116 4469 2372 4391 
Q 2628 4313 2804 4159 
Q 2981 4006 3075 3781 
Q 3169 3556 3169 3263 
Q 3169 3041 3089 2841 
Q 3009 2641 2876 2459 
Q 2744 2278 2569 2109 
Q 2394 1941 2203 1780 
Q 2013 1619 1819 1461 
Q 1625 1303 1454 1143 
Q 1284 984 1150 820 
Q 1016 656 941 478 
L 3238 478 
L 3238 0 
L 322 0 
z
" transform="scale(0.015625)"/>
        <path id="LiberationSans-35" d="M 3291 1434 
Q 3291 1103 3191 828 
Q 3091 553 2894 354 
Q 2697 156 2405 46 
Q 2113 -63 1728 -63 
Q 1381 -63 1123 18 
Q 866 100 687 242 
Q 509 384 404 575 
Q 300 766 256 984 
L 825 1050 
Q 859 925 921 808 
Q 984 691 1092 598 
Q 1200 506 1358 451 
Q 1516 397 1741 397 
Q 1959 397 2137 464 
Q 2316 531 2442 662 
Q 2569 794 2637 984 
Q 2706 1175 2706 1422 
Q 2706 1625 2640 1795 
Q 2575 1966 2453 2089 
Q 2331 2213 2154 2281 
Q 1978 2350 1753 2350 
Q 1613 2350 1494 2325 
Q 1375 2300 1273 2256 
Q 1172 2213 1089 2155 
Q 1006 2097 934 2034 
L 384 2034 
L 531 4403 
L 3034 4403 
L 3034 3925 
L 1044 3925 
L 959 2528 
Q 1109 2644 1334 2726 
Q 1559 2809 1869 2809 
Q 2197 2809 2459 2709 
Q 2722 2609 2906 2426 
Q 3091 2244 3191 1991 
Q 3291 1738 3291 1434 
z
" transform="scale(0.015625)"/>
       </defs>
       <use xlink:href="#LiberationSans-30"/>
       <use xlink:href="#LiberationSans-2e" x="55.615234"/>
       <use xlink:href="#LiberationSans-30" x="83.398438"/>
       <use xlink:href="#LiberationSans-32" x="139.013672"/>
       <use xlink:href="#LiberationSans-35" x="194.628906"/>
      </g>
     </g>
    </g>
    <g id="ytick_3">
     <g id="line2d_59">
      <path d="M 180 231.280634 
L 1296 231.280634 
" clip-path="url(#p06fb790147)" style="fill: none; stroke: #cccccc; stroke-linecap: round"/>
     </g>
     <g id="line2d_60"/>
     <g id="text_30">
      <!-- 0.050 -->
      <g style="fill: #262626" transform="translate(147.978125 234.904071) scale(0.1 -0.1)">
       <use xlink:href="#LiberationSans-30"/>
       <use xlink:href="#LiberationSans-2e" x="55.615234"/>
       <use xlink:href="#LiberationSans-30" x="83.398438"/>
       <use xlink:href="#LiberationSans-35" x="139.013672"/>
       <use xlink:href="#LiberationSans-30" x="194.628906"/>
      </g>
     </g>
    </g>
    <g id="ytick_4">
     <g id="line2d_61">
      <path d="M 180 195.430103 
L 1296 195.430103 
" clip-path="url(#p06fb790147)" style="fill: none; stroke: #cccccc; stroke-linecap: round"/>
     </g>
     <g id="line2d_62"/>
     <g id="text_31">
      <!-- 0.075 -->
      <g style="fill: #262626" transform="translate(147.978125 199.05354) scale(0.1 -0.1)">
       <defs>
        <path id="LiberationSans-37" d="M 3238 3947 
Q 2906 3441 2628 2973 
Q 2350 2506 2150 2032 
Q 1950 1559 1839 1061 
Q 1728 563 1728 0 
L 1141 0 
Q 1141 528 1266 1036 
Q 1391 1544 1603 2033 
Q 1816 2522 2097 2994 
Q 2378 3466 2694 3925 
L 328 3925 
L 328 4403 
L 3238 4403 
L 3238 3947 
z
" transform="scale(0.015625)"/>
       </defs>
       <use xlink:href="#LiberationSans-30"/>
       <use xlink:href="#LiberationSans-2e" x="55.615234"/>
       <use xlink:href="#LiberationSans-30" x="83.398438"/>
       <use xlink:href="#LiberationSans-37" x="139.013672"/>
       <use xlink:href="#LiberationSans-35" x="194.628906"/>
      </g>
     </g>
    </g>
    <g id="ytick_5">
     <g id="line2d_63">
      <path d="M 180 159.579572 
L 1296 159.579572 
" clip-path="url(#p06fb790147)" style="fill: none; stroke: #cccccc; stroke-linecap: round"/>
     </g>
     <g id="line2d_64"/>
     <g id="text_32">
      <!-- 0.100 -->
      <g style="fill: #262626" transform="translate(147.978125 163.203009) scale(0.1 -0.1)">
       <defs>
        <path id="LiberationSans-31" d="M 488 0 
L 488 478 
L 1609 478 
L 1609 3866 
L 616 3156 
L 616 3688 
L 1656 4403 
L 2175 4403 
L 2175 478 
L 3247 478 
L 3247 0 
L 488 0 
z
" transform="scale(0.015625)"/>
       </defs>
       <use xlink:href="#LiberationSans-30"/>
       <use xlink:href="#LiberationSans-2e" x="55.615234"/>
       <use xlink:href="#LiberationSans-31" x="83.398438"/>
       <use xlink:href="#LiberationSans-30" x="139.013672"/>
       <use xlink:href="#LiberationSans-30" x="194.628906"/>
      </g>
     </g>
    </g>
    <g id="ytick_6">
     <g id="line2d_65">
      <path d="M 180 123.729041 
L 1296 123.729041 
" clip-path="url(#p06fb790147)" style="fill: none; stroke: #cccccc; stroke-linecap: round"/>
     </g>
     <g id="line2d_66"/>
     <g id="text_33">
      <!-- 0.125 -->
      <g style="fill: #262626" transform="translate(147.978125 127.352478) scale(0.1 -0.1)">
       <use xlink:href="#LiberationSans-30"/>
       <use xlink:href="#LiberationSans-2e" x="55.615234"/>
       <use xlink:href="#LiberationSans-31" x="83.398438"/>
       <use xlink:href="#LiberationSans-32" x="139.013672"/>
       <use xlink:href="#LiberationSans-35" x="194.628906"/>
      </g>
     </g>
    </g>
    <g id="ytick_7">
     <g id="line2d_67">
      <path d="M 180 87.87851 
L 1296 87.87851 
" clip-path="url(#p06fb790147)" style="fill: none; stroke: #cccccc; stroke-linecap: round"/>
     </g>
     <g id="line2d_68"/>
     <g id="text_34">
      <!-- 0.150 -->
      <g style="fill: #262626" transform="translate(147.978125 91.501947) scale(0.1 -0.1)">
       <use xlink:href="#LiberationSans-30"/>
       <use xlink:href="#LiberationSans-2e" x="55.615234"/>
       <use xlink:href="#LiberationSans-31" x="83.398438"/>
       <use xlink:href="#LiberationSans-35" x="139.013672"/>
       <use xlink:href="#LiberationSans-30" x="194.628906"/>
      </g>
     </g>
    </g>
    <g id="ytick_8">
     <g id="line2d_69">
      <path d="M 180 52.027979 
L 1296 52.027979 
" clip-path="url(#p06fb790147)" style="fill: none; stroke: #cccccc; stroke-linecap: round"/>
     </g>
     <g id="line2d_70"/>
     <g id="text_35">
      <!-- 0.175 -->
      <g style="fill: #262626" transform="translate(147.978125 55.651416) scale(0.1 -0.1)">
       <use xlink:href="#LiberationSans-30"/>
       <use xlink:href="#LiberationSans-2e" x="55.615234"/>
       <use xlink:href="#LiberationSans-31" x="83.398438"/>
       <use xlink:href="#LiberationSans-37" x="139.013672"/>
       <use xlink:href="#LiberationSans-35" x="194.628906"/>
      </g>
     </g>
    </g>
   </g>
   <g id="patch_3">
    <path d="M 203.914286 302.981696 
L 235.8 302.981696 
L 235.8 100.525646 
L 203.914286 100.525646 
z
" clip-path="url(#p06fb790147)" style="fill: #ca0b03"/>
   </g>
   <g id="patch_4">
    <path d="M 243.771429 302.981696 
L 275.657143 302.981696 
L 275.657143 157.937929 
L 243.771429 157.937929 
z
" clip-path="url(#p06fb790147)" style="fill: #ca0b03"/>
   </g>
   <g id="patch_5">
    <path d="M 283.628571 302.981696 
L 315.514286 302.981696 
L 315.514286 203.148375 
L 283.628571 203.148375 
z
" clip-path="url(#p06fb790147)" style="fill: #ca0b03"/>
   </g>
   <g id="patch_6">
    <path d="M 323.485714 302.981696 
L 355.371429 302.981696 
L 355.371429 210.851109 
L 323.485714 210.851109 
z
" clip-path="url(#p06fb790147)" style="fill: #ca0b03"/>
   </g>
   <g id="patch_7">
    <path d="M 363.342857 302.981696 
L 395.228571 302.981696 
L 395.228571 221.883638 
L 363.342857 221.883638 
z
" clip-path="url(#p06fb790147)" style="fill: #ca0b03"/>
   </g>
   <g id="patch_8">
    <path d="M 403.2 302.981696 
L 435.085714 302.981696 
L 435.085714 222.453358 
L 403.2 222.453358 
z
" clip-path="url(#p06fb790147)" style="fill: #ca0b03"/>
   </g>
   <g id="patch_9">
    <path d="M 443.057143 302.981696 
L 474.942857 302.981696 
L 474.942857 223.003852 
L 443.057143 223.003852 
z
" clip-path="url(#p06fb790147)" style="fill: #ca0b03"/>
   </g>
   <g id="patch_10">
    <path d="M 482.914286 302.981696 
L 514.8 302.981696 
L 514.8 223.997765 
L 482.914286 223.997765 
z
" clip-path="url(#p06fb790147)" style="fill: #ca0b03"/>
   </g>
   <g id="patch_11">
    <path d="M 522.771429 302.981696 
L 554.657143 302.981696 
L 554.657143 227.658307 
L 522.771429 227.658307 
z
" clip-path="url(#p06fb790147)" style="fill: #ca0b03"/>
   </g>
   <g id="patch_12">
    <path d="M 562.628571 302.981696 
L 594.514286 302.981696 
L 594.514286 233.621467 
L 562.628571 233.621467 
z
" clip-path="url(#p06fb790147)" style="fill: #ca0b03"/>
   </g>
   <g id="patch_13">
    <path d="M 602.485714 302.981696 
L 634.371429 302.981696 
L 634.371429 233.655729 
L 602.485714 233.655729 
z
" clip-path="url(#p06fb790147)" style="fill: #ca0b03"/>
   </g>
   <g id="patch_14">
    <path d="M 642.342857 302.981696 
L 674.228571 302.981696 
L 674.228571 234.31484 
L 642.342857 234.31484 
z
" clip-path="url(#p06fb790147)" style="fill: #ca0b03"/>
   </g>
   <g id="patch_15">
    <path d="M 682.2 302.981696 
L 714.085714 302.981696 
L 714.085714 240.896827 
L 682.2 240.896827 
z
" clip-path="url(#p06fb790147)" style="fill: #ca0b03"/>
   </g>
   <g id="patch_16">
    <path d="M 722.057143 302.981696 
L 753.942857 302.981696 
L 753.942857 245.878285 
L 722.057143 245.878285 
z
" clip-path="url(#p06fb790147)" style="fill: #ca0b03"/>
   </g>
   <g id="patch_17">
    <path d="M 761.914286 302.981696 
L 793.8 302.981696 
L 793.8 250.623769 
L 761.914286 250.623769 
z
" clip-path="url(#p06fb790147)" style="fill: #ca0b03"/>
   </g>
   <g id="patch_18">
    <path d="M 801.771429 302.981696 
L 833.657143 302.981696 
L 833.657143 267.146301 
L 801.771429 267.146301 
z
" clip-path="url(#p06fb790147)" style="fill: #ca0b03"/>
   </g>
   <g id="patch_19">
    <path d="M 841.628571 302.981696 
L 873.514286 302.981696 
L 873.514286 282.633246 
L 841.628571 282.633246 
z
" clip-path="url(#p06fb790147)" style="fill: #ca0b03"/>
   </g>
   <g id="patch_20">
    <path d="M 881.485714 302.981696 
L 913.371429 302.981696 
L 913.371429 284.23541 
L 881.485714 284.23541 
z
" clip-path="url(#p06fb790147)" style="fill: #ca0b03"/>
   </g>
   <g id="patch_21">
    <path d="M 921.342857 302.981696 
L 953.228571 302.981696 
L 953.228571 289.034273 
L 921.342857 289.034273 
z
" clip-path="url(#p06fb790147)" style="fill: #ca0b03"/>
   </g>
   <g id="patch_22">
    <path d="M 961.2 302.981696 
L 993.085714 302.981696 
L 993.085714 289.112884 
L 961.2 289.112884 
z
" clip-path="url(#p06fb790147)" style="fill: #ca0b03"/>
   </g>
   <g id="patch_23">
    <path d="M 1001.057143 302.981696 
L 1032.942857 302.981696 
L 1032.942857 292.344987 
L 1001.057143 292.344987 
z
" clip-path="url(#p06fb790147)" style="fill: #ca0b03"/>
   </g>
   <g id="patch_24">
    <path d="M 1040.914286 302.981696 
L 1072.8 302.981696 
L 1072.8 298.088953 
L 1040.914286 298.088953 
z
" clip-path="url(#p06fb790147)" style="fill: #ca0b03"/>
   </g>
   <g id="patch_25">
    <path d="M 1080.771429 302.981696 
L 1112.657143 302.981696 
L 1112.657143 301.69422 
L 1080.771429 301.69422 
z
" clip-path="url(#p06fb790147)" style="fill: #ca0b03"/>
   </g>
   <g id="patch_26">
    <path d="M 1120.628571 302.981696 
L 1152.514286 302.981696 
L 1152.514286 302.855595 
L 1120.628571 302.855595 
z
" clip-path="url(#p06fb790147)" style="fill: #ca0b03"/>
   </g>
   <g id="patch_27">
    <path d="M 1160.485714 302.981696 
L 1192.371429 302.981696 
L 1192.371429 302.949698 
L 1160.485714 302.949698 
z
" clip-path="url(#p06fb790147)" style="fill: #ca0b03"/>
   </g>
   <g id="patch_28">
    <path d="M 1200.342857 302.981696 
L 1232.228571 302.981696 
L 1232.228571 302.960176 
L 1200.342857 302.960176 
z
" clip-path="url(#p06fb790147)" style="fill: #ca0b03"/>
   </g>
   <g id="patch_29">
    <path d="M 1240.2 302.981696 
L 1272.085714 302.981696 
L 1272.085714 302.977907 
L 1240.2 302.977907 
z
" clip-path="url(#p06fb790147)" style="fill: #ca0b03"/>
   </g>
   <g id="LineCollection_1">
    <path d="M 219.857143 145.251291 
L 219.857143 55.8 
" clip-path="url(#p06fb790147)" style="fill: none; stroke: #111111; stroke-width: 1.75"/>
    <path d="M 259.714286 191.203467 
L 259.714286 124.672391 
" clip-path="url(#p06fb790147)" style="fill: none; stroke: #111111; stroke-width: 1.75"/>
    <path d="M 299.571429 236.009344 
L 299.571429 170.287406 
" clip-path="url(#p06fb790147)" style="fill: none; stroke: #111111; stroke-width: 1.75"/>
    <path d="M 339.428571 227.610554 
L 339.428571 194.091663 
" clip-path="url(#p06fb790147)" style="fill: none; stroke: #111111; stroke-width: 1.75"/>
    <path d="M 379.285714 240.371051 
L 379.285714 203.396225 
" clip-path="url(#p06fb790147)" style="fill: none; stroke: #111111; stroke-width: 1.75"/>
    <path d="M 419.142857 236.283325 
L 419.142857 208.62339 
" clip-path="url(#p06fb790147)" style="fill: none; stroke: #111111; stroke-width: 1.75"/>
    <path d="M 459 236.273693 
L 459 209.734011 
" clip-path="url(#p06fb790147)" style="fill: none; stroke: #111111; stroke-width: 1.75"/>
    <path d="M 498.857143 237.544274 
L 498.857143 210.451256 
" clip-path="url(#p06fb790147)" style="fill: none; stroke: #111111; stroke-width: 1.75"/>
    <path d="M 538.714286 246.417892 
L 538.714286 208.898722 
" clip-path="url(#p06fb790147)" style="fill: none; stroke: #111111; stroke-width: 1.75"/>
    <path d="M 578.571429 246.893938 
L 578.571429 220.348996 
" clip-path="url(#p06fb790147)" style="fill: none; stroke: #111111; stroke-width: 1.75"/>
    <path d="M 618.428571 245.465333 
L 618.428571 221.846125 
" clip-path="url(#p06fb790147)" style="fill: none; stroke: #111111; stroke-width: 1.75"/>
    <path d="M 658.285714 261.214636 
L 658.285714 207.415045 
" clip-path="url(#p06fb790147)" style="fill: none; stroke: #111111; stroke-width: 1.75"/>
    <path d="M 698.142857 254.316273 
L 698.142857 227.477381 
" clip-path="url(#p06fb790147)" style="fill: none; stroke: #111111; stroke-width: 1.75"/>
    <path d="M 738 259.729303 
L 738 232.027268 
" clip-path="url(#p06fb790147)" style="fill: none; stroke: #111111; stroke-width: 1.75"/>
    <path d="M 777.857143 272.387626 
L 777.857143 228.859911 
" clip-path="url(#p06fb790147)" style="fill: none; stroke: #111111; stroke-width: 1.75"/>
    <path d="M 817.714286 275.688145 
L 817.714286 258.604456 
" clip-path="url(#p06fb790147)" style="fill: none; stroke: #111111; stroke-width: 1.75"/>
    <path d="M 857.571429 293.505004 
L 857.571429 271.761488 
" clip-path="url(#p06fb790147)" style="fill: none; stroke: #111111; stroke-width: 1.75"/>
    <path d="M 897.428571 290.717085 
L 897.428571 277.753735 
" clip-path="url(#p06fb790147)" style="fill: none; stroke: #111111; stroke-width: 1.75"/>
    <path d="M 937.285714 293.841757 
L 937.285714 284.226789 
" clip-path="url(#p06fb790147)" style="fill: none; stroke: #111111; stroke-width: 1.75"/>
    <path d="M 977.142857 307.8 
L 977.142857 270.425769 
" clip-path="url(#p06fb790147)" style="fill: none; stroke: #111111; stroke-width: 1.75"/>
    <path d="M 1017 296.880062 
L 1017 287.809912 
" clip-path="url(#p06fb790147)" style="fill: none; stroke: #111111; stroke-width: 1.75"/>
    <path d="M 1056.857143 300.442088 
L 1056.857143 295.735819 
" clip-path="url(#p06fb790147)" style="fill: none; stroke: #111111; stroke-width: 1.75"/>
    <path d="M 1096.714286 302.778985 
L 1096.714286 300.609455 
" clip-path="url(#p06fb790147)" style="fill: none; stroke: #111111; stroke-width: 1.75"/>
    <path d="M 1136.571429 303.131566 
L 1136.571429 302.579624 
" clip-path="url(#p06fb790147)" style="fill: none; stroke: #111111; stroke-width: 1.75"/>
    <path d="M 1176.428571 303.061506 
L 1176.428571 302.83789 
" clip-path="url(#p06fb790147)" style="fill: none; stroke: #111111; stroke-width: 1.75"/>
    <path d="M 1216.285714 303.026623 
L 1216.285714 302.893728 
" clip-path="url(#p06fb790147)" style="fill: none; stroke: #111111; stroke-width: 1.75"/>
    <path d="M 1256.142857 303.015239 
L 1256.142857 302.940574 
" clip-path="url(#p06fb790147)" style="fill: none; stroke: #111111; stroke-width: 1.75"/>
   </g>
   <g id="patch_30">
    <path d="M 180 320.4 
L 180 43.2 
" style="fill: none; stroke: #cccccc; stroke-width: 1.25; stroke-linejoin: miter; stroke-linecap: square"/>
   </g>
   <g id="patch_31">
    <path d="M 1296 320.4 
L 1296 43.2 
" style="fill: none; stroke: #cccccc; stroke-width: 1.25; stroke-linejoin: miter; stroke-linecap: square"/>
   </g>
   <g id="patch_32">
    <path d="M 180 320.4 
L 1296 320.4 
" style="fill: none; stroke: #cccccc; stroke-width: 1.25; stroke-linejoin: miter; stroke-linecap: square"/>
   </g>
   <g id="patch_33">
    <path d="M 180 43.2 
L 1296 43.2 
" style="fill: none; stroke: #cccccc; stroke-width: 1.25; stroke-linejoin: miter; stroke-linecap: square"/>
   </g>
   <g id="text_36">
    <!-- Feature importances -->
    <g style="fill: #262626" transform="translate(682.979063 37.2) scale(0.12 -0.12)">
     <defs>
      <path id="LiberationSans-20" transform="scale(0.015625)"/>
     </defs>
     <use xlink:href="#LiberationSans-46"/>
     <use xlink:href="#LiberationSans-65" x="61.083984"/>
     <use xlink:href="#LiberationSans-61" x="116.699219"/>
     <use xlink:href="#LiberationSans-74" x="172.314453"/>
     <use xlink:href="#LiberationSans-75" x="200.097656"/>
     <use xlink:href="#LiberationSans-72" x="255.712891"/>
     <use xlink:href="#LiberationSans-65" x="289.013672"/>
     <use xlink:href="#LiberationSans-20" x="344.628906"/>
     <use xlink:href="#LiberationSans-69" x="372.412109"/>
     <use xlink:href="#LiberationSans-6d" x="394.628906"/>
     <use xlink:href="#LiberationSans-70" x="477.929688"/>
     <use xlink:href="#LiberationSans-6f" x="533.544922"/>
     <use xlink:href="#LiberationSans-72" x="589.160156"/>
     <use xlink:href="#LiberationSans-74" x="622.460938"/>
     <use xlink:href="#LiberationSans-61" x="650.244141"/>
     <use xlink:href="#LiberationSans-6e" x="705.859375"/>
     <use xlink:href="#LiberationSans-63" x="761.474609"/>
     <use xlink:href="#LiberationSans-65" x="811.474609"/>
     <use xlink:href="#LiberationSans-73" x="867.089844"/>
    </g>
   </g>
  </g>
 </g>
 <defs>
  <clipPath id="p06fb790147">
   <rect x="180" y="43.2" width="1116" height="277.2"/>
  </clipPath>
 </defs>
</svg>
