<svg class="main-svg" xmlns="http://www.w3.org/2000/svg" xmlns:xlink="http://www.w3.org/1999/xlink" width="650" height="500" style="" viewBox="0 0 650 500"><rect x="0" y="0" width="650" height="500" style="fill: rgb(255, 255, 255); fill-opacity: 1;"/><defs id="defs-4c1abd"><g class="clips"><clipPath id="clip4c1abdxyplot" class="plotclip"><rect width="290.00000000000006" height="320"/></clipPath><clipPath class="axesclip" id="clip4c1abdx"><rect x="146.99999999999997" y="0" width="290.00000000000006" height="500"/></clipPath><clipPath class="axesclip" id="clip4c1abdy"><rect x="0" y="100" width="650" height="320"/></clipPath><clipPath class="axesclip" id="clip4c1abdxy"><rect x="146.99999999999997" y="100" width="290.00000000000006" height="320"/></clipPath></g><g class="gradients"/><g class="patterns"/></defs><g class="bglayer"><rect class="bg" x="146.99999999999997" y="100" width="290.00000000000006" height="320" style="fill: rgb(229, 236, 246); fill-opacity: 1; stroke-width: 0;"/></g><g class="layer-below"><g class="imagelayer"/><g class="shapelayer"/></g><g class="cartesianlayer"><g class="subplot xy"><g class="layer-subplot"><g class="shapelayer"/><g class="imagelayer"/></g><g class="minor-gridlayer"><g class="x"/><g class="y"/></g><g class="gridlayer"><g class="x"><path class="xgrid crisp" transform="translate(292,0)" d="M0,100v320" style="stroke: rgb(255, 255, 255); stroke-opacity: 1; stroke-width: 1px;"/><path class="xgrid crisp" transform="translate(436,0)" d="M0,100v320" style="stroke: rgb(255, 255, 255); stroke-opacity: 1; stroke-width: 1px;"/></g><g class="y"><path class="ygrid crisp" transform="translate(0,346.4)" d="M146.99999999999997,0h290.00000000000006" style="stroke: rgb(255, 255, 255); stroke-opacity: 1; stroke-width: 1px;"/><path class="ygrid crisp" transform="translate(0,288.8)" d="M146.99999999999997,0h290.00000000000006" style="stroke: rgb(255, 255, 255); stroke-opacity: 1; stroke-width: 1px;"/><path class="ygrid crisp" transform="translate(0,231.2)" d="M146.99999999999997,0h290.00000000000006" style="stroke: rgb(255, 255, 255); stroke-opacity: 1; stroke-width: 1px;"/><path class="ygrid crisp" transform="translate(0,173.6)" d="M146.99999999999997,0h290.00000000000006" style="stroke: rgb(255, 255, 255); stroke-opacity: 1; stroke-width: 1px;"/><path class="ygrid crisp" transform="translate(0,116)" d="M146.99999999999997,0h290.00000000000006" style="stroke: rgb(255, 255, 255); stroke-opacity: 1; stroke-width: 1px;"/></g></g><g class="zerolinelayer"><path class="xzl zl crisp" transform="translate(147.99999999999997,0)" d="M0,100v320" style="stroke: rgb(255, 255, 255); stroke-opacity: 1; stroke-width: 2px;"/><path class="yzl zl crisp" transform="translate(0,404)" d="M146.99999999999997,0h290.00000000000006" style="stroke: rgb(255, 255, 255); stroke-opacity: 1; stroke-width: 2px;"/></g><path class="xlines-below"/><path class="ylines-below"/><g class="overlines-below"/><g class="xaxislayer-below"/><g class="yaxislayer-below"/><g class="overaxes-below"/><g class="plot" transform="translate(146.99999999999997,100)" clip-path="url(#clip4c1abdxyplot)"><g class="scatterlayer mlayer"><g class="trace scatter trace5ee52d" style="stroke-miterlimit: 2; opacity: 1;"><g class="fills"/><g class="errorbars"/><g class="lines"><path class="js-line" d="M1,304L10.33,225.3L10.68,225.3L11.39,218.38L11.56,218.38L12.27,211.46L12.44,211.46L15.08,199.35L15.44,199.35L15.61,196.76L16.32,196.76L16.32,195.03L17.55,195.03L18.25,191.57L18.43,191.57L19.13,189.84L19.66,189.84L20.36,180.32L20.89,180.32L21.6,177.73L21.77,177.73L22.48,176L23,176L23.71,172.54L24.06,172.54L24.06,171.68L25.12,171.68L25.65,167.35L26,167.35L26.7,164.76L26.88,164.76L27.58,162.16L28.11,162.16L28.11,160.43L28.99,160.43L29.34,156.97L30.93,156.97L31.45,155.24L31.81,155.24L32.16,152.65L32.86,152.65L33.57,145.73L33.92,145.73L34.62,144L34.8,144L35.15,142.27L35.68,142.27L36.38,138.81L37.09,138.81L37.09,137.95L37.97,137.95L37.97,137.08L39.02,137.08L39.38,133.62L40.08,133.62L40.78,130.16L41.14,130.16L41.84,125.84L42.55,125.84L43.25,122.38L45.54,122.38L45.89,120.65L46.42,120.65L46.95,118.92L47.3,118.92L47.83,113.73L48.18,113.73L48.35,112L49.41,112L49.94,110.27L50.47,110.27L50.47,108.54L51.35,108.54L51.7,104.22L52.23,104.22L52.93,100.76L53.11,100.76L53.46,96.43L55.4,96.43L55.92,91.24L56.8,91.24L56.8,89.51L57.86,89.51L58.21,86.05L59.44,86.05L59.44,85.19L60.33,85.19L61.03,82.59L63.14,82.59L63.49,80L64.9,80L64.9,79.14L67.01,79.14L67.72,77.41L68.07,77.41L68.42,75.68L68.95,75.68L69.13,73.95L70.01,73.95L70.18,72.22L70.89,72.22L71.59,69.62L71.94,69.62L72.65,67.03L72.82,67.03L72.82,66.16L74.76,66.16L75.11,62.7L75.64,62.7L75.82,57.51L76.7,57.51L77.4,54.05L77.93,54.05L77.93,52.32L78.99,52.32L79.34,49.73L79.87,49.73L80.92,49.73L80.92,48.86L81.45,48.86L81.45,48L82.15,48L82.15,47.14L82.33,47.14L82.33,46.27L82.68,46.27L82.68,45.41L84.09,45.41L84.09,44.54L84.44,44.54L84.44,43.68L85.32,43.68L85.32,41.95L85.85,38.49L86.2,38.49L86.2,37.62L87.08,37.62L87.08,36.76L88.32,36.76L88.84,35.03L89.9,35.03L90.43,33.3L91.84,33.3L92.19,31.57L94.83,31.57L94.83,30.7L98,30.7L98,29.84L99.23,29.84L99.23,28.97L104.69,28.97L104.69,28.11L105.74,28.11L105.74,27.24L107.33,27.24L108.74,27.24L108.74,26.38L112.78,26.38L112.78,25.51L115.95,25.51L115.95,23.78L116.31,23.78L116.31,22.92L122.47,22.92L122.47,22.05L127.4,22.05L127.4,21.19L139.01,21.19L139.01,20.32L139.37,20.32L139.37,19.46L153.98,19.46L153.98,18.59L155.74,18.59L155.74,17.73L169.82,17.73L169.82,16.86L216.12,16.86L216.12,16L289,16" style="vector-effect: none; fill: none; stroke: rgb(99, 110, 250); stroke-opacity: 1; stroke-width: 2px; opacity: 1;"/></g><g class="points"/><g class="text"/></g><g class="trace scatter trace341b63" style="stroke-miterlimit: 2; opacity: 1;"><g class="fills"/><g class="errorbars"/><g class="lines"><path class="js-line" d="M1,304L1.53,302.34L1.89,302.34L2.42,299.84L3.31,299.84L3.84,297.34L4.19,297.34L4.9,295.68L5.61,295.68L6.32,292.35L7.21,292.35L7.57,289.85L8.45,289.85L9.16,288.18L9.52,288.18L9.87,283.19L10.4,283.19L10.94,280.69L11.65,280.69L12.36,276.53L12.53,276.53L13.24,274.03L15.2,274.03L15.91,269.04L17.15,269.04L17.68,267.38L18.04,267.38L18.74,263.21L19.81,263.21L19.81,262.38L20.7,262.38L21.41,257.39L21.76,257.39L21.94,254.89L24.25,254.89L24.78,250.73L25.67,250.73L26.02,248.23L26.73,248.23L27.44,246.57L27.62,246.57L28.68,246.57L28.68,244.9L29.75,244.9L29.75,243.24L29.92,243.24L29.92,242.4L30.1,242.4L30.1,241.57L31.7,241.57L31.7,240.74L32.41,240.74L32.41,239.08L32.59,239.08L32.59,237.41L32.76,237.41L32.76,236.58L33.47,236.58L33.47,235.75L34.18,235.75L34.18,234.91L34.36,234.91L34.36,234.08L34.54,234.08L34.54,233.25L34.89,233.25L34.89,232.42L35.78,232.42L35.78,230.75L36.13,230.75L36.13,228.25L37.02,228.25L37.02,227.42L38.44,227.42L38.44,226.59L40.22,226.59L40.22,224.92L40.93,224.92L40.93,224.09L41.28,224.09L41.28,222.43L41.64,222.43L41.64,221.6L41.99,221.6L41.99,220.76L42.17,220.76L42.17,219.93L43.41,219.93L43.41,216.6L43.77,216.6L43.77,214.1L43.94,214.1L43.94,212.44L45.54,212.44L45.54,211.61L46.07,211.61L46.07,210.77L46.6,210.77L46.6,209.11L47.14,209.11L47.14,208.28L47.31,208.28L47.31,207.45L48.02,207.45L48.02,206.61L49.98,206.61L49.98,205.78L50.15,205.78L50.15,204.95L51.04,204.95L51.04,204.12L51.4,204.12L51.4,202.45L51.75,202.45L51.75,201.62L52.64,201.62L52.64,200.79L52.82,200.79L52.82,199.95L52.99,199.95L52.99,199.12L54.06,199.12L54.06,198.29L54.41,198.29L54.41,197.46L54.59,197.46L54.59,196.62L55.3,196.62L55.3,194.13L55.65,194.13L55.65,193.29L56.36,193.29L56.36,192.46L58.14,192.46L58.14,191.63L58.49,191.63L58.49,190.8L59.2,190.8L59.2,189.97L62.57,189.97L62.57,189.13L62.75,189.13L62.75,188.3L63.46,188.3L63.46,186.64L64.35,186.64L64.35,184.97L65.41,184.97L65.41,184.14L65.59,184.14L65.59,183.31L66.3,183.31L66.3,181.64L67.19,181.64L67.19,180.81L67.9,180.81L67.9,179.98L68.79,179.98L68.79,178.31L69.85,178.31L69.85,175.82L70.38,175.82L70.38,174.98L71.09,174.98L71.09,174.15L71.45,174.15L71.45,173.32L72.33,173.32L72.33,172.49L72.87,172.49L72.87,171.65L73.93,171.65L73.93,170.82L74.11,170.82L74.11,169.99L75,169.99L75,169.16L76.77,169.16L76.77,167.49L76.95,167.49L76.95,165.83L78.19,165.83L78.19,164.16L79.08,164.16L79.08,163.33L80.5,163.33L80.5,161.66L80.67,161.66L80.67,160.83L81.21,160.83L81.21,159.17L81.92,159.17L81.92,158.34L83.16,158.34L83.16,157.5L83.69,157.5L83.69,156.67L84.05,156.67L84.05,155.84L84.4,155.84L84.4,155.01L84.93,155.01L84.93,154.17L85.47,154.17L85.47,153.34L86.35,153.34L86.35,151.68L87.06,151.68L87.06,150.84L87.42,150.84L87.42,150.01L88.13,150.01L88.13,149.18L88.3,149.18L88.3,148.35L88.48,148.35L88.48,146.68L88.84,146.68L88.84,145.85L89.72,145.85L89.72,145.02L90.43,145.02L90.43,144.18L91.5,144.18L91.5,143.35L92.39,143.35L92.39,142.52L92.56,142.52L92.56,141.69L92.74,141.69L92.74,140.86L93.1,140.86L93.1,140.02L96.11,140.02L96.11,139.19L97,139.19L97,138.36L102.86,138.36L102.86,137.53L105.52,137.53L105.52,136.69L105.7,136.69L105.7,135.86L106.76,135.86L106.76,135.03L107.11,135.03L107.11,134.2L107.65,134.2L107.65,133.36L109.07,133.36L109.07,132.53L109.78,132.53L109.78,131.7L111.2,131.7L111.2,130.03L112.08,130.03L112.08,129.2L112.26,129.2L112.26,128.37L115.28,128.37L115.28,127.54L115.63,127.54L115.63,125.87L117.41,125.87L117.41,125.04L119.71,125.04L119.71,124.21L120.42,124.21L120.42,122.54L120.6,122.54L120.6,120.88L121.84,120.88L121.84,120.05L122.2,120.05L122.2,119.21L123.97,119.21L123.97,118.38L124.68,118.38L124.68,116.72L124.86,116.72L124.86,115.88L127.88,115.88L127.88,115.05L130.18,115.05L130.18,114.22L131.07,114.22L131.07,113.39L131.43,113.39L131.43,112.55L131.78,112.55L131.78,111.72L132.13,111.72L132.13,110.89L132.31,110.89L132.31,110.06L133.02,110.06L133.02,108.39L133.91,108.39L133.91,107.56L134.44,107.56L134.44,106.73L135.33,106.73L135.33,105.06L136.39,105.06L136.39,104.23L136.57,104.23L136.57,103.4L137.28,99.24L137.81,99.24L138.35,97.57L140.48,97.57L140.48,96.74L141.72,96.74L142.6,96.74L142.6,95.91L142.78,95.91L142.78,95.08L143.14,95.08L143.14,94.24L143.31,94.24L143.31,93.41L146.51,93.41L146.51,91.75L148.28,91.75L148.28,90.91L150.23,90.91L150.23,90.08L151.83,90.08L151.83,89.25L152.72,89.25L152.72,87.58L153.61,87.58L153.61,85.92L154.14,85.92L154.14,84.25L155.38,84.25L155.38,82.59L155.56,82.59L155.56,81.76L156.09,81.76L156.09,80.09L156.27,80.09L156.27,78.43L157.87,78.43L157.87,77.6L158.4,77.6L158.4,76.76L159.11,76.76L159.11,74.27L160.35,74.27L160.35,73.43L160.88,73.43L160.88,72.6L161.06,72.6L161.06,71.77L163.54,71.77L163.54,70.94L163.9,70.94L163.9,70.1L166.38,70.1L166.38,69.27L167.98,69.27L167.98,68.44L168.16,68.44L168.16,67.61L169.22,67.61L169.22,66.77L169.4,66.77L169.4,65.11L169.75,65.11L169.75,64.28L171,64.28L171,63.45L171.88,63.45L171.88,61.78L173.48,61.78L173.48,60.95L174.55,60.95L174.55,59.28L176.14,59.28L176.14,58.45L176.67,58.45L176.67,57.62L176.85,57.62L176.85,56.79L177.03,56.79L177.03,55.95L177.21,55.95L177.21,55.12L177.38,55.12L177.38,52.62L177.74,52.62L177.74,51.79L179.34,51.79L179.34,50.96L179.69,50.96L179.69,49.29L180.05,49.29L180.05,47.63L180.58,47.63L180.58,46.8L182.35,46.8L182.35,45.97L182.53,45.97L182.53,45.13L183.24,45.13L183.24,44.3L186.97,44.3L186.97,42.64L187.5,42.64L187.5,41.8L188.21,41.8L188.21,40.97L188.56,40.97L188.56,40.14L191.58,40.14L191.58,39.31L194.6,39.31L194.6,38.47L200.45,38.47L200.45,37.64L201.16,37.64L201.16,36.81L202.4,36.81L202.4,35.14L203.11,33.48L205.42,33.48L205.42,32.65L206.84,32.65L206.84,31.82L208.08,31.82L208.08,30.98L209.15,30.98L209.15,30.15L211.99,30.15L211.99,29.32L221.04,29.32L221.04,28.49L222.63,28.49L222.63,27.65L225.65,27.65L226.36,24.32L235.59,24.32L240.02,24.32L240.02,22.66L247.48,22.66L247.48,21.83L248.72,21.83L248.72,20.99L251.56,20.99L251.56,19.33L257.95,19.33L257.95,18.5L265.04,18.5L265.04,17.66L270.01,17.66L270.01,16.83L271.79,16.83L271.79,16L289,16" style="vector-effect: none; fill: none; stroke: rgb(239, 85, 59); stroke-opacity: 1; stroke-width: 2px; opacity: 1;"/></g><g class="points"/><g class="text"/></g><g class="trace scatter trace2a66a2" style="stroke-miterlimit: 2; opacity: 1;"><g class="fills"/><g class="errorbars"/><g class="lines"><path class="js-line" d="M1,304L1.71,299.86L1.89,299.86L2.24,298.21L3.13,298.21L3.67,294.9L4.02,294.9L4.38,292.41L5.09,292.41L5.8,288.28L6.51,288.28L6.51,287.45L8.82,287.45L9,284.14L9.71,284.14L10.42,280L11.13,280L11.66,277.52L13.44,277.52L14.15,273.38L14.5,273.38L14.5,270.9L15.21,270.9L15.39,270.9L16.1,266.76L16.63,266.76L16.63,264.28L18.59,264.28L18.94,264.28L18.94,260.97L20.54,260.97L20.54,260.14L20.9,260.14L20.9,258.48L21.08,258.48L21.08,257.66L21.61,257.66L21.61,256L22.85,256L22.85,254.34L23.03,254.34L23.03,253.52L23.39,253.52L23.39,252.69L24.1,252.69L24.1,251.86L24.27,251.86L24.27,250.21L24.81,250.21L24.81,249.38L25.16,249.38L25.16,247.72L25.52,247.72L25.52,246.9L25.7,246.9L25.7,245.24L26.94,245.24L26.94,244.41L27.29,244.41L27.29,243.59L27.65,243.59L27.65,242.76L28.01,242.76L28.01,241.93L28.18,241.93L28.18,241.1L29.43,241.1L29.43,240.28L29.78,240.28L29.78,239.45L29.96,239.45L29.96,238.62L30.14,238.62L30.14,237.79L31.03,237.79L31.03,236.97L31.2,236.97L31.2,234.48L32.62,234.48L32.62,232.83L32.8,232.83L32.8,232L33.16,232L33.16,230.34L33.87,230.34L33.87,228.69L35.11,228.69L35.11,227.86L36.18,227.86L36.18,227.03L36.53,227.03L36.53,226.21L36.89,226.21L36.89,225.38L38.31,225.38L38.31,223.72L39.2,223.72L39.2,222.9L40.8,222.9L40.8,221.24L41.15,221.24L41.15,220.41L41.51,220.41L41.51,219.59L42.75,219.59L42.75,218.76L43.11,218.76L43.11,217.93L43.29,217.93L43.29,217.1L43.46,217.1L43.46,216.28L44,216.28L44,212.97L44.17,212.97L44.17,212.14L44.53,212.14L44.53,211.31L44.71,211.31L44.71,210.48L44.88,210.48L44.88,209.66L45.06,209.66L45.06,208L45.24,208L45.24,207.17L45.42,207.17L45.42,206.34L47.55,206.34L47.55,205.52L47.73,205.52L47.73,204.69L48.62,204.69L48.62,203.86L48.97,203.86L48.97,203.03L51.46,203.03L51.46,202.21L51.64,202.21L51.64,200.55L53.95,200.55L53.95,199.72L55.54,199.72L55.54,198.9L56.08,198.9L56.08,198.07L56.43,198.07L56.43,197.24L56.97,197.24L56.97,196.41L58.39,196.41L58.39,194.76L58.74,194.76L58.74,193.93L59.99,193.93L59.99,193.1L60.16,193.1L60.16,192.28L60.52,192.28L60.52,191.45L61.41,191.45L61.41,190.62L62.12,190.62L62.12,189.79L62.3,189.79L62.3,188.97L64.07,188.97L64.07,188.14L64.78,188.14L64.78,186.48L64.96,186.48L64.96,185.66L65.14,185.66L65.14,184.83L66.38,184.83L66.38,184L66.74,184L66.74,183.17L67.45,183.17L67.45,181.52L67.63,181.52L67.63,180.69L68.16,180.69L68.16,179.86L69.05,179.86L69.05,179.03L69.22,179.03L69.22,178.21L70.47,178.21L70.47,177.38L71.18,177.38L71.18,176.55L71.53,176.55L71.53,174.07L71.89,174.07L71.89,171.59L72.78,171.59L72.78,170.76L73.49,170.76L73.49,169.1L74.02,169.1L74.02,168.28L75.98,168.28L75.98,167.45L76.15,167.45L76.15,164.14L77.22,164.14L77.22,163.31L77.57,163.31L77.57,162.48L78.29,162.48L78.29,160L78.46,160L78.46,159.17L78.82,159.17L78.82,158.34L79.71,158.34L79.71,157.52L80.24,157.52L80.24,156.69L80.77,156.69L80.77,155.86L82.02,155.86L82.02,155.03L82.55,155.03L82.55,154.21L83.26,154.21L83.26,153.38L83.44,153.38L83.44,151.72L83.79,151.72L83.79,150.07L84.33,150.07L84.33,149.24L84.5,149.24L84.5,148.41L84.68,148.41L84.68,147.59L85.21,147.59L85.21,146.76L85.75,146.76L85.75,145.93L85.93,145.93L85.93,145.1L86.46,145.1L86.46,143.45L86.99,143.45L86.99,142.62L88.41,142.62L88.41,140.97L88.95,140.97L88.95,140.14L89.83,140.14L89.83,139.31L90.19,139.31L90.19,138.48L90.9,138.48L90.9,137.66L91.26,137.66L91.26,136.83L93.21,136.83L93.21,135.17L93.92,135.17L93.92,132.69L94.63,132.69L94.63,131.86L95.52,131.86L95.52,131.03L97.83,131.03L97.83,129.38L98.01,129.38L98.01,128.55L99.07,128.55L99.07,127.72L99.25,127.72L99.25,126.9L101.03,126.9L101.03,126.07L101.2,126.07L101.2,124.41L101.92,124.41L101.92,123.59L102.63,123.59L102.63,121.93L103.34,121.93L103.34,121.1L103.69,121.1L103.69,120.28L103.87,120.28L103.87,119.45L104.4,119.45L104.4,118.62L105.11,118.62L105.11,117.79L105.82,117.79L105.82,116.97L106.18,116.97L106.18,116.14L107.07,116.14L107.07,115.31L108.13,115.31L108.13,113.66L109.2,113.66L109.2,112.83L109.91,112.83L109.91,112L110.09,112L110.09,111.17L111.33,111.17L111.33,110.34L111.69,110.34L111.69,109.52L111.86,109.52L111.86,107.03L112.93,107.03L112.93,104.55L114,104.55L114,103.72L117.02,103.72L117.02,102.9L117.73,102.9L117.73,101.24L117.91,101.24L117.91,100.41L119.15,100.41L119.15,98.76L120.04,98.76L120.04,97.93L123.41,97.93L123.41,97.1L125.72,97.1L125.72,96.28L129.45,96.28L129.45,94.62L129.81,94.62L129.81,93.79L131.05,93.79L131.05,92.97L131.76,92.97L131.76,92.14L132.65,92.14L132.65,91.31L133.54,91.31L133.54,90.48L135.14,90.48L135.14,88.83L136.21,88.83L136.21,88L136.92,88L136.92,85.52L138.34,85.52L138.34,84.69L138.52,84.69L138.52,83.86L138.87,83.86L138.87,83.03L139.05,83.03L139.05,82.21L139.23,82.21L139.23,81.38L141.36,81.38L141.36,80.55L141.54,80.55L141.54,79.72L141.71,79.72L141.71,78.9L141.89,78.9L141.89,78.07L142.78,78.07L142.78,77.24L145.44,77.24L145.44,76.41L145.98,76.41L145.98,75.59L149.89,75.59L149.89,74.76L150.06,74.76L150.06,73.93L151.48,73.93L151.48,72.28L151.84,72.28L151.84,71.45L155.22,71.45L155.22,69.79L157.53,69.79L157.53,68.97L159.48,68.97L159.48,68.14L160.19,68.14L160.19,67.31L160.72,67.31L160.72,66.48L162.32,66.48L162.32,65.66L162.5,65.66L162.5,64.83L162.68,64.83L162.68,62.34L163.21,62.34L163.21,61.52L164.63,61.52L164.63,60.69L165.88,60.69L165.88,59.86L166.23,59.86L166.23,59.03L167.48,59.03L167.48,58.21L169.43,58.21L169.43,57.38L170.5,57.38L170.5,56.55L171.03,56.55L171.03,55.72L171.56,55.72L171.56,54.9L172.63,54.9L172.63,54.07L172.98,54.07L172.98,53.24L174.23,53.24L174.23,52.41L174.76,52.41L174.76,51.59L177.78,51.59L177.78,50.76L181.33,50.76L181.33,49.93L183.29,49.93L183.29,49.1L183.64,49.1L183.64,48.28L183.82,48.28L183.82,47.45L188.8,47.45L188.8,46.62L190.75,46.62L190.75,45.79L192.88,45.79L192.88,44.97L193.77,44.97L193.77,44.14L195.37,44.14L195.37,43.31L197.5,43.31L197.5,42.48L201.41,42.48L201.41,41.66L202.83,41.66L202.83,40.83L204.96,40.83L204.96,40L206.56,40L206.56,39.17L208.16,39.17L208.16,38.34L214.38,38.34L214.38,37.52L227.17,37.52L227.17,36.69L252.22,36.69L252.22,35.86L252.76,35.86L252.76,35.03L253.11,35.03L253.11,34.21L255.07,34.21L255.07,32.55L264.13,32.55L264.13,31.72L265.01,31.72L265.01,30.9L266.79,30.9L266.79,30.07L267.32,30.07L267.32,28.41L269.46,28.41L269.46,27.59L271.41,27.59L271.41,25.93L272.83,25.93L272.83,25.1L274.61,25.1L274.61,24.28L274.96,24.28L274.96,22.62L275.32,22.62L275.32,21.79L275.67,21.79L275.67,20.97L276.21,20.97L276.21,20.14L276.39,20.14L276.39,19.31L276.74,19.31L276.74,18.48L277.63,18.48L277.63,17.66L279.41,17.66L279.41,16.83L280.65,16.83L280.65,16L289,16" style="vector-effect: none; fill: none; stroke: rgb(0, 204, 150); stroke-opacity: 1; stroke-width: 2px; opacity: 1;"/></g><g class="points"/><g class="text"/></g><g class="trace scatter trace21b2a8" style="stroke-miterlimit: 2; opacity: 1;"><g class="fills"/><g class="errorbars"/><g class="lines"><path class="js-line" d="M1,304L1.69,296.57L2.39,296.57L2.74,290.99L3.26,290.99L3.95,282.63L4.99,282.63L5.69,278.92L5.86,278.92L6.56,274.27L6.73,274.27L7.42,268.7L7.6,268.7L8.29,261.26L8.64,261.26L8.64,259.41L9.51,259.41L10.2,253.83L10.37,253.83L10.72,249.19L11.24,249.19L11.24,246.4L12.11,246.4L12.46,244.54L15.41,244.54L15.41,243.61L16.97,243.61L16.97,242.68L24.09,242.68L24.61,240.83L24.96,240.83L25.65,238.04L28.6,238.04L28.6,237.11L29.3,237.11L29.82,237.11L30.86,237.11L30.86,236.18L32.07,236.18L32.07,235.25L32.59,235.25L32.59,234.32L34.33,234.32L34.33,233.39L36.76,233.39L36.76,231.54L37.63,231.54L37.63,230.61L38.84,230.61L38.84,229.68L40.41,229.68L40.41,228.75L40.75,228.75L40.75,227.82L40.93,227.82L40.93,226.89L41.1,226.89L41.1,225.96L41.8,225.96L41.8,225.03L42.49,225.03L42.49,223.17L43.53,223.17L43.53,222.25L44.92,222.25L44.92,220.39L45.09,220.39L45.09,219.46L45.61,219.46L45.61,216.67L46.83,216.67L46.83,215.74L49.43,215.74L49.43,214.81L49.78,214.81L49.78,213.88L50.48,213.88L50.48,212.95L51.52,212.95L51.52,212.03L52.21,212.03L52.21,211.1L53.25,211.1L53.25,210.17L53.95,210.17L53.95,209.24L56.03,209.24L56.03,208.31L57.25,208.31L57.25,207.38L57.59,207.38L57.59,206.45L58.29,206.45L58.29,205.52L60.72,205.52L60.72,203.66L61.07,203.66L61.07,201.81L65.58,201.81L65.58,200.88L67.31,200.88L67.31,199.95L69.4,199.95L69.4,197.16L69.75,197.16L69.75,196.23L70.61,196.23L70.61,195.3L72.52,195.3L72.52,194.37L72.7,194.37L72.7,193.45L73.22,193.45L73.22,192.52L74.26,192.52L74.26,191.59L74.61,191.59L74.61,190.66L74.78,190.66L74.78,188.8L74.95,188.8L74.95,187.87L75.47,187.87L75.47,186.94L75.99,186.94L75.99,186.01L76.52,186.01L76.52,185.08L77.04,185.08L77.04,184.15L79.99,184.15L79.99,182.3L80.86,182.3L80.86,181.37L81.2,181.37L81.2,178.58L81.38,178.58L81.38,176.72L82.76,176.72L82.76,173.94L83.29,173.94L83.29,173.01L83.46,173.01L83.46,172.08L84.15,172.08L84.15,170.22L84.5,170.22L84.5,169.29L85.02,169.29L85.02,168.36L85.2,168.36L85.2,167.43L86.58,167.43L86.58,166.5L87.63,166.5L87.63,165.57L87.97,165.57L87.97,164.65L89.36,164.65L89.36,163.72L89.71,163.72L89.71,162.79L90.23,162.79L90.23,161.86L91.27,161.86L91.27,160.93L92.14,160.93L92.14,160L93.53,160L93.53,159.07L93.88,159.07L93.88,158.14L94.57,158.14L94.57,155.35L95.26,151.64L95.44,151.64L95.44,150.71L96.31,150.71L96.31,149.78L98.04,149.78L98.04,148.85L99.08,148.85L99.6,146.99L99.95,146.99L100.3,145.14L100.82,145.14L101.17,143.28L102.03,143.28L102.03,141.42L103.08,141.42L103.6,139.56L104.46,139.56L104.46,137.7L105.68,137.7L105.85,135.85L107.07,135.85L107.76,133.06L109.85,133.06L110.19,129.34L112.62,129.34L113.14,125.63L113.84,125.63L114.01,123.77L114.71,123.77L114.88,120.98L115.58,120.98L115.58,120.05L117.14,120.05L117.66,116.34L118.01,116.34L118.18,114.48L119.92,114.48L120.09,111.69L120.78,111.69L121.3,108.9L122.17,108.9L122.69,104.26L123.04,104.26L123.04,103.33L124.78,103.33L125.12,99.61L127.55,99.61L128.25,96.83L128.77,96.83L128.94,94.04L129.29,94.04L130.33,94.04L130.33,93.11L131.72,93.11L132.24,91.25L132.59,91.25L132.93,89.39L134.32,89.39L134.84,85.68L136.41,85.68L137.1,75.46L137.27,75.46L137.27,74.53L138.66,74.53L138.66,73.6L144.05,73.6L144.05,72.67L147.52,72.67L147.86,70.81L149.08,70.81L151.86,70.81L151.86,68.95L157.07,68.95L157.07,68.03L160.19,68.03L160.19,67.1L162.27,67.1L162.27,66.17L162.79,66.17L162.79,65.24L164.01,65.24L164.01,64.31L165.05,64.31L165.05,63.38L166.96,63.38L166.96,62.45L167.31,62.45L167.31,61.52L168.18,61.52L168.18,60.59L168.35,60.59L168.35,59.66L168.87,59.66L168.87,58.74L169.56,58.74L169.56,57.81L169.74,57.81L169.74,56.88L170.08,56.88L170.08,55.02L170.26,55.02L170.26,54.09L170.95,54.09L170.95,53.16L171.13,53.16L171.13,52.23L173.73,52.23L173.73,51.3L178.42,51.3L178.42,50.37L178.59,50.37L178.59,49.45L180.33,49.45L180.33,48.52L180.5,48.52L180.5,47.59L181.37,47.59L181.37,45.73L183.1,45.73L183.1,44.8L184.15,44.8L184.15,43.87L184.32,43.87L184.32,42.94L185.01,42.94L185.01,41.08L186.06,41.08L186.06,40.15L186.92,40.15L186.92,35.51L187.62,35.51L187.62,34.58L189.35,34.58L189.35,33.65L190.05,33.65L190.05,32.72L191.44,32.72L191.44,30.86L191.78,30.86L191.78,29.94L192.31,29.94L192.31,29.01L192.48,29.01L192.48,28.08L193.17,28.08L193.17,27.15L194.39,27.15L194.39,26.22L194.91,26.22L194.91,25.29L195.95,25.29L195.95,24.36L196.3,24.36L196.3,23.43L196.47,23.43L196.47,22.5L198.73,22.5L198.73,21.57L201.33,21.57L201.33,20.65L202.03,20.65L202.03,19.72L202.2,19.72L202.2,18.79L214.7,18.79L214.7,17.86L218.35,17.86L218.35,16.93L219.91,16.93L219.91,16L289,16" style="vector-effect: none; fill: none; stroke: rgb(171, 99, 250); stroke-opacity: 1; stroke-width: 2px; opacity: 1;"/></g><g class="points"/><g class="text"/></g><g class="trace scatter trace3b740e" style="stroke-miterlimit: 2; opacity: 1;"><g class="fills"/><g class="errorbars"/><g class="lines"><path class="js-line" d="M1,304L3.44,304L3.44,302.17L3.96,302.17L3.96,299.43L4.13,299.43L4.13,288.46L4.31,288.46L4.31,287.54L4.66,287.54L4.66,284.8L4.83,284.8L4.83,282.97L5.18,282.97L5.18,279.31L5.7,279.31L5.7,278.4L5.88,278.4L5.88,274.74L6.05,274.74L6.05,272L6.22,266.51L6.92,266.51L7.44,257.37L7.96,257.37L8.66,247.31L8.84,247.31L8.84,246.4L10.58,246.4L10.93,240.91L12.14,240.91L12.49,236.34L13.54,236.34L13.54,234.51L15.1,234.51L15.8,228.11L16.15,228.11L16.32,226.29L17.37,226.29L17.89,222.63L19.11,222.63L19.11,221.71L19.98,221.71L19.98,218.97L21.2,218.97L21.89,217.14L22.07,217.14L22.59,215.31L23.11,215.31L23.81,211.66L24.85,211.66L25.55,208.91L25.73,208.91L26.25,206.17L26.6,206.17L26.77,204.34L28.16,204.34L28.69,199.77L29.73,199.77L30.43,197.94L31.3,197.94L31.99,196.11L33.74,196.11L33.74,195.2L34.78,195.2L34.78,193.37L36.52,193.37L36.87,190.63L37.57,190.63L37.57,189.71L38.44,189.71L38.96,186.97L40.7,186.97L41.4,181.49L41.57,181.49L42.09,176L42.44,176L42.96,172.34L43.31,172.34L44.36,172.34L44.36,169.6L45.23,169.6L45.23,168.69L45.58,168.69L45.58,166.86L45.75,166.86L45.75,165.94L45.92,165.94L45.92,165.03L46.62,165.03L46.62,164.11L48.36,164.11L48.36,163.2L48.71,163.2L48.71,162.29L48.88,162.29L48.88,161.37L49.06,161.37L49.06,160.46L49.41,160.46L49.41,154.97L49.58,154.97L49.58,154.06L49.93,154.06L49.93,153.14L50.28,153.14L50.28,152.23L50.63,152.23L50.63,151.31L50.97,151.31L50.97,150.4L53.41,150.4L53.41,149.49L53.59,149.49L53.59,147.66L53.93,147.66L53.93,145.83L54.63,145.83L54.63,144.91L56.02,144.91L56.02,142.17L56.72,142.17L56.72,141.26L56.89,141.26L56.89,138.51L57.24,138.51L57.24,136.69L57.76,136.69L57.76,135.77L58.98,135.77L58.98,134.86L59.51,134.86L59.51,133.94L59.68,133.94L59.68,133.03L60.03,133.03L60.03,132.11L61.07,132.11L61.07,131.2L62.81,131.2L62.81,130.29L64.03,130.29L64.03,129.37L64.56,129.37L64.56,128.46L67.17,128.46L67.17,127.54L67.86,127.54L67.86,126.63L68.56,126.63L68.56,124.8L70.65,124.8L70.65,123.89L72.91,123.89L72.91,122.06L73.44,122.06L73.44,121.14L74.31,121.14L74.31,120.23L74.83,120.23L74.83,119.31L75.87,119.31L75.87,117.49L76.4,117.49L76.4,115.66L76.74,115.66L76.74,114.74L77.09,114.74L77.09,113.83L77.27,113.83L77.27,112.91L77.44,112.91L77.44,112L77.61,112L77.61,111.09L77.79,111.09L77.79,110.17L78.48,110.17L78.48,109.26L78.66,109.26L78.66,107.43L78.83,107.43L78.83,106.51L80.23,106.51L80.23,105.6L81.27,105.6L81.27,104.69L84.75,104.69L84.75,103.77L85.97,103.77L85.97,102.86L88.41,102.86L88.41,101.94L89.8,101.94L89.8,101.03L91.37,101.03L91.37,100.11L91.89,100.11L91.89,99.2L93.81,99.2L93.81,98.29L96.07,98.29L96.07,97.37L96.59,97.37L96.59,96.46L96.94,96.46L96.94,94.63L97.46,94.63L97.46,92.8L97.99,92.8L97.99,90.97L98.33,90.97L98.33,90.06L98.86,90.06L98.86,89.14L100.25,89.14L100.25,88.23L105.13,88.23L105.13,87.31L107.04,87.31L107.04,86.4L107.22,86.4L107.22,85.49L107.39,85.49L107.39,84.57L116.1,84.57L116.1,83.66L116.97,83.66L116.97,82.74L121.49,82.74L121.49,81.83L125.15,81.83L125.15,80.91L125.85,80.91L125.85,80L128.81,80L128.81,79.09L130.55,79.09L130.55,78.17L131.42,78.17L131.42,75.43L134.38,75.43L134.38,74.51L135.25,74.51L135.25,73.6L135.95,73.6L135.95,72.69L136.29,72.69L136.29,71.77L136.82,71.77L136.82,70.86L152.31,70.86L152.31,69.94L154.58,69.94L154.58,69.03L155.45,69.03L155.45,68.11L155.62,68.11L155.62,67.2L156.49,67.2L156.49,66.29L156.67,66.29L156.67,65.37L157.01,65.37L157.01,64.46L157.36,64.46L157.36,63.54L157.89,63.54L157.89,61.71L158.23,61.71L158.23,60.8L158.41,60.8L158.41,59.89L160.5,59.89L160.5,58.97L167.81,58.97L167.81,58.06L168.85,58.06L168.85,57.14L169.03,57.14L169.03,56.23L171.12,56.23L171.12,54.4L171.47,54.4L171.47,53.49L172.16,53.49L172.16,52.57L173.56,52.57L173.56,51.66L173.73,51.66L173.73,50.74L175.82,50.74L175.82,49.83L176.34,49.83L176.34,48L177.04,48L177.04,46.17L177.39,46.17L177.39,45.26L177.56,45.26L177.56,44.34L178.61,44.34L178.61,43.43L180.35,43.43L180.35,41.6L180.7,41.6L180.7,40.69L181.57,40.69L181.57,39.77L183.31,39.77L183.31,38.86L183.48,38.86L183.48,37.94L183.83,37.94L183.83,36.11L184,36.11L184,35.2L184.7,35.2L184.7,34.29L185.57,34.29L185.57,33.37L186.44,33.37L186.44,32.46L186.62,32.46L186.62,31.54L188.36,31.54L188.36,30.63L188.88,30.63L188.88,29.71L189.75,29.71L189.75,27.89L190.97,27.89L190.97,26.97L192.54,26.97L192.54,26.06L194.28,26.06L194.28,25.14L195.15,25.14L195.15,24.23L195.5,24.23L195.5,23.31L196.02,23.31L196.02,22.4L197.59,22.4L197.59,21.49L198.63,21.49L198.63,19.66L198.8,19.66L198.8,18.74L201.24,18.74L201.24,17.83L202.63,17.83L202.63,16L289,16" style="vector-effect: none; fill: none; stroke: rgb(255, 161, 90); stroke-opacity: 1; stroke-width: 2px; opacity: 1;"/></g><g class="points"/><g class="text"/></g><g class="trace scatter traceb91370" style="stroke-miterlimit: 2; opacity: 1;"><g class="fills"/><g class="errorbars"/><g class="lines"><path class="js-line" d="M1,304L28.02,115.94L28.02,113.21L28.72,109.58L29.07,109.58L29.59,104.13L29.77,104.13L29.94,103.22L30.64,103.22L30.81,102.31L31.51,94.13L31.68,94.13L32.55,90.5L33.25,90.5L33.95,87.77L34.12,87.77L34.82,84.14L35.69,84.14L35.69,83.23L36.39,83.23L36.74,83.23L36.74,80.5L37.26,80.5L37.61,80.5L37.78,80.5L37.78,79.6L38.83,79.6L38.83,78.69L40.4,78.69L40.4,77.78L42.14,77.78L42.14,75.96L42.32,75.96L42.32,75.05L42.49,75.05L42.49,74.15L43.71,74.15L43.71,70.51L43.89,70.51L43.89,65.06L44.23,65.06L44.23,64.15L44.58,64.15L44.58,63.24L44.93,63.24L44.93,62.33L45.11,62.33L45.11,61.43L45.63,61.43L45.63,60.52L46.15,60.52L46.15,58.7L46.33,58.7L46.33,56.88L46.68,56.88L46.68,55.97L46.85,55.97L46.85,55.07L47.55,55.07L47.55,54.16L48.94,54.16L48.94,53.25L51.91,53.25L51.91,52.34L54.17,52.34L54.17,51.43L55.04,51.43L55.04,50.52L55.39,50.52L55.39,49.62L57.48,49.62L57.48,48.71L58.36,48.71L58.36,47.8L58.53,47.8L58.53,46.89L59.23,46.89L59.23,45.98L64.81,45.98L64.81,45.07L65.33,45.07L65.33,44.16L66.55,44.16L66.55,43.26L67.25,43.26L67.25,42.35L70.21,42.35L70.21,41.44L70.56,41.44L70.56,40.53L76.84,40.53L76.84,39.62L78.4,39.62L78.4,38.71L80.15,38.71L80.15,37.8L81.72,37.8L81.72,36.9L84.85,36.9L84.85,35.08L85.9,35.08L85.9,34.17L92.53,34.17L92.53,33.26L93.4,33.26L93.4,32.35L104.9,32.35L104.9,31.44L106.3,31.44L106.3,30.54L112.05,30.54L112.05,28.72L117.46,28.72L117.46,27.81L117.8,27.81L117.8,26.9L118.5,26.9L118.5,25.99L127.39,25.99L127.39,25.09L155.11,25.09L155.11,24.18L158.42,24.18L158.42,23.27L158.77,23.27L158.77,22.36L160.52,22.36L160.52,21.45L162.08,21.45L162.08,20.54L163.48,20.54L163.48,19.63L163.83,19.63L163.83,18.73L169.58,18.73L169.58,17.82L171.32,17.82L171.32,16.91L173.24,16.91L173.24,16L289,16" style="vector-effect: none; fill: none; stroke: rgb(25, 211, 243); stroke-opacity: 1; stroke-width: 2px; opacity: 1;"/></g><g class="points"/><g class="text"/></g></g></g><g class="overplot"/><path class="xlines-above crisp" d="M0,0" style="fill: none;"/><path class="ylines-above crisp" d="M0,0" style="fill: none;"/><g class="overlines-above"/><g class="xaxislayer-above"><g class="xtick"><text text-anchor="middle" x="0" y="433" transform="translate(147.99999999999997,0)" style="font-family: 'Open Sans', verdana, arial, sans-serif; font-size: 12px; fill: rgb(42, 63, 95); fill-opacity: 1; white-space: pre; opacity: 1;">0</text></g><g class="xtick"><text text-anchor="middle" x="0" y="433" style="font-family: 'Open Sans', verdana, arial, sans-serif; font-size: 12px; fill: rgb(42, 63, 95); fill-opacity: 1; white-space: pre; opacity: 1;" transform="translate(292,0)">0.5</text></g><g class="xtick"><text text-anchor="middle" x="0" y="433" style="font-family: 'Open Sans', verdana, arial, sans-serif; font-size: 12px; fill: rgb(42, 63, 95); fill-opacity: 1; white-space: pre; opacity: 1;" transform="translate(436,0)">1</text></g></g><g class="yaxislayer-above"><g class="ytick"><text text-anchor="end" x="145.99999999999997" y="4.199999999999999" transform="translate(0,404)" style="font-family: 'Open Sans', verdana, arial, sans-serif; font-size: 12px; fill: rgb(42, 63, 95); fill-opacity: 1; white-space: pre; opacity: 1;">0</text></g><g class="ytick"><text text-anchor="end" x="145.99999999999997" y="4.199999999999999" style="font-family: 'Open Sans', verdana, arial, sans-serif; font-size: 12px; fill: rgb(42, 63, 95); fill-opacity: 1; white-space: pre; opacity: 1;" transform="translate(0,346.4)">0.2</text></g><g class="ytick"><text text-anchor="end" x="145.99999999999997" y="4.199999999999999" style="font-family: 'Open Sans', verdana, arial, sans-serif; font-size: 12px; fill: rgb(42, 63, 95); fill-opacity: 1; white-space: pre; opacity: 1;" transform="translate(0,288.8)">0.4</text></g><g class="ytick"><text text-anchor="end" x="145.99999999999997" y="4.199999999999999" style="font-family: 'Open Sans', verdana, arial, sans-serif; font-size: 12px; fill: rgb(42, 63, 95); fill-opacity: 1; white-space: pre; opacity: 1;" transform="translate(0,231.2)">0.6</text></g><g class="ytick"><text text-anchor="end" x="145.99999999999997" y="4.199999999999999" style="font-family: 'Open Sans', verdana, arial, sans-serif; font-size: 12px; fill: rgb(42, 63, 95); fill-opacity: 1; white-space: pre; opacity: 1;" transform="translate(0,173.6)">0.8</text></g><g class="ytick"><text text-anchor="end" x="145.99999999999997" y="4.199999999999999" style="font-family: 'Open Sans', verdana, arial, sans-serif; font-size: 12px; fill: rgb(42, 63, 95); fill-opacity: 1; white-space: pre; opacity: 1;" transform="translate(0,116)">1</text></g></g><g class="overaxes-above"/></g></g><g class="polarlayer"/><g class="smithlayer"/><g class="ternarylayer"/><g class="geolayer"/><g class="funnelarealayer"/><g class="pielayer"/><g class="iciclelayer"/><g class="treemaplayer"/><g class="sunburstlayer"/><g class="glimages"/><defs id="topdefs-4c1abd"><g class="clips"/><clipPath id="legend4c1abd"><rect width="126" height="124" x="0" y="0"/></clipPath></defs><g class="layer-above"><g class="imagelayer"/><g class="shapelayer"><g class="shape-group" data-index="0" clip-path="url(#clip4c1abdxy)"><path data-index="0" fill-rule="evenodd" d="M147.99999999999997,404L436,116" style="opacity: 1; stroke: rgb(42, 63, 95); stroke-opacity: 1; fill: rgb(0, 0, 0); fill-opacity: 0; stroke-dasharray: 9px, 9px; stroke-width: 2px;"/></g></g></g><g class="infolayer"><g class="legend" pointer-events="all" transform="translate(512.48,100)"><rect class="bg" shape-rendering="crispEdges" style="stroke: rgb(68, 68, 68); stroke-opacity: 1; fill: rgb(255, 255, 255); fill-opacity: 1; stroke-width: 0px;" width="126" height="124" x="0" y="0"/><g class="scrollbox" transform="" clip-path="url(#legend4c1abd)"><g class="groups"><g class="traces" transform="translate(0,14.5)" style="opacity: 1;"><text class="legendtext" text-anchor="start" x="40" y="4.680000000000001" style="font-family: 'Open Sans', verdana, arial, sans-serif; font-size: 12px; fill: rgb(42, 63, 95); fill-opacity: 1; white-space: pre;">0 (AUC = 0.87)</text><g class="layers" style="opacity: 1;"><g class="legendfill"/><g class="legendlines"><path class="js-line" d="M5,0h30" style="fill: none; stroke: rgb(99, 110, 250); stroke-opacity: 1; stroke-width: 2px;"/></g><g class="legendsymbols"><g class="legendpoints"/></g></g><rect class="legendtoggle" x="0" y="-9.5" width="120.375" height="19" style="fill: rgb(0, 0, 0); fill-opacity: 0;"/></g><g class="traces" transform="translate(0,33.5)" style="opacity: 1;"><text class="legendtext" text-anchor="start" x="40" y="4.680000000000001" style="font-family: 'Open Sans', verdana, arial, sans-serif; font-size: 12px; fill: rgb(42, 63, 95); fill-opacity: 1; white-space: pre;">1 (AUC = 0.67)</text><g class="layers" style="opacity: 1;"><g class="legendfill"/><g class="legendlines"><path class="js-line" d="M5,0h30" style="fill: none; stroke: rgb(239, 85, 59); stroke-opacity: 1; stroke-width: 2px;"/></g><g class="legendsymbols"><g class="legendpoints"/></g></g><rect class="legendtoggle" x="0" y="-9.5" width="120.375" height="19" style="fill: rgb(0, 0, 0); fill-opacity: 0;"/></g><g class="traces" transform="translate(0,52.5)" style="opacity: 1;"><text class="legendtext" text-anchor="start" x="40" y="4.680000000000001" style="font-family: 'Open Sans', verdana, arial, sans-serif; font-size: 12px; fill: rgb(42, 63, 95); fill-opacity: 1; white-space: pre;">2 (AUC = 0.68)</text><g class="layers" style="opacity: 1;"><g class="legendfill"/><g class="legendlines"><path class="js-line" d="M5,0h30" style="fill: none; stroke: rgb(0, 204, 150); stroke-opacity: 1; stroke-width: 2px;"/></g><g class="legendsymbols"><g class="legendpoints"/></g></g><rect class="legendtoggle" x="0" y="-9.5" width="120.375" height="19" style="fill: rgb(0, 0, 0); fill-opacity: 0;"/></g><g class="traces" transform="translate(0,71.5)" style="opacity: 1;"><text class="legendtext" text-anchor="start" x="40" y="4.680000000000001" style="font-family: 'Open Sans', verdana, arial, sans-serif; font-size: 12px; fill: rgb(42, 63, 95); fill-opacity: 1; white-space: pre;">3 (AUC = 0.69)</text><g class="layers" style="opacity: 1;"><g class="legendfill"/><g class="legendlines"><path class="js-line" d="M5,0h30" style="fill: none; stroke: rgb(171, 99, 250); stroke-opacity: 1; stroke-width: 2px;"/></g><g class="legendsymbols"><g class="legendpoints"/></g></g><rect class="legendtoggle" x="0" y="-9.5" width="120.375" height="19" style="fill: rgb(0, 0, 0); fill-opacity: 0;"/></g><g class="traces" transform="translate(0,90.5)" style="opacity: 1;"><text class="legendtext" text-anchor="start" x="40" y="4.680000000000001" style="font-family: 'Open Sans', verdana, arial, sans-serif; font-size: 12px; fill: rgb(42, 63, 95); fill-opacity: 1; white-space: pre;">4 (AUC = 0.76)</text><g class="layers" style="opacity: 1;"><g class="legendfill"/><g class="legendlines"><path class="js-line" d="M5,0h30" style="fill: none; stroke: rgb(255, 161, 90); stroke-opacity: 1; stroke-width: 2px;"/></g><g class="legendsymbols"><g class="legendpoints"/></g></g><rect class="legendtoggle" x="0" y="-9.5" width="120.375" height="19" style="fill: rgb(0, 0, 0); fill-opacity: 0;"/></g><g class="traces" transform="translate(0,109.5)" style="opacity: 1;"><text class="legendtext" text-anchor="start" x="40" y="4.680000000000001" style="font-family: 'Open Sans', verdana, arial, sans-serif; font-size: 12px; fill: rgb(42, 63, 95); fill-opacity: 1; white-space: pre;">5 (AUC = 0.90)</text><g class="layers" style="opacity: 1;"><g class="legendfill"/><g class="legendlines"><path class="js-line" d="M5,0h30" style="fill: none; stroke: rgb(25, 211, 243); stroke-opacity: 1; stroke-width: 2px;"/></g><g class="legendsymbols"><g class="legendpoints"/></g></g><rect class="legendtoggle" x="0" y="-9.5" width="120.375" height="19" style="fill: rgb(0, 0, 0); fill-opacity: 0;"/></g></g></g><rect class="scrollbar" rx="20" ry="3" width="0" height="0" style="fill: rgb(128, 139, 164); fill-opacity: 1;" x="0" y="0"/></g><g class="g-gtitle"><text class="gtitle" x="32.5" y="50" text-anchor="start" dy="0em" style="font-family: 'Open Sans', verdana, arial, sans-serif; font-size: 17px; fill: rgb(42, 63, 95); opacity: 1; font-weight: normal; white-space: pre;">Multi-Layer Perceptron ROC Curve</text></g><g class="g-xtitle"><text class="xtitle" x="292" y="460.3" text-anchor="middle" style="font-family: 'Open Sans', verdana, arial, sans-serif; font-size: 14px; fill: rgb(42, 63, 95); opacity: 1; font-weight: normal; white-space: pre;">False Positive Rate</text></g><g class="g-ytitle"><text class="ytitle" transform="rotate(-90,105.0125,260)" x="105.0125" y="260" text-anchor="middle" style="font-family: 'Open Sans', verdana, arial, sans-serif; font-size: 14px; fill: rgb(42, 63, 95); opacity: 1; font-weight: normal; white-space: pre;">True Positive Rate</text></g></g></svg>