<svg class="main-svg" xmlns="http://www.w3.org/2000/svg" xmlns:xlink="http://www.w3.org/1999/xlink" width="650" height="500" style="" viewBox="0 0 650 500"><rect x="0" y="0" width="650" height="500" style="fill: rgb(255, 255, 255); fill-opacity: 1;"/><defs id="defs-bcb5f6"><g class="clips"><clipPath id="clipbcb5f6xyplot" class="plotclip"><rect width="290.00000000000006" height="320"/></clipPath><clipPath class="axesclip" id="clipbcb5f6x"><rect x="146.99999999999997" y="0" width="290.00000000000006" height="500"/></clipPath><clipPath class="axesclip" id="clipbcb5f6y"><rect x="0" y="100" width="650" height="320"/></clipPath><clipPath class="axesclip" id="clipbcb5f6xy"><rect x="146.99999999999997" y="100" width="290.00000000000006" height="320"/></clipPath></g><g class="gradients"/><g class="patterns"/></defs><g class="bglayer"><rect class="bg" x="146.99999999999997" y="100" width="290.00000000000006" height="320" style="fill: rgb(229, 236, 246); fill-opacity: 1; stroke-width: 0;"/></g><g class="layer-below"><g class="imagelayer"/><g class="shapelayer"/></g><g class="cartesianlayer"><g class="subplot xy"><g class="layer-subplot"><g class="shapelayer"/><g class="imagelayer"/></g><g class="minor-gridlayer"><g class="x"/><g class="y"/></g><g class="gridlayer"><g class="x"><path class="xgrid crisp" transform="translate(292,0)" d="M0,100v320" style="stroke: rgb(255, 255, 255); stroke-opacity: 1; stroke-width: 1px;"/><path class="xgrid crisp" transform="translate(436,0)" d="M0,100v320" style="stroke: rgb(255, 255, 255); stroke-opacity: 1; stroke-width: 1px;"/></g><g class="y"><path class="ygrid crisp" transform="translate(0,346.4)" d="M146.99999999999997,0h290.00000000000006" style="stroke: rgb(255, 255, 255); stroke-opacity: 1; stroke-width: 1px;"/><path class="ygrid crisp" transform="translate(0,288.8)" d="M146.99999999999997,0h290.00000000000006" style="stroke: rgb(255, 255, 255); stroke-opacity: 1; stroke-width: 1px;"/><path class="ygrid crisp" transform="translate(0,231.2)" d="M146.99999999999997,0h290.00000000000006" style="stroke: rgb(255, 255, 255); stroke-opacity: 1; stroke-width: 1px;"/><path class="ygrid crisp" transform="translate(0,173.6)" d="M146.99999999999997,0h290.00000000000006" style="stroke: rgb(255, 255, 255); stroke-opacity: 1; stroke-width: 1px;"/><path class="ygrid crisp" transform="translate(0,116)" d="M146.99999999999997,0h290.00000000000006" style="stroke: rgb(255, 255, 255); stroke-opacity: 1; stroke-width: 1px;"/></g></g><g class="zerolinelayer"><path class="xzl zl crisp" transform="translate(147.99999999999997,0)" d="M0,100v320" style="stroke: rgb(255, 255, 255); stroke-opacity: 1; stroke-width: 2px;"/><path class="yzl zl crisp" transform="translate(0,404)" d="M146.99999999999997,0h290.00000000000006" style="stroke: rgb(255, 255, 255); stroke-opacity: 1; stroke-width: 2px;"/></g><path class="xlines-below"/><path class="ylines-below"/><g class="overlines-below"/><g class="xaxislayer-below"/><g class="yaxislayer-below"/><g class="overaxes-below"/><g class="plot" transform="translate(146.99999999999997,100)" clip-path="url(#clipbcb5f6xyplot)"><g class="scatterlayer mlayer"><g class="trace scatter trace513301" style="stroke-miterlimit: 2; opacity: 1;"><g class="fills"/><g class="errorbars"/><g class="lines"><path class="js-line" d="M1,304L2.58,205.41L2.76,205.41L3.46,193.3L3.99,193.3L4.7,182.92L4.87,182.92L5.58,169.08L5.93,169.08L6.46,164.76L6.81,164.76L7.51,157.84L7.69,157.84L8.04,150.05L8.57,150.05L9.27,143.14L9.45,143.14L9.8,139.68L10.51,139.68L11.21,134.49L11.39,134.49L12.09,132.76L12.62,132.76L12.79,127.57L13.5,127.57L14.2,122.38L14.38,122.38L14.73,117.19L15.44,117.19L15.79,108.54L16.67,108.54L17.2,105.08L17.9,105.08L18.43,102.49L19.31,102.49L19.31,101.62L20.19,101.62L20.72,99.89L23.36,99.89L24.06,96.43L24.41,96.43L24.41,93.84L25.82,93.84L26.35,90.38L26.7,90.38L26.88,87.78L27.76,87.78L28.46,85.19L28.81,85.19L29.34,80.86L31.1,80.86L31.81,78.27L32.69,78.27L33.22,75.68L33.57,75.68L34.1,70.49L34.8,70.49L35.33,67.03L35.86,67.03L36.21,64.43L37.26,64.43L37.26,63.57L38.32,63.57L38.32,62.7L39.2,62.7L39.2,61.84L40.96,61.84L40.96,60.97L43.6,60.97L43.6,60.11L44.83,60.11L44.83,59.24L59.27,59.24L289,16" style="vector-effect: none; fill: none; stroke: rgb(99, 110, 250); stroke-opacity: 1; stroke-width: 2px; opacity: 1;"/></g><g class="points"/><g class="text"/></g><g class="trace scatter trace9705b7" style="stroke-miterlimit: 2; opacity: 1;"><g class="fills"/><g class="errorbars"/><g class="lines"><path class="js-line" d="M1,304L3.48,234.08L3.48,194.96L3.66,194.96L3.66,189.97L3.84,189.97L3.84,176.65L4.02,176.65L4.02,171.65L4.19,171.65L4.19,163.33L4.37,163.33L4.37,161.66L4.55,161.66L4.55,160.83L4.73,160.83L4.73,160L4.9,160L4.9,157.5L5.26,157.5L5.26,155.84L5.61,155.84L5.61,154.17L5.79,154.17L5.79,145.85L5.97,145.85L5.97,139.19L6.32,139.19L6.32,136.69L6.5,136.69L6.5,131.7L6.68,131.7L6.68,130.03L6.86,130.03L6.86,129.2L7.21,129.2L7.21,128.37L7.39,128.37L7.39,125.04L7.57,125.04L7.57,123.38L7.74,123.38L7.74,121.71L8.1,121.71L8.1,119.21L8.28,119.21L8.28,118.38L8.63,118.38L8.63,115.88L8.81,115.88L8.81,111.72L9.16,111.72L9.16,110.89L9.34,110.89L9.34,109.23L9.52,109.23L9.52,108.39L9.7,108.39L9.7,105.06L9.87,105.06L9.87,103.4L10.05,103.4L10.05,102.57L10.23,102.57L10.23,100.9L10.58,100.9L10.58,95.08L10.76,95.08L10.76,90.91L11.47,90.91L11.47,89.25L11.82,89.25L11.82,88.42L12,88.42L12,85.92L13.24,85.92L13.24,83.42L13.42,83.42L13.42,82.59L14.84,82.59L14.84,81.76L15.55,81.76L15.55,80.92L15.73,80.92L15.73,80.09L15.91,80.09L15.91,79.26L16.08,79.26L16.08,78.43L16.62,78.43L16.62,77.6L16.79,77.6L16.79,76.76L16.97,76.76L16.97,75.93L17.15,75.93L17.15,74.27L17.33,74.27L17.33,73.43L17.68,73.43L17.68,72.6L17.86,72.6L17.86,71.77L18.04,71.77L18.04,70.94L18.74,70.94L18.74,70.1L18.92,70.1L18.92,69.27L19.1,69.27L19.1,68.44L20.16,68.44L20.16,67.61L20.52,67.61L20.52,65.11L20.7,65.11L20.7,64.28L21.23,64.28L21.23,63.45L21.58,63.45L21.58,62.61L21.76,62.61L21.76,61.78L21.94,61.78L21.94,59.28L22.65,59.28L22.65,58.45L24.25,58.45L24.25,57.62L24.78,57.62L24.78,56.79L25.13,56.79L25.13,55.12L25.31,55.12L25.31,54.29L25.49,54.29L25.49,53.46L25.67,53.46L25.67,52.62L26.91,52.62L26.91,51.79L29.04,51.79L29.04,50.96L29.39,50.96L29.39,49.29L30.63,49.29L30.63,48.46L31.17,48.46L31.17,47.63L31.88,47.63L31.88,46.8L32.23,46.8L32.23,45.97L34.18,45.97L34.18,45.13L35.43,45.13L35.43,44.3L36.13,44.3L36.13,43.47L38.26,43.47L38.26,42.64L39.51,42.64L39.51,41.8L39.68,41.8L39.68,40.97L40.04,40.97L40.04,40.14L40.22,40.14L40.22,39.31L40.39,39.31L40.39,37.64L43.06,37.64L43.06,36.81L50.33,36.81L50.33,35.98L50.51,35.98L50.51,35.14L59.38,35.14L289,16" style="vector-effect: none; fill: none; stroke: rgb(239, 85, 59); stroke-opacity: 1; stroke-width: 2px; opacity: 1;"/></g><g class="points"/><g class="text"/></g><g class="trace scatter trace71ab44" style="stroke-miterlimit: 2; opacity: 1;"><g class="fills"/><g class="errorbars"/><g class="lines"><path class="js-line" d="M1,304L4.02,150.9L4.55,150.9L5.09,145.93L5.44,145.93L6.15,138.48L6.33,138.48L7.04,124.41L7.22,124.41L7.93,115.31L8.11,115.31L8.64,112.83L9,112.83L9.35,107.86L10.42,107.86L10.42,105.38L11.48,105.38L11.84,102.9L12.9,102.9L13.61,88.83L13.79,88.83L14.5,83.03L15.75,83.03L16.28,78.07L17.88,78.07L18.41,76.41L18.77,76.41L18.77,75.59L21.43,75.59L21.43,74.76L23.39,74.76L23.56,73.1L24.63,73.1L24.99,70.62L25.52,70.62L26.23,64.83L26.41,64.83L26.41,64L28.01,64L28.01,63.17L31.38,63.17L32.09,60.69L32.27,60.69L32.27,59.03L33.51,59.03L34.22,57.38L34.4,57.38L35.11,54.07L35.82,54.07L36.36,52.41L36.71,52.41L36.89,50.76L37.78,50.76L37.78,49.93L38.84,49.93L39.38,48.28L39.73,48.28L40.26,46.62L41.51,46.62L41.51,45.79L42.57,45.79L42.93,44.14L43.46,44.14L44,40.83L44.71,40.83L44.71,40L45.77,40L45.77,39.17L47.02,39.17L47.73,39.17L47.73,38.34L49.33,38.34L49.33,37.52L54.66,37.52L289,16" style="vector-effect: none; fill: none; stroke: rgb(0, 204, 150); stroke-opacity: 1; stroke-width: 2px; opacity: 1;"/></g><g class="points"/><g class="text"/></g><g class="trace scatter tracea5829f" style="stroke-miterlimit: 2; opacity: 1;"><g class="fills"/><g class="errorbars"/><g class="lines"><path class="js-line" d="M1,304L3.43,68.95L3.6,68.95L4.12,64.31L4.47,64.31L4.47,62.45L5.34,62.45L5.51,58.74L6.73,58.74L6.9,55.02L7.77,55.02L8.12,50.37L8.64,50.37L9.33,45.73L9.51,45.73L10.03,39.23L12.11,39.23L12.11,38.3L12.98,38.3L12.98,36.44L14.54,36.44L14.89,33.65L15.58,33.65L15.58,32.72L16.45,32.72L17.14,29.94L18.01,29.94L18.53,28.08L19.23,28.08L19.92,26.22L21.48,26.22L21.48,25.29L26,25.29L26,24.36L34.33,24.36L289,16" style="vector-effect: none; fill: none; stroke: rgb(171, 99, 250); stroke-opacity: 1; stroke-width: 2px; opacity: 1;"/></g><g class="points"/><g class="text"/></g><g class="trace scatter tracee13bd3" style="stroke-miterlimit: 2; opacity: 1;"><g class="fills"/><g class="errorbars"/><g class="lines"><path class="js-line" d="M1,304L2.74,83.66L2.92,83.66L3.61,74.51L3.79,74.51L4.48,62.63L4.83,62.63L5.53,58.06L5.7,58.06L5.7,57.14L6.92,57.14L7.44,52.57L8.31,52.57L9.01,48L9.18,48L9.88,38.86L10.23,38.86L10.93,37.03L11.27,37.03L11.62,33.37L12.14,33.37L12.14,32.46L13.54,32.46L14.06,30.63L14.23,30.63L14.58,30.63L14.76,28.8L15.63,28.8L16.15,26.06L17.54,26.06L17.72,24.23L18.41,24.23L18.76,21.49L22.07,21.49L22.24,19.66L22.94,19.66L23.64,17.83L32.69,17.83L289,16" style="vector-effect: none; fill: none; stroke: rgb(255, 161, 90); stroke-opacity: 1; stroke-width: 2px; opacity: 1;"/></g><g class="points"/><g class="text"/></g><g class="trace scatter tracea4716f" style="stroke-miterlimit: 2; opacity: 1;"><g class="fills"/><g class="errorbars"/><g class="lines"><path class="js-line" d="M1,304L2.22,47.8L2.74,47.8L3.44,38.71L3.62,38.71L4.31,31.44L4.66,31.44L5.18,29.63L5.53,29.63L5.53,28.72L7.62,28.72L8.32,23.27L9.89,23.27L9.89,22.36L14.25,22.36L289,16" style="vector-effect: none; fill: none; stroke: rgb(25, 211, 243); stroke-opacity: 1; stroke-width: 2px; opacity: 1;"/></g><g class="points"/><g class="text"/></g></g></g><g class="overplot"/><path class="xlines-above crisp" d="M0,0" style="fill: none;"/><path class="ylines-above crisp" d="M0,0" style="fill: none;"/><g class="overlines-above"/><g class="xaxislayer-above"><g class="xtick"><text text-anchor="middle" x="0" y="433" transform="translate(147.99999999999997,0)" style="font-family: 'Open Sans', verdana, arial, sans-serif; font-size: 12px; fill: rgb(42, 63, 95); fill-opacity: 1; white-space: pre; opacity: 1;">0</text></g><g class="xtick"><text text-anchor="middle" x="0" y="433" style="font-family: 'Open Sans', verdana, arial, sans-serif; font-size: 12px; fill: rgb(42, 63, 95); fill-opacity: 1; white-space: pre; opacity: 1;" transform="translate(292,0)">0.5</text></g><g class="xtick"><text text-anchor="middle" x="0" y="433" style="font-family: 'Open Sans', verdana, arial, sans-serif; font-size: 12px; fill: rgb(42, 63, 95); fill-opacity: 1; white-space: pre; opacity: 1;" transform="translate(436,0)">1</text></g></g><g class="yaxislayer-above"><g class="ytick"><text text-anchor="end" x="145.99999999999997" y="4.199999999999999" transform="translate(0,404)" style="font-family: 'Open Sans', verdana, arial, sans-serif; font-size: 12px; fill: rgb(42, 63, 95); fill-opacity: 1; white-space: pre; opacity: 1;">0</text></g><g class="ytick"><text text-anchor="end" x="145.99999999999997" y="4.199999999999999" style="font-family: 'Open Sans', verdana, arial, sans-serif; font-size: 12px; fill: rgb(42, 63, 95); fill-opacity: 1; white-space: pre; opacity: 1;" transform="translate(0,346.4)">0.2</text></g><g class="ytick"><text text-anchor="end" x="145.99999999999997" y="4.199999999999999" style="font-family: 'Open Sans', verdana, arial, sans-serif; font-size: 12px; fill: rgb(42, 63, 95); fill-opacity: 1; white-space: pre; opacity: 1;" transform="translate(0,288.8)">0.4</text></g><g class="ytick"><text text-anchor="end" x="145.99999999999997" y="4.199999999999999" style="font-family: 'Open Sans', verdana, arial, sans-serif; font-size: 12px; fill: rgb(42, 63, 95); fill-opacity: 1; white-space: pre; opacity: 1;" transform="translate(0,231.2)">0.6</text></g><g class="ytick"><text text-anchor="end" x="145.99999999999997" y="4.199999999999999" style="font-family: 'Open Sans', verdana, arial, sans-serif; font-size: 12px; fill: rgb(42, 63, 95); fill-opacity: 1; white-space: pre; opacity: 1;" transform="translate(0,173.6)">0.8</text></g><g class="ytick"><text text-anchor="end" x="145.99999999999997" y="4.199999999999999" style="font-family: 'Open Sans', verdana, arial, sans-serif; font-size: 12px; fill: rgb(42, 63, 95); fill-opacity: 1; white-space: pre; opacity: 1;" transform="translate(0,116)">1</text></g></g><g class="overaxes-above"/></g></g><g class="polarlayer"/><g class="smithlayer"/><g class="ternarylayer"/><g class="geolayer"/><g class="funnelarealayer"/><g class="pielayer"/><g class="iciclelayer"/><g class="treemaplayer"/><g class="sunburstlayer"/><g class="glimages"/><defs id="topdefs-bcb5f6"><g class="clips"/><clipPath id="legendbcb5f6"><rect width="126" height="124" x="0" y="0"/></clipPath></defs><g class="layer-above"><g class="imagelayer"/><g class="shapelayer"><g class="shape-group" data-index="0" clip-path="url(#clipbcb5f6xy)"><path data-index="0" fill-rule="evenodd" d="M147.99999999999997,404L436,116" style="opacity: 1; stroke: rgb(42, 63, 95); stroke-opacity: 1; fill: rgb(0, 0, 0); fill-opacity: 0; stroke-dasharray: 9px, 9px; stroke-width: 2px;"/></g></g></g><g class="infolayer"><g class="legend" pointer-events="all" transform="translate(512.48,100)"><rect class="bg" shape-rendering="crispEdges" style="stroke: rgb(68, 68, 68); stroke-opacity: 1; fill: rgb(255, 255, 255); fill-opacity: 1; stroke-width: 0px;" width="126" height="124" x="0" y="0"/><g class="scrollbox" transform="" clip-path="url(#legendbcb5f6)"><g class="groups"><g class="traces" transform="translate(0,14.5)" style="opacity: 1;"><text class="legendtext" text-anchor="start" x="40" y="4.680000000000001" style="font-family: 'Open Sans', verdana, arial, sans-serif; font-size: 12px; fill: rgb(42, 63, 95); fill-opacity: 1; white-space: pre;">0 (AUC = 0.88)</text><g class="layers" style="opacity: 1;"><g class="legendfill"/><g class="legendlines"><path class="js-line" d="M5,0h30" style="fill: none; stroke: rgb(99, 110, 250); stroke-opacity: 1; stroke-width: 2px;"/></g><g class="legendsymbols"><g class="legendpoints"/></g></g><rect class="legendtoggle" x="0" y="-9.5" width="120.375" height="19" style="fill: rgb(0, 0, 0); fill-opacity: 0;"/></g><g class="traces" transform="translate(0,33.5)" style="opacity: 1;"><text class="legendtext" text-anchor="start" x="40" y="4.680000000000001" style="font-family: 'Open Sans', verdana, arial, sans-serif; font-size: 12px; fill: rgb(42, 63, 95); fill-opacity: 1; white-space: pre;">1 (AUC = 0.94)</text><g class="layers" style="opacity: 1;"><g class="legendfill"/><g class="legendlines"><path class="js-line" d="M5,0h30" style="fill: none; stroke: rgb(239, 85, 59); stroke-opacity: 1; stroke-width: 2px;"/></g><g class="legendsymbols"><g class="legendpoints"/></g></g><rect class="legendtoggle" x="0" y="-9.5" width="120.375" height="19" style="fill: rgb(0, 0, 0); fill-opacity: 0;"/></g><g class="traces" transform="translate(0,52.5)" style="opacity: 1;"><text class="legendtext" text-anchor="start" x="40" y="4.680000000000001" style="font-family: 'Open Sans', verdana, arial, sans-serif; font-size: 12px; fill: rgb(42, 63, 95); fill-opacity: 1; white-space: pre;">2 (AUC = 0.93)</text><g class="layers" style="opacity: 1;"><g class="legendfill"/><g class="legendlines"><path class="js-line" d="M5,0h30" style="fill: none; stroke: rgb(0, 204, 150); stroke-opacity: 1; stroke-width: 2px;"/></g><g class="legendsymbols"><g class="legendpoints"/></g></g><rect class="legendtoggle" x="0" y="-9.5" width="120.375" height="19" style="fill: rgb(0, 0, 0); fill-opacity: 0;"/></g><g class="traces" transform="translate(0,71.5)" style="opacity: 1;"><text class="legendtext" text-anchor="start" x="40" y="4.680000000000001" style="font-family: 'Open Sans', verdana, arial, sans-serif; font-size: 12px; fill: rgb(42, 63, 95); fill-opacity: 1; white-space: pre;">3 (AUC = 0.98)</text><g class="layers" style="opacity: 1;"><g class="legendfill"/><g class="legendlines"><path class="js-line" d="M5,0h30" style="fill: none; stroke: rgb(171, 99, 250); stroke-opacity: 1; stroke-width: 2px;"/></g><g class="legendsymbols"><g class="legendpoints"/></g></g><rect class="legendtoggle" x="0" y="-9.5" width="120.375" height="19" style="fill: rgb(0, 0, 0); fill-opacity: 0;"/></g><g class="traces" transform="translate(0,90.5)" style="opacity: 1;"><text class="legendtext" text-anchor="start" x="40" y="4.680000000000001" style="font-family: 'Open Sans', verdana, arial, sans-serif; font-size: 12px; fill: rgb(42, 63, 95); fill-opacity: 1; white-space: pre;">4 (AUC = 0.99)</text><g class="layers" style="opacity: 1;"><g class="legendfill"/><g class="legendlines"><path class="js-line" d="M5,0h30" style="fill: none; stroke: rgb(255, 161, 90); stroke-opacity: 1; stroke-width: 2px;"/></g><g class="legendsymbols"><g class="legendpoints"/></g></g><rect class="legendtoggle" x="0" y="-9.5" width="120.375" height="19" style="fill: rgb(0, 0, 0); fill-opacity: 0;"/></g><g class="traces" transform="translate(0,109.5)" style="opacity: 1;"><text class="legendtext" text-anchor="start" x="40" y="4.680000000000001" style="font-family: 'Open Sans', verdana, arial, sans-serif; font-size: 12px; fill: rgb(42, 63, 95); fill-opacity: 1; white-space: pre;">5 (AUC = 0.99)</text><g class="layers" style="opacity: 1;"><g class="legendfill"/><g class="legendlines"><path class="js-line" d="M5,0h30" style="fill: none; stroke: rgb(25, 211, 243); stroke-opacity: 1; stroke-width: 2px;"/></g><g class="legendsymbols"><g class="legendpoints"/></g></g><rect class="legendtoggle" x="0" y="-9.5" width="120.375" height="19" style="fill: rgb(0, 0, 0); fill-opacity: 0;"/></g></g></g><rect class="scrollbar" rx="20" ry="3" width="0" height="0" style="fill: rgb(128, 139, 164); fill-opacity: 1;" x="0" y="0"/></g><g class="g-gtitle"><text class="gtitle" x="32.5" y="50" text-anchor="start" dy="0em" style="font-family: 'Open Sans', verdana, arial, sans-serif; font-size: 17px; fill: rgb(42, 63, 95); opacity: 1; font-weight: normal; white-space: pre;">KNN ROC Curve</text></g><g class="g-xtitle"><text class="xtitle" x="292" y="460.3" text-anchor="middle" style="font-family: 'Open Sans', verdana, arial, sans-serif; font-size: 14px; fill: rgb(42, 63, 95); opacity: 1; font-weight: normal; white-space: pre;">False Positive Rate</text></g><g class="g-ytitle"><text class="ytitle" transform="rotate(-90,105.0125,260)" x="105.0125" y="260" text-anchor="middle" style="font-family: 'Open Sans', verdana, arial, sans-serif; font-size: 14px; fill: rgb(42, 63, 95); opacity: 1; font-weight: normal; white-space: pre;">True Positive Rate</text></g></g></svg>