<?xml version="1.0" encoding="utf-8" standalone="no"?>
<!DOCTYPE svg PUBLIC "-//W3C//DTD SVG 1.1//EN"
  "http://www.w3.org/Graphics/SVG/1.1/DTD/svg11.dtd">
<svg xmlnsXlink="http://www.w3.org/1999/xlink" width="460.8pt" height="345.6pt" viewBox="0 0 460.8 345.6" xmlns="http://www.w3.org/2000/svg" version="1.1">
 <metadata>
  <rdfRDF xmlnsDc="http://purl.org/dc/elements/1.1/" xmlnsCc="http://creativecommons.org/ns#" xmlnsRdf="http://www.w3.org/1999/02/22-rdf-syntax-ns#">
   <ccWork>
    <dcType rdfResource="http://purl.org/dc/dcmitype/StillImage"/>
    <dcDate>2023-07-12T15:08:09.825821</dcDate>
    <dcFormat>image/svg+xml</dcFormat>
    <dcCreator>
     <ccAgent>
      <dcTitle>Matplotlib v3.7.1, https://matplotlib.org/</dcTitle>
     </ccAgent>
    </dcCreator>
   </ccWork>
  </rdfRDF>
 </metadata>
 <defs>
  <style type="text/css">*{stroke-linejoin: round; stroke-linecap: butt}</style>
 </defs>
 <g id="figure_1">
  <g id="patch_1">
   <path d="M 0 345.6 
L 460.8 345.6 
L 460.8 0 
L 0 0 
z
" style="fill: #ffffff"/>
  </g>
  <g id="axes_1">
   <g id="patch_2">
    <path d="M 57.6 307.584 
L 414.72 307.584 
L 414.72 41.472 
L 57.6 41.472 
z
" style="fill: #ffffff"/>
   </g>
   <g id="patch_3">
    <path d="M 140.78949 295.488 
L 179.683304 295.488 
L 179.683304 275.739429 
L 140.78949 275.739429 
z
" clip-path="url(#p25d80fe3b6)" style="fill: #008000"/>
   </g>
   <g id="patch_4">
    <path d="M 140.78949 270.802286 
L 85.735086 270.802286 
L 85.735086 251.053714 
L 140.78949 251.053714 
z
" clip-path="url(#p25d80fe3b6)" style="fill: #ff0000"/>
   </g>
   <g id="patch_5">
    <path d="M 140.78949 246.116571 
L 83.338139 246.116571 
L 83.338139 226.368 
L 140.78949 226.368 
z
" clip-path="url(#p25d80fe3b6)" style="fill: #ff0000"/>
   </g>
   <g id="patch_6">
    <path d="M 140.78949 221.430857 
L 204.561451 221.430857 
L 204.561451 201.682286 
L 140.78949 201.682286 
z
" clip-path="url(#p25d80fe3b6)" style="fill: #008000"/>
   </g>
   <g id="patch_7">
    <path d="M 140.78949 196.745143 
L 73.832727 196.745143 
L 73.832727 176.996571 
L 140.78949 176.996571 
z
" clip-path="url(#p25d80fe3b6)" style="fill: #ff0000"/>
   </g>
   <g id="patch_8">
    <path d="M 140.78949 172.059429 
L 214.938567 172.059429 
L 214.938567 152.310857 
L 140.78949 152.310857 
z
" clip-path="url(#p25d80fe3b6)" style="fill: #008000"/>
   </g>
   <g id="patch_9">
    <path d="M 140.78949 147.373714 
L 228.156461 147.373714 
L 228.156461 127.625143 
L 140.78949 127.625143 
z
" clip-path="url(#p25d80fe3b6)" style="fill: #008000"/>
   </g>
   <g id="patch_10">
    <path d="M 140.78949 122.688 
L 262.278077 122.688 
L 262.278077 102.939429 
L 140.78949 102.939429 
z
" clip-path="url(#p25d80fe3b6)" style="fill: #008000"/>
   </g>
   <g id="patch_11">
    <path d="M 140.78949 98.002286 
L 385.984509 98.002286 
L 385.984509 78.253714 
L 140.78949 78.253714 
z
" clip-path="url(#p25d80fe3b6)" style="fill: #008000"/>
   </g>
   <g id="patch_12">
    <path d="M 140.78949 73.316571 
L 398.487273 73.316571 
L 398.487273 53.568 
L 140.78949 53.568 
z
" clip-path="url(#p25d80fe3b6)" style="fill: #008000"/>
   </g>
   <g id="matplotlib.axis_1">
    <g id="xtick_1">
     <g id="line2d_1">
      <defs>
       <path id="m1b5d35b43d" d="M 0 0 
L 0 3.5 
" style="stroke: #000000; stroke-width: 0.8"/>
      </defs>
      <g>
       <use xlinkHref="#m1b5d35b43d" x="68.8754" y="307.584" style="stroke: #000000; stroke-width: 0.8"/>
      </g>
     </g>
     <g id="text_1">
      <!-- −0.02 -->
      <g transform="translate(53.552744 322.182437) scale(0.1 -0.1)">
       <defs>
        <path id="DejaVuSans-2212" d="M 678 2272 
L 4684 2272 
L 4684 1741 
L 678 1741 
L 678 2272 
z
" transform="scale(0.015625)"/>
        <path id="DejaVuSans-30" d="M 2034 4250 
Q 1547 4250 1301 3770 
Q 1056 3291 1056 2328 
Q 1056 1369 1301 889 
Q 1547 409 2034 409 
Q 2525 409 2770 889 
Q 3016 1369 3016 2328 
Q 3016 3291 2770 3770 
Q 2525 4250 2034 4250 
z
M 2034 4750 
Q 2819 4750 3233 4129 
Q 3647 3509 3647 2328 
Q 3647 1150 3233 529 
Q 2819 -91 2034 -91 
Q 1250 -91 836 529 
Q 422 1150 422 2328 
Q 422 3509 836 4129 
Q 1250 4750 2034 4750 
z
" transform="scale(0.015625)"/>
        <path id="DejaVuSans-2e" d="M 684 794 
L 1344 794 
L 1344 0 
L 684 0 
L 684 794 
z
" transform="scale(0.015625)"/>
        <path id="DejaVuSans-32" d="M 1228 531 
L 3431 531 
L 3431 0 
L 469 0 
L 469 531 
Q 828 903 1448 1529 
Q 2069 2156 2228 2338 
Q 2531 2678 2651 2914 
Q 2772 3150 2772 3378 
Q 2772 3750 2511 3984 
Q 2250 4219 1831 4219 
Q 1534 4219 1204 4116 
Q 875 4013 500 3803 
L 500 4441 
Q 881 4594 1212 4672 
Q 1544 4750 1819 4750 
Q 2544 4750 2975 4387 
Q 3406 4025 3406 3419 
Q 3406 3131 3298 2873 
Q 3191 2616 2906 2266 
Q 2828 2175 2409 1742 
Q 1991 1309 1228 531 
z
" transform="scale(0.015625)"/>
       </defs>
       <use xlinkHref="#DejaVuSans-2212"/>
       <use xlinkHref="#DejaVuSans-30" x="83.789062"/>
       <use xlinkHref="#DejaVuSans-2e" x="147.412109"/>
       <use xlinkHref="#DejaVuSans-30" x="179.199219"/>
       <use xlinkHref="#DejaVuSans-32" x="242.822266"/>
      </g>
     </g>
    </g>
    <g id="xtick_2">
     <g id="line2d_2">
      <g>
       <use xlinkHref="#m1b5d35b43d" x="140.78949" y="307.584" style="stroke: #000000; stroke-width: 0.8"/>
      </g>
     </g>
     <g id="text_2">
      <!-- 0.00 -->
      <g transform="translate(129.656678 322.182437) scale(0.1 -0.1)">
       <use xlinkHref="#DejaVuSans-30"/>
       <use xlinkHref="#DejaVuSans-2e" x="63.623047"/>
       <use xlinkHref="#DejaVuSans-30" x="95.410156"/>
       <use xlinkHref="#DejaVuSans-30" x="159.033203"/>
      </g>
     </g>
    </g>
    <g id="xtick_3">
     <g id="line2d_3">
      <g>
       <use xlinkHref="#m1b5d35b43d" x="212.70358" y="307.584" style="stroke: #000000; stroke-width: 0.8"/>
      </g>
     </g>
     <g id="text_3">
      <!-- 0.02 -->
      <g transform="translate(201.570768 322.182437) scale(0.1 -0.1)">
       <use xlinkHref="#DejaVuSans-30"/>
       <use xlinkHref="#DejaVuSans-2e" x="63.623047"/>
       <use xlinkHref="#DejaVuSans-30" x="95.410156"/>
       <use xlinkHref="#DejaVuSans-32" x="159.033203"/>
      </g>
     </g>
    </g>
    <g id="xtick_4">
     <g id="line2d_4">
      <g>
       <use xlinkHref="#m1b5d35b43d" x="284.61767" y="307.584" style="stroke: #000000; stroke-width: 0.8"/>
      </g>
     </g>
     <g id="text_4">
      <!-- 0.04 -->
      <g transform="translate(273.484858 322.182437) scale(0.1 -0.1)">
       <defs>
        <path id="DejaVuSans-34" d="M 2419 4116 
L 825 1625 
L 2419 1625 
L 2419 4116 
z
M 2253 4666 
L 3047 4666 
L 3047 1625 
L 3713 1625 
L 3713 1100 
L 3047 1100 
L 3047 0 
L 2419 0 
L 2419 1100 
L 313 1100 
L 313 1709 
L 2253 4666 
z
" transform="scale(0.015625)"/>
       </defs>
       <use xlinkHref="#DejaVuSans-30"/>
       <use xlinkHref="#DejaVuSans-2e" x="63.623047"/>
       <use xlinkHref="#DejaVuSans-30" x="95.410156"/>
       <use xlinkHref="#DejaVuSans-34" x="159.033203"/>
      </g>
     </g>
    </g>
    <g id="xtick_5">
     <g id="line2d_5">
      <g>
       <use xlinkHref="#m1b5d35b43d" x="356.53176" y="307.584" style="stroke: #000000; stroke-width: 0.8"/>
      </g>
     </g>
     <g id="text_5">
      <!-- 0.06 -->
      <g transform="translate(345.398948 322.182437) scale(0.1 -0.1)">
       <defs>
        <path id="DejaVuSans-36" d="M 2113 2584 
Q 1688 2584 1439 2293 
Q 1191 2003 1191 1497 
Q 1191 994 1439 701 
Q 1688 409 2113 409 
Q 2538 409 2786 701 
Q 3034 994 3034 1497 
Q 3034 2003 2786 2293 
Q 2538 2584 2113 2584 
z
M 3366 4563 
L 3366 3988 
Q 3128 4100 2886 4159 
Q 2644 4219 2406 4219 
Q 1781 4219 1451 3797 
Q 1122 3375 1075 2522 
Q 1259 2794 1537 2939 
Q 1816 3084 2150 3084 
Q 2853 3084 3261 2657 
Q 3669 2231 3669 1497 
Q 3669 778 3244 343 
Q 2819 -91 2113 -91 
Q 1303 -91 875 529 
Q 447 1150 447 2328 
Q 447 3434 972 4092 
Q 1497 4750 2381 4750 
Q 2619 4750 2861 4703 
Q 3103 4656 3366 4563 
z
" transform="scale(0.015625)"/>
       </defs>
       <use xlinkHref="#DejaVuSans-30"/>
       <use xlinkHref="#DejaVuSans-2e" x="63.623047"/>
       <use xlinkHref="#DejaVuSans-30" x="95.410156"/>
       <use xlinkHref="#DejaVuSans-36" x="159.033203"/>
      </g>
     </g>
    </g>
   </g>
   <g id="matplotlib.axis_2">
    <g id="ytick_1">
     <g id="line2d_6">
      <defs>
       <path id="m20e3811913" d="M 0 0 
L -3.5 0 
" style="stroke: #000000; stroke-width: 0.8"/>
      </defs>
      <g>
       <use xlinkHref="#m20e3811913" x="57.6" y="285.613714" style="stroke: #000000; stroke-width: 0.8"/>
      </g>
     </g>
     <g id="text_6">
      <!-- 1.00 &lt; NumDealsPurchases &lt;= 2.00 -->
      <g transform="translate(-133.925 289.412933) scale(0.1 -0.1)">
       <defs>
        <path id="DejaVuSans-31" d="M 794 531 
L 1825 531 
L 1825 4091 
L 703 3866 
L 703 4441 
L 1819 4666 
L 2450 4666 
L 2450 531 
L 3481 531 
L 3481 0 
L 794 0 
L 794 531 
z
" transform="scale(0.015625)"/>
        <path id="DejaVuSans-20" transform="scale(0.015625)"/>
        <path id="DejaVuSans-3c" d="M 4684 3150 
L 1459 2003 
L 4684 863 
L 4684 294 
L 678 1747 
L 678 2266 
L 4684 3719 
L 4684 3150 
z
" transform="scale(0.015625)"/>
        <path id="DejaVuSans-4e" d="M 628 4666 
L 1478 4666 
L 3547 763 
L 3547 4666 
L 4159 4666 
L 4159 0 
L 3309 0 
L 1241 3903 
L 1241 0 
L 628 0 
L 628 4666 
z
" transform="scale(0.015625)"/>
        <path id="DejaVuSans-75" d="M 544 1381 
L 544 3500 
L 1119 3500 
L 1119 1403 
Q 1119 906 1312 657 
Q 1506 409 1894 409 
Q 2359 409 2629 706 
Q 2900 1003 2900 1516 
L 2900 3500 
L 3475 3500 
L 3475 0 
L 2900 0 
L 2900 538 
Q 2691 219 2414 64 
Q 2138 -91 1772 -91 
Q 1169 -91 856 284 
Q 544 659 544 1381 
z
M 1991 3584 
L 1991 3584 
z
" transform="scale(0.015625)"/>
        <path id="DejaVuSans-6d" d="M 3328 2828 
Q 3544 3216 3844 3400 
Q 4144 3584 4550 3584 
Q 5097 3584 5394 3201 
Q 5691 2819 5691 2113 
L 5691 0 
L 5113 0 
L 5113 2094 
Q 5113 2597 4934 2840 
Q 4756 3084 4391 3084 
Q 3944 3084 3684 2787 
Q 3425 2491 3425 1978 
L 3425 0 
L 2847 0 
L 2847 2094 
Q 2847 2600 2669 2842 
Q 2491 3084 2119 3084 
Q 1678 3084 1418 2786 
Q 1159 2488 1159 1978 
L 1159 0 
L 581 0 
L 581 3500 
L 1159 3500 
L 1159 2956 
Q 1356 3278 1631 3431 
Q 1906 3584 2284 3584 
Q 2666 3584 2933 3390 
Q 3200 3197 3328 2828 
z
" transform="scale(0.015625)"/>
        <path id="DejaVuSans-44" d="M 1259 4147 
L 1259 519 
L 2022 519 
Q 2988 519 3436 956 
Q 3884 1394 3884 2338 
Q 3884 3275 3436 3711 
Q 2988 4147 2022 4147 
L 1259 4147 
z
M 628 4666 
L 1925 4666 
Q 3281 4666 3915 4102 
Q 4550 3538 4550 2338 
Q 4550 1131 3912 565 
Q 3275 0 1925 0 
L 628 0 
L 628 4666 
z
" transform="scale(0.015625)"/>
        <path id="DejaVuSans-65" d="M 3597 1894 
L 3597 1613 
L 953 1613 
Q 991 1019 1311 708 
Q 1631 397 2203 397 
Q 2534 397 2845 478 
Q 3156 559 3463 722 
L 3463 178 
Q 3153 47 2828 -22 
Q 2503 -91 2169 -91 
Q 1331 -91 842 396 
Q 353 884 353 1716 
Q 353 2575 817 3079 
Q 1281 3584 2069 3584 
Q 2775 3584 3186 3129 
Q 3597 2675 3597 1894 
z
M 3022 2063 
Q 3016 2534 2758 2815 
Q 2500 3097 2075 3097 
Q 1594 3097 1305 2825 
Q 1016 2553 972 2059 
L 3022 2063 
z
" transform="scale(0.015625)"/>
        <path id="DejaVuSans-61" d="M 2194 1759 
Q 1497 1759 1228 1600 
Q 959 1441 959 1056 
Q 959 750 1161 570 
Q 1363 391 1709 391 
Q 2188 391 2477 730 
Q 2766 1069 2766 1631 
L 2766 1759 
L 2194 1759 
z
M 3341 1997 
L 3341 0 
L 2766 0 
L 2766 531 
Q 2569 213 2275 61 
Q 1981 -91 1556 -91 
Q 1019 -91 701 211 
Q 384 513 384 1019 
Q 384 1609 779 1909 
Q 1175 2209 1959 2209 
L 2766 2209 
L 2766 2266 
Q 2766 2663 2505 2880 
Q 2244 3097 1772 3097 
Q 1472 3097 1187 3025 
Q 903 2953 641 2809 
L 641 3341 
Q 956 3463 1253 3523 
Q 1550 3584 1831 3584 
Q 2591 3584 2966 3190 
Q 3341 2797 3341 1997 
z
" transform="scale(0.015625)"/>
        <path id="DejaVuSans-6c" d="M 603 4863 
L 1178 4863 
L 1178 0 
L 603 0 
L 603 4863 
z
" transform="scale(0.015625)"/>
        <path id="DejaVuSans-73" d="M 2834 3397 
L 2834 2853 
Q 2591 2978 2328 3040 
Q 2066 3103 1784 3103 
Q 1356 3103 1142 2972 
Q 928 2841 928 2578 
Q 928 2378 1081 2264 
Q 1234 2150 1697 2047 
L 1894 2003 
Q 2506 1872 2764 1633 
Q 3022 1394 3022 966 
Q 3022 478 2636 193 
Q 2250 -91 1575 -91 
Q 1294 -91 989 -36 
Q 684 19 347 128 
L 347 722 
Q 666 556 975 473 
Q 1284 391 1588 391 
Q 1994 391 2212 530 
Q 2431 669 2431 922 
Q 2431 1156 2273 1281 
Q 2116 1406 1581 1522 
L 1381 1569 
Q 847 1681 609 1914 
Q 372 2147 372 2553 
Q 372 3047 722 3315 
Q 1072 3584 1716 3584 
Q 2034 3584 2315 3537 
Q 2597 3491 2834 3397 
z
" transform="scale(0.015625)"/>
        <path id="DejaVuSans-50" d="M 1259 4147 
L 1259 2394 
L 2053 2394 
Q 2494 2394 2734 2622 
Q 2975 2850 2975 3272 
Q 2975 3691 2734 3919 
Q 2494 4147 2053 4147 
L 1259 4147 
z
M 628 4666 
L 2053 4666 
Q 2838 4666 3239 4311 
Q 3641 3956 3641 3272 
Q 3641 2581 3239 2228 
Q 2838 1875 2053 1875 
L 1259 1875 
L 1259 0 
L 628 0 
L 628 4666 
z
" transform="scale(0.015625)"/>
        <path id="DejaVuSans-72" d="M 2631 2963 
Q 2534 3019 2420 3045 
Q 2306 3072 2169 3072 
Q 1681 3072 1420 2755 
Q 1159 2438 1159 1844 
L 1159 0 
L 581 0 
L 581 3500 
L 1159 3500 
L 1159 2956 
Q 1341 3275 1631 3429 
Q 1922 3584 2338 3584 
Q 2397 3584 2469 3576 
Q 2541 3569 2628 3553 
L 2631 2963 
z
" transform="scale(0.015625)"/>
        <path id="DejaVuSans-63" d="M 3122 3366 
L 3122 2828 
Q 2878 2963 2633 3030 
Q 2388 3097 2138 3097 
Q 1578 3097 1268 2742 
Q 959 2388 959 1747 
Q 959 1106 1268 751 
Q 1578 397 2138 397 
Q 2388 397 2633 464 
Q 2878 531 3122 666 
L 3122 134 
Q 2881 22 2623 -34 
Q 2366 -91 2075 -91 
Q 1284 -91 818 406 
Q 353 903 353 1747 
Q 353 2603 823 3093 
Q 1294 3584 2113 3584 
Q 2378 3584 2631 3529 
Q 2884 3475 3122 3366 
z
" transform="scale(0.015625)"/>
        <path id="DejaVuSans-68" d="M 3513 2113 
L 3513 0 
L 2938 0 
L 2938 2094 
Q 2938 2591 2744 2837 
Q 2550 3084 2163 3084 
Q 1697 3084 1428 2787 
Q 1159 2491 1159 1978 
L 1159 0 
L 581 0 
L 581 4863 
L 1159 4863 
L 1159 2956 
Q 1366 3272 1645 3428 
Q 1925 3584 2291 3584 
Q 2894 3584 3203 3211 
Q 3513 2838 3513 2113 
z
" transform="scale(0.015625)"/>
        <path id="DejaVuSans-3d" d="M 678 2906 
L 4684 2906 
L 4684 2381 
L 678 2381 
L 678 2906 
z
M 678 1631 
L 4684 1631 
L 4684 1100 
L 678 1100 
L 678 1631 
z
" transform="scale(0.015625)"/>
       </defs>
       <use xlinkHref="#DejaVuSans-31"/>
       <use xlinkHref="#DejaVuSans-2e" x="63.623047"/>
       <use xlinkHref="#DejaVuSans-30" x="95.410156"/>
       <use xlinkHref="#DejaVuSans-30" x="159.033203"/>
       <use xlinkHref="#DejaVuSans-20" x="222.65625"/>
       <use xlinkHref="#DejaVuSans-3c" x="254.443359"/>
       <use xlinkHref="#DejaVuSans-20" x="338.232422"/>
       <use xlinkHref="#DejaVuSans-4e" x="370.019531"/>
       <use xlinkHref="#DejaVuSans-75" x="444.824219"/>
       <use xlinkHref="#DejaVuSans-6d" x="508.203125"/>
       <use xlinkHref="#DejaVuSans-44" x="605.615234"/>
       <use xlinkHref="#DejaVuSans-65" x="682.617188"/>
       <use xlinkHref="#DejaVuSans-61" x="744.140625"/>
       <use xlinkHref="#DejaVuSans-6c" x="805.419922"/>
       <use xlinkHref="#DejaVuSans-73" x="833.203125"/>
       <use xlinkHref="#DejaVuSans-50" x="885.302734"/>
       <use xlinkHref="#DejaVuSans-75" x="943.855469"/>
       <use xlinkHref="#DejaVuSans-72" x="1007.234375"/>
       <use xlinkHref="#DejaVuSans-63" x="1046.097656"/>
       <use xlinkHref="#DejaVuSans-68" x="1101.078125"/>
       <use xlinkHref="#DejaVuSans-61" x="1164.457031"/>
       <use xlinkHref="#DejaVuSans-73" x="1225.736328"/>
       <use xlinkHref="#DejaVuSans-65" x="1277.835938"/>
       <use xlinkHref="#DejaVuSans-73" x="1339.359375"/>
       <use xlinkHref="#DejaVuSans-20" x="1391.458984"/>
       <use xlinkHref="#DejaVuSans-3c" x="1423.246094"/>
       <use xlinkHref="#DejaVuSans-3d" x="1507.035156"/>
       <use xlinkHref="#DejaVuSans-20" x="1590.824219"/>
       <use xlinkHref="#DejaVuSans-32" x="1622.611328"/>
       <use xlinkHref="#DejaVuSans-2e" x="1686.234375"/>
       <use xlinkHref="#DejaVuSans-30" x="1718.021484"/>
       <use xlinkHref="#DejaVuSans-30" x="1781.644531"/>
      </g>
     </g>
    </g>
    <g id="ytick_2">
     <g id="line2d_7">
      <g>
       <use xlinkHref="#m20e3811913" x="57.6" y="260.928" style="stroke: #000000; stroke-width: 0.8"/>
      </g>
     </g>
     <g id="text_7">
      <!-- Married &gt; 0.00 -->
      <g transform="translate(-24.484375 264.727219) scale(0.1 -0.1)">
       <defs>
        <path id="DejaVuSans-4d" d="M 628 4666 
L 1569 4666 
L 2759 1491 
L 3956 4666 
L 4897 4666 
L 4897 0 
L 4281 0 
L 4281 4097 
L 3078 897 
L 2444 897 
L 1241 4097 
L 1241 0 
L 628 0 
L 628 4666 
z
" transform="scale(0.015625)"/>
        <path id="DejaVuSans-69" d="M 603 3500 
L 1178 3500 
L 1178 0 
L 603 0 
L 603 3500 
z
M 603 4863 
L 1178 4863 
L 1178 4134 
L 603 4134 
L 603 4863 
z
" transform="scale(0.015625)"/>
        <path id="DejaVuSans-64" d="M 2906 2969 
L 2906 4863 
L 3481 4863 
L 3481 0 
L 2906 0 
L 2906 525 
Q 2725 213 2448 61 
Q 2172 -91 1784 -91 
Q 1150 -91 751 415 
Q 353 922 353 1747 
Q 353 2572 751 3078 
Q 1150 3584 1784 3584 
Q 2172 3584 2448 3432 
Q 2725 3281 2906 2969 
z
M 947 1747 
Q 947 1113 1208 752 
Q 1469 391 1925 391 
Q 2381 391 2643 752 
Q 2906 1113 2906 1747 
Q 2906 2381 2643 2742 
Q 2381 3103 1925 3103 
Q 1469 3103 1208 2742 
Q 947 2381 947 1747 
z
" transform="scale(0.015625)"/>
        <path id="DejaVuSans-3e" d="M 678 3150 
L 678 3719 
L 4684 2266 
L 4684 1747 
L 678 294 
L 678 863 
L 3897 2003 
L 678 3150 
z
" transform="scale(0.015625)"/>
       </defs>
       <use xlinkHref="#DejaVuSans-4d"/>
       <use xlinkHref="#DejaVuSans-61" x="86.279297"/>
       <use xlinkHref="#DejaVuSans-72" x="147.558594"/>
       <use xlinkHref="#DejaVuSans-72" x="186.921875"/>
       <use xlinkHref="#DejaVuSans-69" x="228.035156"/>
       <use xlinkHref="#DejaVuSans-65" x="255.818359"/>
       <use xlinkHref="#DejaVuSans-64" x="317.341797"/>
       <use xlinkHref="#DejaVuSans-20" x="380.818359"/>
       <use xlinkHref="#DejaVuSans-3e" x="412.605469"/>
       <use xlinkHref="#DejaVuSans-20" x="496.394531"/>
       <use xlinkHref="#DejaVuSans-30" x="528.181641"/>
       <use xlinkHref="#DejaVuSans-2e" x="591.804688"/>
       <use xlinkHref="#DejaVuSans-30" x="623.591797"/>
       <use xlinkHref="#DejaVuSans-30" x="687.214844"/>
      </g>
     </g>
    </g>
    <g id="ytick_3">
     <g id="line2d_8">
      <g>
       <use xlinkHref="#m20e3811913" x="57.6" y="236.242286" style="stroke: #000000; stroke-width: 0.8"/>
      </g>
     </g>
     <g id="text_8">
      <!-- Together &gt; 0.00 -->
      <g transform="translate(-29.951563 240.041504) scale(0.1 -0.1)">
       <defs>
        <path id="DejaVuSans-54" d="M -19 4666 
L 3928 4666 
L 3928 4134 
L 2272 4134 
L 2272 0 
L 1638 0 
L 1638 4134 
L -19 4134 
L -19 4666 
z
" transform="scale(0.015625)"/>
        <path id="DejaVuSans-6f" d="M 1959 3097 
Q 1497 3097 1228 2736 
Q 959 2375 959 1747 
Q 959 1119 1226 758 
Q 1494 397 1959 397 
Q 2419 397 2687 759 
Q 2956 1122 2956 1747 
Q 2956 2369 2687 2733 
Q 2419 3097 1959 3097 
z
M 1959 3584 
Q 2709 3584 3137 3096 
Q 3566 2609 3566 1747 
Q 3566 888 3137 398 
Q 2709 -91 1959 -91 
Q 1206 -91 779 398 
Q 353 888 353 1747 
Q 353 2609 779 3096 
Q 1206 3584 1959 3584 
z
" transform="scale(0.015625)"/>
        <path id="DejaVuSans-67" d="M 2906 1791 
Q 2906 2416 2648 2759 
Q 2391 3103 1925 3103 
Q 1463 3103 1205 2759 
Q 947 2416 947 1791 
Q 947 1169 1205 825 
Q 1463 481 1925 481 
Q 2391 481 2648 825 
Q 2906 1169 2906 1791 
z
M 3481 434 
Q 3481 -459 3084 -895 
Q 2688 -1331 1869 -1331 
Q 1566 -1331 1297 -1286 
Q 1028 -1241 775 -1147 
L 775 -588 
Q 1028 -725 1275 -790 
Q 1522 -856 1778 -856 
Q 2344 -856 2625 -561 
Q 2906 -266 2906 331 
L 2906 616 
Q 2728 306 2450 153 
Q 2172 0 1784 0 
Q 1141 0 747 490 
Q 353 981 353 1791 
Q 353 2603 747 3093 
Q 1141 3584 1784 3584 
Q 2172 3584 2450 3431 
Q 2728 3278 2906 2969 
L 2906 3500 
L 3481 3500 
L 3481 434 
z
" transform="scale(0.015625)"/>
        <path id="DejaVuSans-74" d="M 1172 4494 
L 1172 3500 
L 2356 3500 
L 2356 3053 
L 1172 3053 
L 1172 1153 
Q 1172 725 1289 603 
Q 1406 481 1766 481 
L 2356 481 
L 2356 0 
L 1766 0 
Q 1100 0 847 248 
Q 594 497 594 1153 
L 594 3053 
L 172 3053 
L 172 3500 
L 594 3500 
L 594 4494 
L 1172 4494 
z
" transform="scale(0.015625)"/>
       </defs>
       <use xlinkHref="#DejaVuSans-54"/>
       <use xlinkHref="#DejaVuSans-6f" x="44.083984"/>
       <use xlinkHref="#DejaVuSans-67" x="105.265625"/>
       <use xlinkHref="#DejaVuSans-65" x="168.742188"/>
       <use xlinkHref="#DejaVuSans-74" x="230.265625"/>
       <use xlinkHref="#DejaVuSans-68" x="269.474609"/>
       <use xlinkHref="#DejaVuSans-65" x="332.853516"/>
       <use xlinkHref="#DejaVuSans-72" x="394.376953"/>
       <use xlinkHref="#DejaVuSans-20" x="435.490234"/>
       <use xlinkHref="#DejaVuSans-3e" x="467.277344"/>
       <use xlinkHref="#DejaVuSans-20" x="551.066406"/>
       <use xlinkHref="#DejaVuSans-30" x="582.853516"/>
       <use xlinkHref="#DejaVuSans-2e" x="646.476562"/>
       <use xlinkHref="#DejaVuSans-30" x="678.263672"/>
       <use xlinkHref="#DejaVuSans-30" x="741.886719"/>
      </g>
     </g>
    </g>
    <g id="ytick_4">
     <g id="line2d_9">
      <g>
       <use xlinkHref="#m20e3811913" x="57.6" y="211.556571" style="stroke: #000000; stroke-width: 0.8"/>
      </g>
     </g>
     <g id="text_9">
      <!-- 1959.00 &lt; Year_Birth &lt;= 1969.00 -->
      <g transform="translate(-120.140625 215.35579) scale(0.1 -0.1)">
       <defs>
        <path id="DejaVuSans-39" d="M 703 97 
L 703 672 
Q 941 559 1184 500 
Q 1428 441 1663 441 
Q 2288 441 2617 861 
Q 2947 1281 2994 2138 
Q 2813 1869 2534 1725 
Q 2256 1581 1919 1581 
Q 1219 1581 811 2004 
Q 403 2428 403 3163 
Q 403 3881 828 4315 
Q 1253 4750 1959 4750 
Q 2769 4750 3195 4129 
Q 3622 3509 3622 2328 
Q 3622 1225 3098 567 
Q 2575 -91 1691 -91 
Q 1453 -91 1209 -44 
Q 966 3 703 97 
z
M 1959 2075 
Q 2384 2075 2632 2365 
Q 2881 2656 2881 3163 
Q 2881 3666 2632 3958 
Q 2384 4250 1959 4250 
Q 1534 4250 1286 3958 
Q 1038 3666 1038 3163 
Q 1038 2656 1286 2365 
Q 1534 2075 1959 2075 
z
" transform="scale(0.015625)"/>
        <path id="DejaVuSans-35" d="M 691 4666 
L 3169 4666 
L 3169 4134 
L 1269 4134 
L 1269 2991 
Q 1406 3038 1543 3061 
Q 1681 3084 1819 3084 
Q 2600 3084 3056 2656 
Q 3513 2228 3513 1497 
Q 3513 744 3044 326 
Q 2575 -91 1722 -91 
Q 1428 -91 1123 -41 
Q 819 9 494 109 
L 494 744 
Q 775 591 1075 516 
Q 1375 441 1709 441 
Q 2250 441 2565 725 
Q 2881 1009 2881 1497 
Q 2881 1984 2565 2268 
Q 2250 2553 1709 2553 
Q 1456 2553 1204 2497 
Q 953 2441 691 2322 
L 691 4666 
z
" transform="scale(0.015625)"/>
        <path id="DejaVuSans-59" d="M -13 4666 
L 666 4666 
L 1959 2747 
L 3244 4666 
L 3922 4666 
L 2272 2222 
L 2272 0 
L 1638 0 
L 1638 2222 
L -13 4666 
z
" transform="scale(0.015625)"/>
        <path id="DejaVuSans-5f" d="M 3263 -1063 
L 3263 -1509 
L -63 -1509 
L -63 -1063 
L 3263 -1063 
z
" transform="scale(0.015625)"/>
        <path id="DejaVuSans-42" d="M 1259 2228 
L 1259 519 
L 2272 519 
Q 2781 519 3026 730 
Q 3272 941 3272 1375 
Q 3272 1813 3026 2020 
Q 2781 2228 2272 2228 
L 1259 2228 
z
M 1259 4147 
L 1259 2741 
L 2194 2741 
Q 2656 2741 2882 2914 
Q 3109 3088 3109 3444 
Q 3109 3797 2882 3972 
Q 2656 4147 2194 4147 
L 1259 4147 
z
M 628 4666 
L 2241 4666 
Q 2963 4666 3353 4366 
Q 3744 4066 3744 3513 
Q 3744 3084 3544 2831 
Q 3344 2578 2956 2516 
Q 3422 2416 3680 2098 
Q 3938 1781 3938 1306 
Q 3938 681 3513 340 
Q 3088 0 2303 0 
L 628 0 
L 628 4666 
z
" transform="scale(0.015625)"/>
       </defs>
       <use xlinkHref="#DejaVuSans-31"/>
       <use xlinkHref="#DejaVuSans-39" x="63.623047"/>
       <use xlinkHref="#DejaVuSans-35" x="127.246094"/>
       <use xlinkHref="#DejaVuSans-39" x="190.869141"/>
       <use xlinkHref="#DejaVuSans-2e" x="254.492188"/>
       <use xlinkHref="#DejaVuSans-30" x="286.279297"/>
       <use xlinkHref="#DejaVuSans-30" x="349.902344"/>
       <use xlinkHref="#DejaVuSans-20" x="413.525391"/>
       <use xlinkHref="#DejaVuSans-3c" x="445.3125"/>
       <use xlinkHref="#DejaVuSans-20" x="529.101562"/>
       <use xlinkHref="#DejaVuSans-59" x="560.888672"/>
       <use xlinkHref="#DejaVuSans-65" x="608.722656"/>
       <use xlinkHref="#DejaVuSans-61" x="670.246094"/>
       <use xlinkHref="#DejaVuSans-72" x="731.525391"/>
       <use xlinkHref="#DejaVuSans-5f" x="772.638672"/>
       <use xlinkHref="#DejaVuSans-42" x="822.638672"/>
       <use xlinkHref="#DejaVuSans-69" x="891.242188"/>
       <use xlinkHref="#DejaVuSans-72" x="919.025391"/>
       <use xlinkHref="#DejaVuSans-74" x="960.138672"/>
       <use xlinkHref="#DejaVuSans-68" x="999.347656"/>
       <use xlinkHref="#DejaVuSans-20" x="1062.726562"/>
       <use xlinkHref="#DejaVuSans-3c" x="1094.513672"/>
       <use xlinkHref="#DejaVuSans-3d" x="1178.302734"/>
       <use xlinkHref="#DejaVuSans-20" x="1262.091797"/>
       <use xlinkHref="#DejaVuSans-31" x="1293.878906"/>
       <use xlinkHref="#DejaVuSans-39" x="1357.501953"/>
       <use xlinkHref="#DejaVuSans-36" x="1421.125"/>
       <use xlinkHref="#DejaVuSans-39" x="1484.748047"/>
       <use xlinkHref="#DejaVuSans-2e" x="1548.371094"/>
       <use xlinkHref="#DejaVuSans-30" x="1580.158203"/>
       <use xlinkHref="#DejaVuSans-30" x="1643.78125"/>
      </g>
     </g>
    </g>
    <g id="ytick_5">
     <g id="line2d_10">
      <g>
       <use xlinkHref="#m20e3811913" x="57.6" y="186.870857" style="stroke: #000000; stroke-width: 0.8"/>
      </g>
     </g>
     <g id="text_10">
      <!-- Divorced &gt; 0.00 -->
      <g transform="translate(-30.803125 190.670076) scale(0.1 -0.1)">
       <defs>
        <path id="DejaVuSans-76" d="M 191 3500 
L 800 3500 
L 1894 563 
L 2988 3500 
L 3597 3500 
L 2284 0 
L 1503 0 
L 191 3500 
z
" transform="scale(0.015625)"/>
       </defs>
       <use xlinkHref="#DejaVuSans-44"/>
       <use xlinkHref="#DejaVuSans-69" x="77.001953"/>
       <use xlinkHref="#DejaVuSans-76" x="104.785156"/>
       <use xlinkHref="#DejaVuSans-6f" x="163.964844"/>
       <use xlinkHref="#DejaVuSans-72" x="225.146484"/>
       <use xlinkHref="#DejaVuSans-63" x="264.009766"/>
       <use xlinkHref="#DejaVuSans-65" x="318.990234"/>
       <use xlinkHref="#DejaVuSans-64" x="380.513672"/>
       <use xlinkHref="#DejaVuSans-20" x="443.990234"/>
       <use xlinkHref="#DejaVuSans-3e" x="475.777344"/>
       <use xlinkHref="#DejaVuSans-20" x="559.566406"/>
       <use xlinkHref="#DejaVuSans-30" x="591.353516"/>
       <use xlinkHref="#DejaVuSans-2e" x="654.976562"/>
       <use xlinkHref="#DejaVuSans-30" x="686.763672"/>
       <use xlinkHref="#DejaVuSans-30" x="750.386719"/>
      </g>
     </g>
    </g>
    <g id="ytick_6">
     <g id="line2d_11">
      <g>
       <use xlinkHref="#m20e3811913" x="57.6" y="162.185143" style="stroke: #000000; stroke-width: 0.8"/>
      </g>
     </g>
     <g id="text_11">
      <!-- 251.40 &lt; MntWines &lt;= 512.77 -->
      <g transform="translate(-106.259375 165.984362) scale(0.1 -0.1)">
       <defs>
        <path id="DejaVuSans-6e" d="M 3513 2113 
L 3513 0 
L 2938 0 
L 2938 2094 
Q 2938 2591 2744 2837 
Q 2550 3084 2163 3084 
Q 1697 3084 1428 2787 
Q 1159 2491 1159 1978 
L 1159 0 
L 581 0 
L 581 3500 
L 1159 3500 
L 1159 2956 
Q 1366 3272 1645 3428 
Q 1925 3584 2291 3584 
Q 2894 3584 3203 3211 
Q 3513 2838 3513 2113 
z
" transform="scale(0.015625)"/>
        <path id="DejaVuSans-57" d="M 213 4666 
L 850 4666 
L 1831 722 
L 2809 4666 
L 3519 4666 
L 4500 722 
L 5478 4666 
L 6119 4666 
L 4947 0 
L 4153 0 
L 3169 4050 
L 2175 0 
L 1381 0 
L 213 4666 
z
" transform="scale(0.015625)"/>
        <path id="DejaVuSans-37" d="M 525 4666 
L 3525 4666 
L 3525 4397 
L 1831 0 
L 1172 0 
L 2766 4134 
L 525 4134 
L 525 4666 
z
" transform="scale(0.015625)"/>
       </defs>
       <use xlinkHref="#DejaVuSans-32"/>
       <use xlinkHref="#DejaVuSans-35" x="63.623047"/>
       <use xlinkHref="#DejaVuSans-31" x="127.246094"/>
       <use xlinkHref="#DejaVuSans-2e" x="190.869141"/>
       <use xlinkHref="#DejaVuSans-34" x="222.65625"/>
       <use xlinkHref="#DejaVuSans-30" x="286.279297"/>
       <use xlinkHref="#DejaVuSans-20" x="349.902344"/>
       <use xlinkHref="#DejaVuSans-3c" x="381.689453"/>
       <use xlinkHref="#DejaVuSans-20" x="465.478516"/>
       <use xlinkHref="#DejaVuSans-4d" x="497.265625"/>
       <use xlinkHref="#DejaVuSans-6e" x="583.544922"/>
       <use xlinkHref="#DejaVuSans-74" x="646.923828"/>
       <use xlinkHref="#DejaVuSans-57" x="686.132812"/>
       <use xlinkHref="#DejaVuSans-69" x="782.759766"/>
       <use xlinkHref="#DejaVuSans-6e" x="810.542969"/>
       <use xlinkHref="#DejaVuSans-65" x="873.921875"/>
       <use xlinkHref="#DejaVuSans-73" x="935.445312"/>
       <use xlinkHref="#DejaVuSans-20" x="987.544922"/>
       <use xlinkHref="#DejaVuSans-3c" x="1019.332031"/>
       <use xlinkHref="#DejaVuSans-3d" x="1103.121094"/>
       <use xlinkHref="#DejaVuSans-20" x="1186.910156"/>
       <use xlinkHref="#DejaVuSans-35" x="1218.697266"/>
       <use xlinkHref="#DejaVuSans-31" x="1282.320312"/>
       <use xlinkHref="#DejaVuSans-32" x="1345.943359"/>
       <use xlinkHref="#DejaVuSans-2e" x="1409.566406"/>
       <use xlinkHref="#DejaVuSans-37" x="1441.353516"/>
       <use xlinkHref="#DejaVuSans-37" x="1504.976562"/>
      </g>
     </g>
    </g>
    <g id="ytick_7">
     <g id="line2d_12">
      <g>
       <use xlinkHref="#m20e3811913" x="57.6" y="137.499429" style="stroke: #000000; stroke-width: 0.8"/>
      </g>
     </g>
     <g id="text_12">
      <!-- Absurd &lt;= 0.00 -->
      <g transform="translate(-29.801563 141.298647) scale(0.1 -0.1)">
       <defs>
        <path id="DejaVuSans-41" d="M 2188 4044 
L 1331 1722 
L 3047 1722 
L 2188 4044 
z
M 1831 4666 
L 2547 4666 
L 4325 0 
L 3669 0 
L 3244 1197 
L 1141 1197 
L 716 0 
L 50 0 
L 1831 4666 
z
" transform="scale(0.015625)"/>
        <path id="DejaVuSans-62" d="M 3116 1747 
Q 3116 2381 2855 2742 
Q 2594 3103 2138 3103 
Q 1681 3103 1420 2742 
Q 1159 2381 1159 1747 
Q 1159 1113 1420 752 
Q 1681 391 2138 391 
Q 2594 391 2855 752 
Q 3116 1113 3116 1747 
z
M 1159 2969 
Q 1341 3281 1617 3432 
Q 1894 3584 2278 3584 
Q 2916 3584 3314 3078 
Q 3713 2572 3713 1747 
Q 3713 922 3314 415 
Q 2916 -91 2278 -91 
Q 1894 -91 1617 61 
Q 1341 213 1159 525 
L 1159 0 
L 581 0 
L 581 4863 
L 1159 4863 
L 1159 2969 
z
" transform="scale(0.015625)"/>
       </defs>
       <use xlinkHref="#DejaVuSans-41"/>
       <use xlinkHref="#DejaVuSans-62" x="68.408203"/>
       <use xlinkHref="#DejaVuSans-73" x="131.884766"/>
       <use xlinkHref="#DejaVuSans-75" x="183.984375"/>
       <use xlinkHref="#DejaVuSans-72" x="247.363281"/>
       <use xlinkHref="#DejaVuSans-64" x="286.726562"/>
       <use xlinkHref="#DejaVuSans-20" x="350.203125"/>
       <use xlinkHref="#DejaVuSans-3c" x="381.990234"/>
       <use xlinkHref="#DejaVuSans-3d" x="465.779297"/>
       <use xlinkHref="#DejaVuSans-20" x="549.568359"/>
       <use xlinkHref="#DejaVuSans-30" x="581.355469"/>
       <use xlinkHref="#DejaVuSans-2e" x="644.978516"/>
       <use xlinkHref="#DejaVuSans-30" x="676.765625"/>
       <use xlinkHref="#DejaVuSans-30" x="740.388672"/>
      </g>
     </g>
    </g>
    <g id="ytick_8">
     <g id="line2d_13">
      <g>
       <use xlinkHref="#m20e3811913" x="57.6" y="112.813714" style="stroke: #000000; stroke-width: 0.8"/>
      </g>
     </g>
     <g id="text_13">
      <!-- Complain &gt; 0.00 -->
      <g transform="translate(-33.614063 116.612933) scale(0.1 -0.1)">
       <defs>
        <path id="DejaVuSans-43" d="M 4122 4306 
L 4122 3641 
Q 3803 3938 3442 4084 
Q 3081 4231 2675 4231 
Q 1875 4231 1450 3742 
Q 1025 3253 1025 2328 
Q 1025 1406 1450 917 
Q 1875 428 2675 428 
Q 3081 428 3442 575 
Q 3803 722 4122 1019 
L 4122 359 
Q 3791 134 3420 21 
Q 3050 -91 2638 -91 
Q 1578 -91 968 557 
Q 359 1206 359 2328 
Q 359 3453 968 4101 
Q 1578 4750 2638 4750 
Q 3056 4750 3426 4639 
Q 3797 4528 4122 4306 
z
" transform="scale(0.015625)"/>
        <path id="DejaVuSans-70" d="M 1159 525 
L 1159 -1331 
L 581 -1331 
L 581 3500 
L 1159 3500 
L 1159 2969 
Q 1341 3281 1617 3432 
Q 1894 3584 2278 3584 
Q 2916 3584 3314 3078 
Q 3713 2572 3713 1747 
Q 3713 922 3314 415 
Q 2916 -91 2278 -91 
Q 1894 -91 1617 61 
Q 1341 213 1159 525 
z
M 3116 1747 
Q 3116 2381 2855 2742 
Q 2594 3103 2138 3103 
Q 1681 3103 1420 2742 
Q 1159 2381 1159 1747 
Q 1159 1113 1420 752 
Q 1681 391 2138 391 
Q 2594 391 2855 752 
Q 3116 1113 3116 1747 
z
" transform="scale(0.015625)"/>
       </defs>
       <use xlinkHref="#DejaVuSans-43"/>
       <use xlinkHref="#DejaVuSans-6f" x="69.824219"/>
       <use xlinkHref="#DejaVuSans-6d" x="131.005859"/>
       <use xlinkHref="#DejaVuSans-70" x="228.417969"/>
       <use xlinkHref="#DejaVuSans-6c" x="291.894531"/>
       <use xlinkHref="#DejaVuSans-61" x="319.677734"/>
       <use xlinkHref="#DejaVuSans-69" x="380.957031"/>
       <use xlinkHref="#DejaVuSans-6e" x="408.740234"/>
       <use xlinkHref="#DejaVuSans-20" x="472.119141"/>
       <use xlinkHref="#DejaVuSans-3e" x="503.90625"/>
       <use xlinkHref="#DejaVuSans-20" x="587.695312"/>
       <use xlinkHref="#DejaVuSans-30" x="619.482422"/>
       <use xlinkHref="#DejaVuSans-2e" x="683.105469"/>
       <use xlinkHref="#DejaVuSans-30" x="714.892578"/>
       <use xlinkHref="#DejaVuSans-30" x="778.515625"/>
      </g>
     </g>
    </g>
    <g id="ytick_9">
     <g id="line2d_14">
      <g>
       <use xlinkHref="#m20e3811913" x="57.6" y="88.128" style="stroke: #000000; stroke-width: 0.8"/>
      </g>
     </g>
     <g id="text_14">
      <!-- 54428.45 &lt; Income &lt;= 75728.97 -->
      <g transform="translate(-119.48125 91.927219) scale(0.1 -0.1)">
       <defs>
        <path id="DejaVuSans-38" d="M 2034 2216 
Q 1584 2216 1326 1975 
Q 1069 1734 1069 1313 
Q 1069 891 1326 650 
Q 1584 409 2034 409 
Q 2484 409 2743 651 
Q 3003 894 3003 1313 
Q 3003 1734 2745 1975 
Q 2488 2216 2034 2216 
z
M 1403 2484 
Q 997 2584 770 2862 
Q 544 3141 544 3541 
Q 544 4100 942 4425 
Q 1341 4750 2034 4750 
Q 2731 4750 3128 4425 
Q 3525 4100 3525 3541 
Q 3525 3141 3298 2862 
Q 3072 2584 2669 2484 
Q 3125 2378 3379 2068 
Q 3634 1759 3634 1313 
Q 3634 634 3220 271 
Q 2806 -91 2034 -91 
Q 1263 -91 848 271 
Q 434 634 434 1313 
Q 434 1759 690 2068 
Q 947 2378 1403 2484 
z
M 1172 3481 
Q 1172 3119 1398 2916 
Q 1625 2713 2034 2713 
Q 2441 2713 2670 2916 
Q 2900 3119 2900 3481 
Q 2900 3844 2670 4047 
Q 2441 4250 2034 4250 
Q 1625 4250 1398 4047 
Q 1172 3844 1172 3481 
z
" transform="scale(0.015625)"/>
        <path id="DejaVuSans-49" d="M 628 4666 
L 1259 4666 
L 1259 0 
L 628 0 
L 628 4666 
z
" transform="scale(0.015625)"/>
       </defs>
       <use xlinkHref="#DejaVuSans-35"/>
       <use xlinkHref="#DejaVuSans-34" x="63.623047"/>
       <use xlinkHref="#DejaVuSans-34" x="127.246094"/>
       <use xlinkHref="#DejaVuSans-32" x="190.869141"/>
       <use xlinkHref="#DejaVuSans-38" x="254.492188"/>
       <use xlinkHref="#DejaVuSans-2e" x="318.115234"/>
       <use xlinkHref="#DejaVuSans-34" x="349.902344"/>
       <use xlinkHref="#DejaVuSans-35" x="413.525391"/>
       <use xlinkHref="#DejaVuSans-20" x="477.148438"/>
       <use xlinkHref="#DejaVuSans-3c" x="508.935547"/>
       <use xlinkHref="#DejaVuSans-20" x="592.724609"/>
       <use xlinkHref="#DejaVuSans-49" x="624.511719"/>
       <use xlinkHref="#DejaVuSans-6e" x="654.003906"/>
       <use xlinkHref="#DejaVuSans-63" x="717.382812"/>
       <use xlinkHref="#DejaVuSans-6f" x="772.363281"/>
       <use xlinkHref="#DejaVuSans-6d" x="833.544922"/>
       <use xlinkHref="#DejaVuSans-65" x="930.957031"/>
       <use xlinkHref="#DejaVuSans-20" x="992.480469"/>
       <use xlinkHref="#DejaVuSans-3c" x="1024.267578"/>
       <use xlinkHref="#DejaVuSans-3d" x="1108.056641"/>
       <use xlinkHref="#DejaVuSans-20" x="1191.845703"/>
       <use xlinkHref="#DejaVuSans-37" x="1223.632812"/>
       <use xlinkHref="#DejaVuSans-35" x="1287.255859"/>
       <use xlinkHref="#DejaVuSans-37" x="1350.878906"/>
       <use xlinkHref="#DejaVuSans-32" x="1414.501953"/>
       <use xlinkHref="#DejaVuSans-38" x="1478.125"/>
       <use xlinkHref="#DejaVuSans-2e" x="1541.748047"/>
       <use xlinkHref="#DejaVuSans-39" x="1573.535156"/>
       <use xlinkHref="#DejaVuSans-37" x="1637.158203"/>
      </g>
     </g>
    </g>
    <g id="ytick_10">
     <g id="line2d_15">
      <g>
       <use xlinkHref="#m20e3811913" x="57.6" y="63.442286" style="stroke: #000000; stroke-width: 0.8"/>
      </g>
     </g>
     <g id="text_15">
      <!-- Alone &gt; 0.00 -->
      <g transform="translate(-14.629687 67.241504) scale(0.1 -0.1)">
       <use xlinkHref="#DejaVuSans-41"/>
       <use xlinkHref="#DejaVuSans-6c" x="68.408203"/>
       <use xlinkHref="#DejaVuSans-6f" x="96.191406"/>
       <use xlinkHref="#DejaVuSans-6e" x="157.373047"/>
       <use xlinkHref="#DejaVuSans-65" x="220.751953"/>
       <use xlinkHref="#DejaVuSans-20" x="282.275391"/>
       <use xlinkHref="#DejaVuSans-3e" x="314.0625"/>
       <use xlinkHref="#DejaVuSans-20" x="397.851562"/>
       <use xlinkHref="#DejaVuSans-30" x="429.638672"/>
       <use xlinkHref="#DejaVuSans-2e" x="493.261719"/>
       <use xlinkHref="#DejaVuSans-30" x="525.048828"/>
       <use xlinkHref="#DejaVuSans-30" x="588.671875"/>
      </g>
     </g>
    </g>
   </g>
   <g id="patch_13">
    <path d="M 57.6 307.584 
L 57.6 41.472 
" style="fill: none; stroke: #000000; stroke-width: 0.8; stroke-linejoin: miter; stroke-linecap: square"/>
   </g>
   <g id="patch_14">
    <path d="M 414.72 307.584 
L 414.72 41.472 
" style="fill: none; stroke: #000000; stroke-width: 0.8; stroke-linejoin: miter; stroke-linecap: square"/>
   </g>
   <g id="patch_15">
    <path d="M 57.6 307.584 
L 414.72 307.584 
" style="fill: none; stroke: #000000; stroke-width: 0.8; stroke-linejoin: miter; stroke-linecap: square"/>
   </g>
   <g id="patch_16">
    <path d="M 57.6 41.472 
L 414.72 41.472 
" style="fill: none; stroke: #000000; stroke-width: 0.8; stroke-linejoin: miter; stroke-linecap: square"/>
   </g>
   <g id="text_16">
    <!-- LIME Values -->
    <g transform="translate(200.56875 35.472) scale(0.12 -0.12)">
     <defs>
      <path id="DejaVuSans-4c" d="M 628 4666 
L 1259 4666 
L 1259 531 
L 3531 531 
L 3531 0 
L 628 0 
L 628 4666 
z
" transform="scale(0.015625)"/>
      <path id="DejaVuSans-45" d="M 628 4666 
L 3578 4666 
L 3578 4134 
L 1259 4134 
L 1259 2753 
L 3481 2753 
L 3481 2222 
L 1259 2222 
L 1259 531 
L 3634 531 
L 3634 0 
L 628 0 
L 628 4666 
z
" transform="scale(0.015625)"/>
      <path id="DejaVuSans-56" d="M 1831 0 
L 50 4666 
L 709 4666 
L 2188 738 
L 3669 4666 
L 4325 4666 
L 2547 0 
L 1831 0 
z
" transform="scale(0.015625)"/>
     </defs>
     <use xlinkHref="#DejaVuSans-4c"/>
     <use xlinkHref="#DejaVuSans-49" x="55.712891"/>
     <use xlinkHref="#DejaVuSans-4d" x="85.205078"/>
     <use xlinkHref="#DejaVuSans-45" x="171.484375"/>
     <use xlinkHref="#DejaVuSans-20" x="234.667969"/>
     <use xlinkHref="#DejaVuSans-56" x="266.455078"/>
     <use xlinkHref="#DejaVuSans-61" x="327.113281"/>
     <use xlinkHref="#DejaVuSans-6c" x="388.392578"/>
     <use xlinkHref="#DejaVuSans-75" x="416.175781"/>
     <use xlinkHref="#DejaVuSans-65" x="479.554688"/>
     <use xlinkHref="#DejaVuSans-73" x="541.078125"/>
    </g>
   </g>
  </g>
 </g>
 <defs>
  <clipPath id="p25d80fe3b6">
   <rect x="57.6" y="41.472" width="357.12" height="266.112"/>
  </clipPath>
 </defs>
</svg>
