<?xml version="1.0" encoding="UTF-8"?>
<!DOCTYPE svg  PUBLIC '-//W3C//DTD SVG 1.1//EN'  'http://www.w3.org/Graphics/SVG/1.1/DTD/svg11.dtd'>
<svg width="576pt" height="468pt" version="1.1" viewBox="0 0 576 468" xmlns="http://www.w3.org/2000/svg" xmlnsXlink="http://www.w3.org/1999/xlink">
<metadata>
<rdfRDF xmlnsCc="http://creativecommons.org/ns#" xmlnsDc="http://purl.org/dc/elements/1.1/" xmlnsRdf="http://www.w3.org/1999/02/22-rdf-syntax-ns#">
<ccWork>
<dcType rdfResource="http://purl.org/dc/dcmitype/StillImage"/>
<dcDate>2023-07-12T14:49:27.549432</dcDate>
<dcFormat>image/svg+xml</dcFormat>
<dcCreator>
<ccAgent>
<dcTitle>Matplotlib v3.7.1, https://matplotlib.org/</dcTitle>
</ccAgent>
</dcCreator>
</ccWork>
</rdfRDF>
</metadata>
<defs>
<style type="text/css">*{stroke-linejoin: round; stroke-linecap: butt}</style>
</defs>
<path d="m0 468h576v-468h-576z" fill="#fff"/>
<path d="m72 416.52h446.4v-360.36h-446.4z" fill="#fff"/>
<path d="m72 388.32h446.4" clip-path="url(#c)" fill="none" stroke="#888" stroke-dasharray="0.5,2.5" stroke-width=".5"/>
<path d="m72 354.55h446.4" clip-path="url(#c)" fill="none" stroke="#888" stroke-dasharray="0.5,2.5" stroke-width=".5"/>
<path d="m72 320.77h446.4" clip-path="url(#c)" fill="none" stroke="#888" stroke-dasharray="0.5,2.5" stroke-width=".5"/>
<path d="m72 287h446.4" clip-path="url(#c)" fill="none" stroke="#888" stroke-dasharray="0.5,2.5" stroke-width=".5"/>
<path d="m72 253.23h446.4" clip-path="url(#c)" fill="none" stroke="#888" stroke-dasharray="0.5,2.5" stroke-width=".5"/>
<path d="m72 219.45h446.4" clip-path="url(#c)" fill="none" stroke="#888" stroke-dasharray="0.5,2.5" stroke-width=".5"/>
<path d="m72 185.68h446.4" clip-path="url(#c)" fill="none" stroke="#888" stroke-dasharray="0.5,2.5" stroke-width=".5"/>
<path d="m72 151.91h446.4" clip-path="url(#c)" fill="none" stroke="#888" stroke-dasharray="0.5,2.5" stroke-width=".5"/>
<path d="m72 118.13h446.4" clip-path="url(#c)" fill="none" stroke="#888" stroke-dasharray="0.5,2.5" stroke-width=".5"/>
<path d="m72 84.361h446.4" clip-path="url(#c)" fill="none" stroke="#888" stroke-dasharray="0.5,2.5" stroke-width=".5"/>
<path d="m72 96.181h192.78v-23.641h-192.78z" clip-path="url(#c)" fill="#ff0051" stroke="#fff" stroke-opacity=".8"/>
<path d="m72 129.95h187.28v-23.641h-187.28z" clip-path="url(#c)" fill="#ff0051" stroke="#fff" stroke-opacity=".8"/>
<path d="m72 163.73h90.915v-23.641h-90.915z" clip-path="url(#c)" fill="#ff0051" stroke="#fff" stroke-opacity=".8"/>
<path d="m72 197.5h87.598v-23.641h-87.598z" clip-path="url(#c)" fill="#ff0051" stroke="#fff" stroke-opacity=".8"/>
<path d="m72 231.27h81.458v-23.641h-81.458z" clip-path="url(#c)" fill="#ff0051" stroke="#fff" stroke-opacity=".8"/>
<path d="m72 265.05h76.327v-23.641h-76.327z" clip-path="url(#c)" fill="#ff0051" stroke="#fff" stroke-opacity=".8"/>
<path d="m72 298.82h70.06v-23.641h-70.06z" clip-path="url(#c)" fill="#ff0051" stroke="#fff" stroke-opacity=".8"/>
<path d="m72 332.59h65.79v-23.641h-65.79z" clip-path="url(#c)" fill="#ff0051" stroke="#fff" stroke-opacity=".8"/>
<path d="m72 366.37h59.302v-23.641h-59.302z" clip-path="url(#c)" fill="#ff0051" stroke="#fff" stroke-opacity=".8"/>
<path d="m72 400.14h404.9v-23.641h-404.9z" clip-path="url(#c)" fill="#ff0051" stroke="#fff" stroke-opacity=".8"/>
<defs>
<path id="t" d="m0 0v3.5" stroke="#000" stroke-width=".8"/>
</defs>
<use x="72" y="416.52" stroke="#000000" stroke-width=".8" xlinkHref="#t"/>
<g transform="translate(59.754 431.88) scale(.11 -.11)">
<defs>
<path id="a" transform="scale(.015625)" d="m2034 4250q-487 0-733-480-245-479-245-1442 0-959 245-1439 246-480 733-480 491 0 736 480 246 480 246 1439 0 963-246 1442-245 480-736 480zm0 500q785 0 1199-621 414-620 414-1801 0-1178-414-1799-414-620-1199-620-784 0-1198 620-414 621-414 1799 0 1181 414 1801 414 621 1198 621z"/>
<path id="i" transform="scale(.015625)" d="m684 794h660v-794h-660v794z"/>
</defs>
<use xlinkHref="#a"/>
<use x="63.623047" xlinkHref="#i"/>
<use x="95.410156" xlinkHref="#a"/>
<use x="159.033203" xlinkHref="#a"/>
</g>
<use x="142.177726" y="416.52" stroke="#000000" stroke-width=".8" xlinkHref="#t"/>
<g transform="translate(129.93 431.88) scale(.11 -.11)">
<defs>
<path id="r" transform="scale(.015625)" d="m1228 531h2203v-531h-2962v531q359 372 979 998 621 627 780 809 303 340 423 576 121 236 121 464 0 372-261 606-261 235-680 235-297 0-627-103-329-103-704-313v638q381 153 712 231 332 78 607 78 725 0 1156-363 431-362 431-968 0-288-108-546-107-257-392-607-78-91-497-524-418-433-1181-1211z"/>
</defs>
<use xlinkHref="#a"/>
<use x="63.623047" xlinkHref="#i"/>
<use x="95.410156" xlinkHref="#a"/>
<use x="159.033203" xlinkHref="#r"/>
</g>
<use x="212.355451" y="416.52" stroke="#000000" stroke-width=".8" xlinkHref="#t"/>
<g transform="translate(200.11 431.88) scale(.11 -.11)">
<defs>
<path id="ap" transform="scale(.015625)" d="m2419 4116-1594-2491h1594v2491zm-166 550h794v-3041h666v-525h-666v-1100h-628v1100h-2106v609l1940 2957z"/>
</defs>
<use xlinkHref="#a"/>
<use x="63.623047" xlinkHref="#i"/>
<use x="95.410156" xlinkHref="#a"/>
<use x="159.033203" xlinkHref="#ap"/>
</g>
<use x="282.533177" y="416.52" stroke="#000000" stroke-width=".8" xlinkHref="#t"/>
<g transform="translate(270.29 431.88) scale(.11 -.11)">
<defs>
<path id="ao" transform="scale(.015625)" d="m2113 2584q-425 0-674-291-248-290-248-796 0-503 248-796 249-292 674-292t673 292q248 293 248 796 0 506-248 796-248 291-673 291zm1253 1979v-575q-238 112-480 171-242 60-480 60-625 0-955-422-329-422-376-1275 184 272 462 417 279 145 613 145 703 0 1111-427 408-426 408-1160 0-719-425-1154-425-434-1131-434-810 0-1238 620-428 621-428 1799 0 1106 525 1764t1409 658q238 0 480-47t505-140z"/>
</defs>
<use xlinkHref="#a"/>
<use x="63.623047" xlinkHref="#i"/>
<use x="95.410156" xlinkHref="#a"/>
<use x="159.033203" xlinkHref="#ao"/>
</g>
<use x="352.710903" y="416.52" stroke="#000000" stroke-width=".8" xlinkHref="#t"/>
<g transform="translate(340.46 431.88) scale(.11 -.11)">
<defs>
<path id="aa" transform="scale(.015625)" d="m2034 2216q-450 0-708-241-257-241-257-662 0-422 257-663 258-241 708-241t709 242q260 243 260 662 0 421-258 662-257 241-711 241zm-631 268q-406 100-633 378-226 279-226 679 0 559 398 884 399 325 1092 325 697 0 1094-325t397-884q0-400-227-679-226-278-629-378 456-106 710-416 255-309 255-755 0-679-414-1042-414-362-1186-362-771 0-1186 362-414 363-414 1042 0 446 256 755 257 310 713 416zm-231 997q0-362 226-565 227-203 636-203 407 0 636 203 230 203 230 565 0 363-230 566-229 203-636 203-409 0-636-203-226-203-226-566z"/>
</defs>
<use xlinkHref="#a"/>
<use x="63.623047" xlinkHref="#i"/>
<use x="95.410156" xlinkHref="#a"/>
<use x="159.033203" xlinkHref="#aa"/>
</g>
<use x="422.888629" y="416.52" stroke="#000000" stroke-width=".8" xlinkHref="#t"/>
<g transform="translate(410.64 431.88) scale(.11 -.11)">
<defs>
<path id="x" transform="scale(.015625)" d="m794 531h1031v3560l-1122-225v575l1116 225h631v-4135h1031v-531h-2687v531z"/>
</defs>
<use xlinkHref="#a"/>
<use x="63.623047" xlinkHref="#i"/>
<use x="95.410156" xlinkHref="#x"/>
<use x="159.033203" xlinkHref="#a"/>
</g>
<use x="493.066354" y="416.52" stroke="#000000" stroke-width=".8" xlinkHref="#t"/>
<g transform="translate(480.82 431.88) scale(.11 -.11)">
<use xlinkHref="#a"/>
<use x="63.623047" xlinkHref="#i"/>
<use x="95.410156" xlinkHref="#x"/>
<use x="159.033203" xlinkHref="#r"/>
</g>
<g transform="translate(230.11 448.1) scale(.13 -.13)">
<defs>
<path id="l" transform="scale(.015625)" d="m3328 2828q216 388 516 572t706 184q547 0 844-383 297-382 297-1088v-2113h-578v2094q0 503-179 746-178 244-543 244-447 0-707-297-259-296-259-809v-1978h-578v2094q0 506-178 748t-550 242q-441 0-701-298-259-298-259-808v-1978h-578v3500h578v-544q197 322 472 475t653 153q382 0 649-194 267-193 395-562z"/>
<path id="b" transform="scale(.015625)" d="m3597 1894v-281h-2644q38-594 358-905t892-311q331 0 642 81t618 244v-544q-310-131-635-200t-659-69q-838 0-1327 487-489 488-489 1320 0 859 464 1363 464 505 1252 505 706 0 1117-455 411-454 411-1235zm-575 169q-6 471-264 752-258 282-683 282-481 0-770-272t-333-766l2050 4z"/>
<path id="h" transform="scale(.015625)" d="m2194 1759q-697 0-966-159t-269-544q0-306 202-486 202-179 548-179 479 0 768 339t289 901v128h-572zm1147 238v-1997h-575v531q-197-318-491-470t-719-152q-537 0-855 302-317 302-317 808 0 590 395 890 396 300 1180 300h807v57q0 397-261 614t-733 217q-300 0-585-72-284-72-546-216v532q315 122 612 182 297 61 578 61 760 0 1135-394 375-393 375-1193z"/>
<path id="k" transform="scale(.015625)" d="m3513 2113v-2113h-575v2094q0 497-194 743-194 247-581 247-466 0-735-297-269-296-269-809v-1978h-578v3500h578v-544q207 316 486 472 280 156 646 156 603 0 912-373 310-373 310-1098z"/>
<path id="as" transform="scale(.015625)" d="m1984 4856q-418-718-622-1422-203-703-203-1425 0-721 205-1429t620-1424h-500q-468 735-701 1444t-233 1409q0 697 231 1403 232 707 703 1444h500z"/>
<path id="ab" transform="scale(.015625)" d="m1344 4891v-6400h-531v6400h531z"/>
<path id="w" transform="scale(.015625)" d="m3425 4513v-616q-359 172-678 256-319 85-616 85-515 0-795-200t-280-569q0-310 186-468 186-157 705-254l381-78q706-135 1042-474t336-907q0-679-455-1029-454-350-1332-350-331 0-705 75-373 75-773 222v650q384-215 753-325 369-109 725-109 540 0 834 212 294 213 294 607 0 343-211 537t-692 291l-385 75q-706 140-1022 440-315 300-315 835 0 619 436 975t1201 356q329 0 669-60 341-59 697-177z"/>
<path id="ah" transform="scale(.015625)" d="m628 4666h631v-1913h2294v1913h631v-4666h-631v2222h-2294v-2222h-631v4666z"/>
<path id="ak" transform="scale(.015625)" d="m2188 4044-857-2322h1716l-859 2322zm-357 622h716l1778-4666h-656l-425 1197h-2103l-425-1197h-666l1781 4666z"/>
<path id="o" transform="scale(.015625)" d="m1259 4147v-1753h794q441 0 681 228 241 228 241 650 0 419-241 647-240 228-681 228h-794zm-631 519h1425q785 0 1186-355 402-355 402-1039 0-691-402-1044-401-353-1186-353h-794v-1875h-631v4666z"/>
<path id="am" transform="scale(.015625)" d="m191 3500h609l1094-2937 1094 2937h609l-1313-3500h-781l-1312 3500z"/>
<path id="u" transform="scale(.015625)" d="m603 4863h575v-4863h-575v4863z"/>
<path id="j" transform="scale(.015625)" d="m544 1381v2119h575v-2097q0-497 193-746 194-248 582-248 465 0 735 297 271 297 271 810v1984h575v-3500h-575v538q-209-319-486-474-276-155-642-155-603 0-916 375-312 375-312 1097zm1447 2203z"/>
<path id="ar" transform="scale(.015625)" d="m513 4856h500q468-737 701-1444 233-706 233-1403 0-700-233-1409t-701-1444h-500q415 716 620 1424t205 1429q0 722-205 1425-205 704-620 1422z"/>
</defs>
<use xlinkHref="#l"/>
<use x="97.412109" xlinkHref="#b"/>
<use x="158.935547" xlinkHref="#h"/>
<use x="220.214844" xlinkHref="#k"/>
<use x="283.59375" xlinkHref="#as"/>
<use x="322.607422" xlinkHref="#ab"/>
<use x="356.298828" xlinkHref="#w"/>
<use x="419.775391" xlinkHref="#ah"/>
<use x="494.970703" xlinkHref="#ak"/>
<use x="563.378906" xlinkHref="#o"/>
<use x="623.681641" xlinkHref="#DejaVuSans-20"/>
<use x="655.46875" xlinkHref="#am"/>
<use x="714.648438" xlinkHref="#h"/>
<use x="775.927734" xlinkHref="#u"/>
<use x="803.710938" xlinkHref="#j"/>
<use x="867.089844" xlinkHref="#b"/>
<use x="928.613281" xlinkHref="#ab"/>
<use x="962.304688" xlinkHref="#ar"/>
</g>
<g transform="translate(1.2655 89.3) scale(.13 -.13)" fill="#999">
<defs>
<path id="p" transform="scale(.015625)" d="m628 4666h941l1190-3175 1197 3175h941v-4666h-616v4097l-1203-3200h-634l-1203 3200v-4097h-613v4666z"/>
<path id="e" transform="scale(.015625)" d="m1172 4494v-994h1184v-447h-1184v-1900q0-428 117-550t477-122h590v-481h-590q-666 0-919 248-253 249-253 905v1900h-422v447h422v994h578z"/>
<path id="ad" transform="scale(.015625)" d="m213 4666h637l981-3944 978 3944h710l981-3944 978 3944h641l-1172-4666h-794l-984 4050-994-4050h-794l-1168 4666z"/>
<path id="v" transform="scale(.015625)" d="m603 3500h575v-3500h-575v3500zm0 1363h575v-729h-575v729z"/>
<path id="g" transform="scale(.015625)" d="m2834 3397v-544q-243 125-506 187-262 63-544 63-428 0-642-131t-214-394q0-200 153-314t616-217l197-44q612-131 870-370t258-667q0-488-386-773-386-284-1061-284-281 0-586 55t-642 164v594q319-166 628-249 309-82 613-82 406 0 624 139 219 139 219 392 0 234-158 359-157 125-692 241l-200 47q-534 112-772 345-237 233-237 639 0 494 350 762 350 269 994 269 318 0 599-47 282-46 519-140z"/>
</defs>
<use xlinkHref="#p"/>
<use x="86.279297" xlinkHref="#k"/>
<use x="149.658203" xlinkHref="#e"/>
<use x="188.867188" xlinkHref="#ad"/>
<use x="285.494141" xlinkHref="#v"/>
<use x="313.277344" xlinkHref="#k"/>
<use x="376.65625" xlinkHref="#b"/>
<use x="438.179688" xlinkHref="#g"/>
</g>
<g transform="translate(17.162 123.07) scale(.13 -.13)" fill="#999">
<defs>
<path id="ag" transform="scale(.015625)" d="m628 4666h631v-4666h-631v4666z"/>
<path id="s" transform="scale(.015625)" d="m3122 3366v-538q-244 135-489 202t-495 67q-560 0-870-355-309-354-309-995t309-996q310-354 870-354 250 0 495 67t489 202v-532q-241-112-499-168-257-57-548-57-791 0-1257 497-465 497-465 1341 0 856 470 1346 471 491 1290 491 265 0 518-55 253-54 491-163z"/>
<path id="d" transform="scale(.015625)" d="m1959 3097q-462 0-731-361t-269-989 267-989q268-361 733-361 460 0 728 362 269 363 269 988 0 622-269 986-268 364-728 364zm0 487q750 0 1178-488 429-487 429-1349 0-859-429-1349-428-489-1178-489-753 0-1180 489-426 490-426 1349 0 862 426 1349 427 488 1180 488z"/>
</defs>
<use xlinkHref="#ag"/>
<use x="29.492188" xlinkHref="#k"/>
<use x="92.871094" xlinkHref="#s"/>
<use x="147.851562" xlinkHref="#d"/>
<use x="209.033203" xlinkHref="#l"/>
<use x="306.445312" xlinkHref="#b"/>
</g>
<g transform="translate(-1.822 156.85) scale(.13 -.13)" fill="#999">
<defs>
<path id="ae" transform="scale(.015625)" d="m-19 4666h3947v-532h-1656v-4134h-634v4134h-1657v532z"/>
<path id="m" transform="scale(.015625)" d="m3513 2113v-2113h-575v2094q0 497-194 743-194 247-581 247-466 0-735-297-269-296-269-809v-1978h-578v4863h578v-1907q207 316 486 472 280 156 646 156 603 0 912-373 310-373 310-1098z"/>
</defs>
<use xlinkHref="#ae"/>
<use x="44.083984" xlinkHref="#b"/>
<use x="105.607422" xlinkHref="#b"/>
<use x="167.130859" xlinkHref="#k"/>
<use x="230.509766" xlinkHref="#m"/>
<use x="293.888672" xlinkHref="#d"/>
<use x="355.070312" xlinkHref="#l"/>
<use x="452.482422" xlinkHref="#b"/>
</g>
<g transform="translate(-47.956 190.62) scale(.13 -.13)" fill="#999">
<defs>
<path id="f" transform="scale(.015625)" d="m2631 2963q-97 56-211 82-114 27-251 27-488 0-749-317t-261-911v-1844h-578v3500h578v-544q182 319 472 473 291 155 707 155 59 0 131-8 72-7 159-23l3-590z"/>
<path id="n" transform="scale(.015625)" d="m2906 2969v1894h575v-4863h-575v525q-181-312-458-464-276-152-664-152-634 0-1033 506-398 507-398 1332t398 1331q399 506 1033 506 388 0 664-152 277-151 458-463zm-1959-1222q0-634 261-995t717-361 718 361q263 361 263 995t-263 995q-262 361-718 361t-717-361-261-995z"/>
</defs>
<use xlinkHref="#p"/>
<use x="86.279297" xlinkHref="#k"/>
<use x="149.658203" xlinkHref="#e"/>
<use x="188.867188" xlinkHref="#p"/>
<use x="275.146484" xlinkHref="#b"/>
<use x="336.669922" xlinkHref="#h"/>
<use x="397.949219" xlinkHref="#e"/>
<use x="437.158203" xlinkHref="#o"/>
<use x="495.710938" xlinkHref="#f"/>
<use x="534.574219" xlinkHref="#d"/>
<use x="595.755859" xlinkHref="#n"/>
<use x="659.232422" xlinkHref="#j"/>
<use x="722.611328" xlinkHref="#s"/>
<use x="777.591797" xlinkHref="#e"/>
<use x="816.800781" xlinkHref="#g"/>
</g>
<g transform="translate(-25.086 224.39) scale(.13 -.13)" fill="#999">
<defs>
<path id="ai" transform="scale(.015625)" d="m3809 666v1253h-1031v519h1656v-2004q-365-259-806-392-440-133-940-133-1094 0-1712 639-617 640-617 1780 0 1144 617 1783 618 639 1712 639 456 0 867-113 411-112 758-331v-672q-350 297-744 447t-828 150q-857 0-1287-478-429-478-429-1425 0-944 429-1422 430-478 1287-478 334 0 596 58 263 58 472 180z"/>
</defs>
<use xlinkHref="#p"/>
<use x="86.279297" xlinkHref="#k"/>
<use x="149.658203" xlinkHref="#e"/>
<use x="188.867188" xlinkHref="#ai"/>
<use x="266.357422" xlinkHref="#d"/>
<use x="327.539062" xlinkHref="#u"/>
<use x="355.322266" xlinkHref="#n"/>
<use x="418.798828" xlinkHref="#o"/>
<use x="477.351562" xlinkHref="#f"/>
<use x="516.214844" xlinkHref="#d"/>
<use x="577.396484" xlinkHref="#n"/>
<use x="640.873047" xlinkHref="#g"/>
</g>
<g transform="translate(-81.352 258.17) scale(.13 -.13)" fill="#999">
<defs>
<path id="z" transform="scale(.015625)" d="m628 4666h850l2069-3903v3903h612v-4666h-850l-2068 3903v-3903h-613v4666z"/>
<path id="aj" transform="scale(.015625)" d="m4122 4306v-665q-319 297-680 443-361 147-767 147-800 0-1225-489t-425-1414q0-922 425-1411t1225-489q406 0 767 147t680 444v-660q-331-225-702-338-370-112-782-112-1060 0-1670 648-609 649-609 1771 0 1125 609 1773 610 649 1670 649 418 0 788-111 371-111 696-333z"/>
<path id="ac" transform="scale(.015625)" d="m2906 1791q0 625-258 968-257 344-723 344-462 0-720-344-258-343-258-968 0-622 258-966t720-344q466 0 723 344 258 344 258 966zm575-1357q0-893-397-1329-396-436-1215-436-303 0-572 45t-522 139v559q253-137 500-202 247-66 503-66 566 0 847 295t281 892v285q-178-310-456-463t-666-153q-643 0-1037 490-394 491-394 1301 0 812 394 1302 394 491 1037 491 388 0 666-153t456-462v531h575v-3066z"/>
</defs>
<use xlinkHref="#z"/>
<use x="74.804688" xlinkHref="#j"/>
<use x="138.183594" xlinkHref="#l"/>
<use x="235.595703" xlinkHref="#aj"/>
<use x="305.419922" xlinkHref="#h"/>
<use x="366.699219" xlinkHref="#e"/>
<use x="405.908203" xlinkHref="#h"/>
<use x="467.1875" xlinkHref="#u"/>
<use x="494.970703" xlinkHref="#d"/>
<use x="556.152344" xlinkHref="#ac"/>
<use x="619.628906" xlinkHref="#o"/>
<use x="678.181641" xlinkHref="#j"/>
<use x="741.560547" xlinkHref="#f"/>
<use x="780.423828" xlinkHref="#s"/>
<use x="835.404297" xlinkHref="#m"/>
<use x="898.783203" xlinkHref="#h"/>
<use x="960.0625" xlinkHref="#g"/>
<use x="1012.162109" xlinkHref="#b"/>
<use x="1073.685547" xlinkHref="#g"/>
</g>
<g transform="translate(-65.78 291.94) scale(.13 -.13)" fill="#999">
<use xlinkHref="#z"/>
<use x="74.804688" xlinkHref="#j"/>
<use x="138.183594" xlinkHref="#l"/>
<use x="235.595703" xlinkHref="#w"/>
<use x="299.072266" xlinkHref="#e"/>
<use x="338.28125" xlinkHref="#d"/>
<use x="399.462891" xlinkHref="#f"/>
<use x="438.326172" xlinkHref="#b"/>
<use x="499.849609" xlinkHref="#o"/>
<use x="558.402344" xlinkHref="#j"/>
<use x="621.78125" xlinkHref="#f"/>
<use x="660.644531" xlinkHref="#s"/>
<use x="715.625" xlinkHref="#m"/>
<use x="779.003906" xlinkHref="#h"/>
<use x="840.283203" xlinkHref="#g"/>
<use x="892.382812" xlinkHref="#b"/>
<use x="953.90625" xlinkHref="#g"/>
</g>
<g transform="translate(15.492 325.71) scale(.13 -.13)" fill="#999">
<use xlinkHref="#p"/>
<use x="86.279297" xlinkHref="#h"/>
<use x="147.558594" xlinkHref="#f"/>
<use x="186.921875" xlinkHref="#f"/>
<use x="228.035156" xlinkHref="#v"/>
<use x="255.818359" xlinkHref="#b"/>
<use x="317.341797" xlinkHref="#n"/>
</g>
<g transform="translate(7.7553 359.49) scale(.13 -.13)" fill="#999">
<defs>
<path id="af" transform="scale(.015625)" d="m628 4666h631v-1972l2094 1972h813l-2316-2175 2481-2491h-831l-2241 2247v-2247h-631v4666z"/>
</defs>
<use xlinkHref="#af"/>
<use x="65.576172" xlinkHref="#v"/>
<use x="93.359375" xlinkHref="#n"/>
<use x="156.835938" xlinkHref="#m"/>
<use x="220.214844" xlinkHref="#d"/>
<use x="281.396484" xlinkHref="#l"/>
<use x="378.808594" xlinkHref="#b"/>
</g>
<g transform="translate(-98.087 393.26) scale(.13 -.13)" fill="#999">
<defs>
<path id="y" transform="scale(.015625)" d="m2375 4863v-479h-550q-309 0-430-125-120-125-120-450v-309h947v-447h-947v-3053h-578v3053h-550v447h550v244q0 584 272 851 272 268 862 268h544z"/>
</defs>
<use xlinkHref="#w"/>
<use x="63.476562" xlinkHref="#j"/>
<use x="126.855469" xlinkHref="#l"/>
<use x="224.267578" xlinkHref="#DejaVuSans-20"/>
<use x="256.054688" xlinkHref="#d"/>
<use x="317.236328" xlinkHref="#y"/>
<use x="352.441406" xlinkHref="#DejaVuSans-20"/>
<use x="384.228516" xlinkHref="#x"/>
<use x="447.851562" xlinkHref="#aa"/>
<use x="511.474609" xlinkHref="#DejaVuSans-20"/>
<use x="543.261719" xlinkHref="#d"/>
<use x="604.443359" xlinkHref="#e"/>
<use x="643.652344" xlinkHref="#m"/>
<use x="707.03125" xlinkHref="#b"/>
<use x="768.554688" xlinkHref="#f"/>
<use x="809.667969" xlinkHref="#DejaVuSans-20"/>
<use x="841.455078" xlinkHref="#y"/>
<use x="876.660156" xlinkHref="#b"/>
<use x="938.183594" xlinkHref="#h"/>
<use x="999.462891" xlinkHref="#e"/>
<use x="1038.671875" xlinkHref="#j"/>
<use x="1102.050781" xlinkHref="#f"/>
<use x="1140.914062" xlinkHref="#b"/>
<use x="1202.4375" xlinkHref="#g"/>
</g>
<g transform="translate(1.2655 89.3) scale(.13 -.13)">
<use xlinkHref="#p"/>
<use x="86.279297" xlinkHref="#k"/>
<use x="149.658203" xlinkHref="#e"/>
<use x="188.867188" xlinkHref="#ad"/>
<use x="285.494141" xlinkHref="#v"/>
<use x="313.277344" xlinkHref="#k"/>
<use x="376.65625" xlinkHref="#b"/>
<use x="438.179688" xlinkHref="#g"/>
</g>
<g transform="translate(17.162 123.07) scale(.13 -.13)">
<use xlinkHref="#ag"/>
<use x="29.492188" xlinkHref="#k"/>
<use x="92.871094" xlinkHref="#s"/>
<use x="147.851562" xlinkHref="#d"/>
<use x="209.033203" xlinkHref="#l"/>
<use x="306.445312" xlinkHref="#b"/>
</g>
<g transform="translate(-1.822 156.85) scale(.13 -.13)">
<use xlinkHref="#ae"/>
<use x="44.083984" xlinkHref="#b"/>
<use x="105.607422" xlinkHref="#b"/>
<use x="167.130859" xlinkHref="#k"/>
<use x="230.509766" xlinkHref="#m"/>
<use x="293.888672" xlinkHref="#d"/>
<use x="355.070312" xlinkHref="#l"/>
<use x="452.482422" xlinkHref="#b"/>
</g>
<g transform="translate(-47.956 190.62) scale(.13 -.13)">
<use xlinkHref="#p"/>
<use x="86.279297" xlinkHref="#k"/>
<use x="149.658203" xlinkHref="#e"/>
<use x="188.867188" xlinkHref="#p"/>
<use x="275.146484" xlinkHref="#b"/>
<use x="336.669922" xlinkHref="#h"/>
<use x="397.949219" xlinkHref="#e"/>
<use x="437.158203" xlinkHref="#o"/>
<use x="495.710938" xlinkHref="#f"/>
<use x="534.574219" xlinkHref="#d"/>
<use x="595.755859" xlinkHref="#n"/>
<use x="659.232422" xlinkHref="#j"/>
<use x="722.611328" xlinkHref="#s"/>
<use x="777.591797" xlinkHref="#e"/>
<use x="816.800781" xlinkHref="#g"/>
</g>
<g transform="translate(-25.086 224.39) scale(.13 -.13)">
<use xlinkHref="#p"/>
<use x="86.279297" xlinkHref="#k"/>
<use x="149.658203" xlinkHref="#e"/>
<use x="188.867188" xlinkHref="#ai"/>
<use x="266.357422" xlinkHref="#d"/>
<use x="327.539062" xlinkHref="#u"/>
<use x="355.322266" xlinkHref="#n"/>
<use x="418.798828" xlinkHref="#o"/>
<use x="477.351562" xlinkHref="#f"/>
<use x="516.214844" xlinkHref="#d"/>
<use x="577.396484" xlinkHref="#n"/>
<use x="640.873047" xlinkHref="#g"/>
</g>
<g transform="translate(-81.352 258.17) scale(.13 -.13)">
<use xlinkHref="#z"/>
<use x="74.804688" xlinkHref="#j"/>
<use x="138.183594" xlinkHref="#l"/>
<use x="235.595703" xlinkHref="#aj"/>
<use x="305.419922" xlinkHref="#h"/>
<use x="366.699219" xlinkHref="#e"/>
<use x="405.908203" xlinkHref="#h"/>
<use x="467.1875" xlinkHref="#u"/>
<use x="494.970703" xlinkHref="#d"/>
<use x="556.152344" xlinkHref="#ac"/>
<use x="619.628906" xlinkHref="#o"/>
<use x="678.181641" xlinkHref="#j"/>
<use x="741.560547" xlinkHref="#f"/>
<use x="780.423828" xlinkHref="#s"/>
<use x="835.404297" xlinkHref="#m"/>
<use x="898.783203" xlinkHref="#h"/>
<use x="960.0625" xlinkHref="#g"/>
<use x="1012.162109" xlinkHref="#b"/>
<use x="1073.685547" xlinkHref="#g"/>
</g>
<g transform="translate(-65.78 291.94) scale(.13 -.13)">
<use xlinkHref="#z"/>
<use x="74.804688" xlinkHref="#j"/>
<use x="138.183594" xlinkHref="#l"/>
<use x="235.595703" xlinkHref="#w"/>
<use x="299.072266" xlinkHref="#e"/>
<use x="338.28125" xlinkHref="#d"/>
<use x="399.462891" xlinkHref="#f"/>
<use x="438.326172" xlinkHref="#b"/>
<use x="499.849609" xlinkHref="#o"/>
<use x="558.402344" xlinkHref="#j"/>
<use x="621.78125" xlinkHref="#f"/>
<use x="660.644531" xlinkHref="#s"/>
<use x="715.625" xlinkHref="#m"/>
<use x="779.003906" xlinkHref="#h"/>
<use x="840.283203" xlinkHref="#g"/>
<use x="892.382812" xlinkHref="#b"/>
<use x="953.90625" xlinkHref="#g"/>
</g>
<g transform="translate(15.492 325.71) scale(.13 -.13)">
<use xlinkHref="#p"/>
<use x="86.279297" xlinkHref="#h"/>
<use x="147.558594" xlinkHref="#f"/>
<use x="186.921875" xlinkHref="#f"/>
<use x="228.035156" xlinkHref="#v"/>
<use x="255.818359" xlinkHref="#b"/>
<use x="317.341797" xlinkHref="#n"/>
</g>
<g transform="translate(7.7553 359.49) scale(.13 -.13)">
<use xlinkHref="#af"/>
<use x="65.576172" xlinkHref="#v"/>
<use x="93.359375" xlinkHref="#n"/>
<use x="156.835938" xlinkHref="#m"/>
<use x="220.214844" xlinkHref="#d"/>
<use x="281.396484" xlinkHref="#l"/>
<use x="378.808594" xlinkHref="#b"/>
</g>
<g transform="translate(-98.087 393.26) scale(.13 -.13)">
<use xlinkHref="#w"/>
<use x="63.476562" xlinkHref="#j"/>
<use x="126.855469" xlinkHref="#l"/>
<use x="224.267578" xlinkHref="#DejaVuSans-20"/>
<use x="256.054688" xlinkHref="#d"/>
<use x="317.236328" xlinkHref="#y"/>
<use x="352.441406" xlinkHref="#DejaVuSans-20"/>
<use x="384.228516" xlinkHref="#x"/>
<use x="447.851562" xlinkHref="#aa"/>
<use x="511.474609" xlinkHref="#DejaVuSans-20"/>
<use x="543.261719" xlinkHref="#d"/>
<use x="604.443359" xlinkHref="#e"/>
<use x="643.652344" xlinkHref="#m"/>
<use x="707.03125" xlinkHref="#b"/>
<use x="768.554688" xlinkHref="#f"/>
<use x="809.667969" xlinkHref="#DejaVuSans-20"/>
<use x="841.455078" xlinkHref="#y"/>
<use x="876.660156" xlinkHref="#b"/>
<use x="938.183594" xlinkHref="#h"/>
<use x="999.462891" xlinkHref="#e"/>
<use x="1038.671875" xlinkHref="#j"/>
<use x="1102.050781" xlinkHref="#f"/>
<use x="1140.914062" xlinkHref="#b"/>
<use x="1202.4375" xlinkHref="#g"/>
</g>
<path d="m72 416.52v-360.36" fill="none" stroke="#000" stroke-linecap="square" stroke-width=".8"/>
<path d="m72 416.52h446.4" fill="none" stroke="#000" stroke-linecap="square" stroke-width=".8"/>
<g transform="translate(269.55 87.672) scale(.12 -.12)" fill="#ff0051">
<defs>
<path id="q" transform="scale(.015625)" d="m2944 4013v-1741h1740v-531h-1740v-1741h-525v1741h-1741v531h1741v1741h525z"/>
<path id="al" transform="scale(.015625)" d="m691 4666h2478v-532h-1900v-1143q137 47 274 70 138 23 276 23 781 0 1237-428 457-428 457-1159 0-753-469-1171-469-417-1322-417-294 0-599 50-304 50-629 150v635q281-153 581-228t634-75q541 0 856 284 316 284 316 772 0 487-316 771-315 285-856 285-253 0-505-56-251-56-513-175v2344z"/>
</defs>
<use xlinkHref="#q"/>
<use x="83.789062" xlinkHref="#a"/>
<use x="147.412109" xlinkHref="#i"/>
<use x="179.199219" xlinkHref="#a"/>
<use x="242.822266" xlinkHref="#al"/>
</g>
<g transform="translate(264.04 121.45) scale(.12 -.12)" fill="#ff0051">
<use xlinkHref="#q"/>
<use x="83.789062" xlinkHref="#a"/>
<use x="147.412109" xlinkHref="#i"/>
<use x="179.199219" xlinkHref="#a"/>
<use x="242.822266" xlinkHref="#al"/>
</g>
<g transform="translate(167.68 155.22) scale(.12 -.12)" fill="#ff0051">
<defs>
<path id="aq" transform="scale(.015625)" d="m2597 2516q453-97 707-404 255-306 255-756 0-690-475-1069-475-378-1350-378-293 0-604 58t-642 174v609q262-153 574-231 313-78 654-78 593 0 904 234t311 681q0 413-289 645-289 233-804 233h-544v519h569q465 0 712 186t247 536q0 359-255 551-254 193-729 193-260 0-557-57-297-56-653-174v562q360 100 674 150t592 50q719 0 1137-327 419-326 419-882 0-388-222-655t-631-370z"/>
</defs>
<use xlinkHref="#q"/>
<use x="83.789062" xlinkHref="#a"/>
<use x="147.412109" xlinkHref="#i"/>
<use x="179.199219" xlinkHref="#a"/>
<use x="242.822266" xlinkHref="#aq"/>
</g>
<g transform="translate(164.36 188.99) scale(.12 -.12)" fill="#ff0051">
<use xlinkHref="#q"/>
<use x="83.789062" xlinkHref="#a"/>
<use x="147.412109" xlinkHref="#i"/>
<use x="179.199219" xlinkHref="#a"/>
<use x="242.822266" xlinkHref="#r"/>
</g>
<g transform="translate(158.22 222.76) scale(.12 -.12)" fill="#ff0051">
<use xlinkHref="#q"/>
<use x="83.789062" xlinkHref="#a"/>
<use x="147.412109" xlinkHref="#i"/>
<use x="179.199219" xlinkHref="#a"/>
<use x="242.822266" xlinkHref="#r"/>
</g>
<g transform="translate(153.09 256.54) scale(.12 -.12)" fill="#ff0051">
<use xlinkHref="#q"/>
<use x="83.789062" xlinkHref="#a"/>
<use x="147.412109" xlinkHref="#i"/>
<use x="179.199219" xlinkHref="#a"/>
<use x="242.822266" xlinkHref="#r"/>
</g>
<g transform="translate(146.82 290.31) scale(.12 -.12)" fill="#ff0051">
<use xlinkHref="#q"/>
<use x="83.789062" xlinkHref="#a"/>
<use x="147.412109" xlinkHref="#i"/>
<use x="179.199219" xlinkHref="#a"/>
<use x="242.822266" xlinkHref="#r"/>
</g>
<g transform="translate(142.55 324.08) scale(.12 -.12)" fill="#ff0051">
<use xlinkHref="#q"/>
<use x="83.789062" xlinkHref="#a"/>
<use x="147.412109" xlinkHref="#i"/>
<use x="179.199219" xlinkHref="#a"/>
<use x="242.822266" xlinkHref="#r"/>
</g>
<g transform="translate(136.06 357.86) scale(.12 -.12)" fill="#ff0051">
<use xlinkHref="#q"/>
<use x="83.789062" xlinkHref="#a"/>
<use x="147.412109" xlinkHref="#i"/>
<use x="179.199219" xlinkHref="#a"/>
<use x="242.822266" xlinkHref="#r"/>
</g>
<g transform="translate(481.66 391.63) scale(.12 -.12)" fill="#ff0051">
<use xlinkHref="#q"/>
<use x="83.789062" xlinkHref="#a"/>
<use x="147.412109" xlinkHref="#i"/>
<use x="179.199219" xlinkHref="#x"/>
<use x="242.822266" xlinkHref="#r"/>
</g>
<g transform="translate(257.65 50.16) scale(.12 -.12)">
<defs>
<path id="an" transform="scale(.015625)" d="m1831 0-1781 4666h659l1479-3928 1481 3928h656l-1778-4666h-716z"/>
</defs>
<use xlinkHref="#w"/>
<use x="63.476562" xlinkHref="#ah"/>
<use x="138.671875" xlinkHref="#ak"/>
<use x="207.080078" xlinkHref="#o"/>
<use x="267.382812" xlinkHref="#DejaVuSans-20"/>
<use x="299.169922" xlinkHref="#an"/>
<use x="359.828125" xlinkHref="#h"/>
<use x="421.107422" xlinkHref="#u"/>
<use x="448.890625" xlinkHref="#j"/>
<use x="512.269531" xlinkHref="#b"/>
<use x="573.792969" xlinkHref="#g"/>
</g>
<defs>
<clipPath id="c">
<rect x="72" y="56.16" width="446.4" height="360.36"/>
</clipPath>
</defs>
</svg>
